<?xml version="1.0" encoding="UTF-8" standalone="no"?>
<!DOCTYPE svg PUBLIC "-//W3C//DTD SVG 1.1//EN"
 "http://www.w3.org/Graphics/SVG/1.1/DTD/svg11.dtd">
<!-- Generated by graphviz version 2.40.1 (20161225.0304)
 -->
<!-- Title: structs Pages: 1 -->
<svg width="1542pt" height="709pt"
 viewBox="0.00 0.00 1542.36 709.00" xmlns="http://www.w3.org/2000/svg" xmlns:xlink="http://www.w3.org/1999/xlink">
<g id="graph0" class="graph" transform="scale(1 1) rotate(0) translate(4 705)">
<title>structs</title>
<polygon fill="#ffffff" stroke="transparent" points="-4,4 -4,-705 1538.3565,-705 1538.3565,4 -4,4"/>
<!-- bold_reference_wfinputnode -->
<g id="node1" class="node">
<title>bold_reference_wfinputnode</title>
<polygon fill="none" stroke="#000000" points="172.8565,-585.5 172.8565,-700.5 414.8565,-700.5 414.8565,-585.5 172.8565,-585.5"/>
<text text-anchor="middle" x="190.3565" y="-639.3" font-family="Times,serif" font-size="14.00" fill="#000000">IN</text>
<polyline fill="none" stroke="#000000" points="207.8565,-585.5 207.8565,-700.5 "/>
<text text-anchor="middle" x="252.3565" y="-677.8" font-family="Times,serif" font-size="14.00" fill="#000000">inputnode</text>
<polyline fill="none" stroke="#000000" points="207.8565,-662.5 296.8565,-662.5 "/>
<text text-anchor="middle" x="252.3565" y="-639.8" font-family="Times,serif" font-size="14.00" fill="#000000">utility</text>
<polyline fill="none" stroke="#000000" points="207.8565,-624.5 296.8565,-624.5 "/>
<text text-anchor="middle" x="252.3565" y="-601.3" font-family="Times,serif" font-size="14.00" fill="#000000"> </text>
<polyline fill="none" stroke="#000000" points="296.8565,-585.5 296.8565,-700.5 "/>
<text text-anchor="middle" x="355.8565" y="-685.3" font-family="Times,serif" font-size="14.00" fill="#000000">OUT</text>
<polyline fill="none" stroke="#000000" points="296.8565,-677.5 414.8565,-677.5 "/>
<text text-anchor="middle" x="355.8565" y="-662.3" font-family="Times,serif" font-size="14.00" fill="#000000">bold_file</text>
<polyline fill="none" stroke="#000000" points="296.8565,-654.5 414.8565,-654.5 "/>
<text text-anchor="middle" x="355.8565" y="-639.3" font-family="Times,serif" font-size="14.00" fill="#000000">bold_mask</text>
<polyline fill="none" stroke="#000000" points="296.8565,-631.5 414.8565,-631.5 "/>
<text text-anchor="middle" x="355.8565" y="-616.3" font-family="Times,serif" font-size="14.00" fill="#000000">dummy_scans</text>
<polyline fill="none" stroke="#000000" points="296.8565,-608.5 414.8565,-608.5 "/>
<text text-anchor="middle" x="355.8565" y="-593.3" font-family="Times,serif" font-size="14.00" fill="#000000">sbref_file</text>
</g>
<!-- bold_reference_wfvalidate -->
<g id="node2" class="node">
<title>bold_reference_wfvalidate</title>
<polygon fill="none" stroke="#000000" points="819.8565,-479.5 819.8565,-548.5 1045.8565,-548.5 1045.8565,-479.5 819.8565,-479.5"/>
<text text-anchor="middle" x="849.8565" y="-527.8" font-family="Times,serif" font-size="14.00" fill="#000000">IN</text>
<polyline fill="none" stroke="#000000" points="819.8565,-514.5 879.8565,-514.5 "/>
<text text-anchor="middle" x="849.8565" y="-493.3" font-family="Times,serif" font-size="14.00" fill="#000000">in_file</text>
<polyline fill="none" stroke="#000000" points="879.8565,-479.5 879.8565,-548.5 "/>
<text text-anchor="middle" x="916.8565" y="-533.3" font-family="Times,serif" font-size="14.00" fill="#000000">validate</text>
<polyline fill="none" stroke="#000000" points="879.8565,-525.5 953.8565,-525.5 "/>
<text text-anchor="middle" x="916.8565" y="-510.3" font-family="Times,serif" font-size="14.00" fill="#000000">images</text>
<polyline fill="none" stroke="#000000" points="879.8565,-502.5 953.8565,-502.5 "/>
<text text-anchor="middle" x="916.8565" y="-487.3" font-family="Times,serif" font-size="14.00" fill="#000000"> </text>
<polyline fill="none" stroke="#000000" points="953.8565,-479.5 953.8565,-548.5 "/>
<text text-anchor="middle" x="999.8565" y="-533.3" font-family="Times,serif" font-size="14.00" fill="#000000">OUT</text>
<polyline fill="none" stroke="#000000" points="953.8565,-525.5 1045.8565,-525.5 "/>
<text text-anchor="middle" x="999.8565" y="-510.3" font-family="Times,serif" font-size="14.00" fill="#000000">out_file</text>
<polyline fill="none" stroke="#000000" points="953.8565,-502.5 1045.8565,-502.5 "/>
<text text-anchor="middle" x="999.8565" y="-487.3" font-family="Times,serif" font-size="14.00" fill="#000000">out_report</text>
</g>
<!-- bold_reference_wfinputnode&#45;&gt;bold_reference_wfvalidate -->
<g id="edge9" class="edge">
<title>bold_reference_wfinputnode:e&#45;&gt;bold_reference_wfvalidate:w</title>
<path fill="none" stroke="#000000" d="M414.8565,-666C606.4708,-666 624.2338,-502.8892 809.7361,-497.1548"/>
<polygon fill="#000000" stroke="#000000" points="809.9113,-500.6526 819.8565,-497 809.8041,-493.6535 809.9113,-500.6526"/>
</g>
<!-- bold_reference_wfgen_ref -->
<g id="node3" class="node">
<title>bold_reference_wfgen_ref</title>
<polygon fill="none" stroke="#000000" points="191.3565,-373.5 191.3565,-442.5 550.3565,-442.5 550.3565,-373.5 191.3565,-373.5"/>
<text text-anchor="middle" x="232.8565" y="-427.3" font-family="Times,serif" font-size="14.00" fill="#000000">IN</text>
<polyline fill="none" stroke="#000000" points="191.3565,-419.5 274.3565,-419.5 "/>
<text text-anchor="middle" x="232.8565" y="-404.3" font-family="Times,serif" font-size="14.00" fill="#000000">in_file</text>
<polyline fill="none" stroke="#000000" points="191.3565,-396.5 274.3565,-396.5 "/>
<text text-anchor="middle" x="232.8565" y="-381.3" font-family="Times,serif" font-size="14.00" fill="#000000">sbref_file</text>
<polyline fill="none" stroke="#000000" points="274.3565,-373.5 274.3565,-442.5 "/>
<text text-anchor="middle" x="324.8565" y="-427.3" font-family="Times,serif" font-size="14.00" fill="#000000">gen_ref</text>
<polyline fill="none" stroke="#000000" points="274.3565,-419.5 375.3565,-419.5 "/>
<text text-anchor="middle" x="324.8565" y="-404.3" font-family="Times,serif" font-size="14.00" fill="#000000">registration</text>
<polyline fill="none" stroke="#000000" points="274.3565,-396.5 375.3565,-396.5 "/>
<text text-anchor="middle" x="324.8565" y="-381.3" font-family="Times,serif" font-size="14.00" fill="#000000"> </text>
<polyline fill="none" stroke="#000000" points="375.3565,-373.5 375.3565,-442.5 "/>
<text text-anchor="middle" x="462.8565" y="-427.3" font-family="Times,serif" font-size="14.00" fill="#000000">OUT</text>
<polyline fill="none" stroke="#000000" points="375.3565,-419.5 550.3565,-419.5 "/>
<text text-anchor="middle" x="462.8565" y="-404.3" font-family="Times,serif" font-size="14.00" fill="#000000">n_volumes_to_discard</text>
<polyline fill="none" stroke="#000000" points="375.3565,-396.5 550.3565,-396.5 "/>
<text text-anchor="middle" x="462.8565" y="-381.3" font-family="Times,serif" font-size="14.00" fill="#000000">ref_image</text>
</g>
<!-- bold_reference_wfinputnode&#45;&gt;bold_reference_wfgen_ref -->
<g id="edge12" class="edge">
<title>bold_reference_wfinputnode:e&#45;&gt;bold_reference_wfgen_ref:w</title>
<path fill="none" stroke="#000000" d="M414.8565,-597C535.6703,-597 249.0851,-548.8555 190.8565,-443 180.4708,-424.1194 169.4354,-396.2749 181.152,-387.6466"/>
<polygon fill="#000000" stroke="#000000" points="182.1298,-391.0079 190.8565,-385 180.288,-384.2545 182.1298,-391.0079"/>
</g>
<!-- bold_reference_wfcalc_dummy_scans -->
<g id="node4" class="node">
<title>bold_reference_wfcalc_dummy_scans</title>
<polygon fill="none" stroke="#000000" points="52.8565,-256 52.8565,-325 484.8565,-325 484.8565,-256 52.8565,-256"/>
<text text-anchor="middle" x="130.3565" y="-309.8" font-family="Times,serif" font-size="14.00" fill="#000000">IN</text>
<polyline fill="none" stroke="#000000" points="52.8565,-302 207.8565,-302 "/>
<text text-anchor="middle" x="130.3565" y="-286.8" font-family="Times,serif" font-size="14.00" fill="#000000">algo_dummy_scans</text>
<polyline fill="none" stroke="#000000" points="52.8565,-279 207.8565,-279 "/>
<text text-anchor="middle" x="130.3565" y="-263.8" font-family="Times,serif" font-size="14.00" fill="#000000">dummy_scans</text>
<polyline fill="none" stroke="#000000" points="207.8565,-256 207.8565,-325 "/>
<text text-anchor="middle" x="285.3565" y="-309.8" font-family="Times,serif" font-size="14.00" fill="#000000">calc_dummy_scans</text>
<polyline fill="none" stroke="#000000" points="207.8565,-302 362.8565,-302 "/>
<text text-anchor="middle" x="285.3565" y="-286.8" font-family="Times,serif" font-size="14.00" fill="#000000">utility</text>
<polyline fill="none" stroke="#000000" points="207.8565,-279 362.8565,-279 "/>
<text text-anchor="middle" x="285.3565" y="-263.8" font-family="Times,serif" font-size="14.00" fill="#000000"> </text>
<polyline fill="none" stroke="#000000" points="362.8565,-256 362.8565,-325 "/>
<text text-anchor="middle" x="423.8565" y="-304.3" font-family="Times,serif" font-size="14.00" fill="#000000">OUT</text>
<polyline fill="none" stroke="#000000" points="362.8565,-291 484.8565,-291 "/>
<text text-anchor="middle" x="423.8565" y="-269.8" font-family="Times,serif" font-size="14.00" fill="#000000">skip_vols_num</text>
</g>
<!-- bold_reference_wfinputnode&#45;&gt;bold_reference_wfcalc_dummy_scans -->
<g id="edge11" class="edge">
<title>bold_reference_wfinputnode:e&#45;&gt;bold_reference_wfcalc_dummy_scans:w</title>
<path fill="none" stroke="#000000" d="M414.8565,-620C430.4121,-620 424.7909,-596.9701 414.8565,-585 359.4099,-518.1909 296.7394,-594.5972 222.8565,-549 101.5169,-474.1146 -83.9749,-277.4208 42.7502,-267.8613"/>
<polygon fill="#000000" stroke="#000000" points="42.988,-271.3551 52.8565,-267.5 42.7379,-264.3596 42.988,-271.3551"/>
</g>
<!-- bold_reference_wfenhance_and_skullstrip_bold_wf -->
<g id="node5" class="node">
<title>bold_reference_wfenhance_and_skullstrip_bold_wf</title>
<polygon fill="none" stroke="#000000" points="579.3565,-244.5 579.3565,-336.5 1230.3565,-336.5 1230.3565,-244.5 579.3565,-244.5"/>
<text text-anchor="middle" x="660.8565" y="-317.8" font-family="Times,serif" font-size="14.00" fill="#000000">IN</text>
<polyline fill="none" stroke="#000000" points="579.3565,-306.5 742.3565,-306.5 "/>
<text text-anchor="middle" x="660.8565" y="-287.3" font-family="Times,serif" font-size="14.00" fill="#000000">inputnode.in_file</text>
<polyline fill="none" stroke="#000000" points="579.3565,-275.5 742.3565,-275.5 "/>
<text text-anchor="middle" x="660.8565" y="-256.3" font-family="Times,serif" font-size="14.00" fill="#000000">inputnode.pre_mask</text>
<polyline fill="none" stroke="#000000" points="742.3565,-244.5 742.3565,-336.5 "/>
<text text-anchor="middle" x="866.8565" y="-317.8" font-family="Times,serif" font-size="14.00" fill="#000000">enhance_and_skullstrip_bold_wf</text>
<polyline fill="none" stroke="#000000" points="742.3565,-306.5 991.3565,-306.5 "/>
<text text-anchor="middle" x="866.8565" y="-287.3" font-family="Times,serif" font-size="14.00" fill="#000000"> </text>
<polyline fill="none" stroke="#000000" points="742.3565,-275.5 991.3565,-275.5 "/>
<text text-anchor="middle" x="866.8565" y="-256.3" font-family="Times,serif" font-size="14.00" fill="#000000"> </text>
<polyline fill="none" stroke="#000000" points="991.3565,-244.5 991.3565,-336.5 "/>
<text text-anchor="middle" x="1110.8565" y="-321.3" font-family="Times,serif" font-size="14.00" fill="#000000">OUT</text>
<polyline fill="none" stroke="#000000" points="991.3565,-313.5 1230.3565,-313.5 "/>
<text text-anchor="middle" x="1110.8565" y="-298.3" font-family="Times,serif" font-size="14.00" fill="#000000">outputnode.bias_corrected_file</text>
<polyline fill="none" stroke="#000000" points="991.3565,-290.5 1230.3565,-290.5 "/>
<text text-anchor="middle" x="1110.8565" y="-275.3" font-family="Times,serif" font-size="14.00" fill="#000000">outputnode.mask_file</text>
<polyline fill="none" stroke="#000000" points="991.3565,-267.5 1230.3565,-267.5 "/>
<text text-anchor="middle" x="1110.8565" y="-252.3" font-family="Times,serif" font-size="14.00" fill="#000000">outputnode.skull_stripped_file</text>
</g>
<!-- bold_reference_wfinputnode&#45;&gt;bold_reference_wfenhance_and_skullstrip_bold_wf -->
<g id="edge10" class="edge">
<title>bold_reference_wfinputnode:e&#45;&gt;bold_reference_wfenhance_and_skullstrip_bold_wf:w</title>
<path fill="none" stroke="#000000" d="M414.8565,-643C524.6487,-643 518.2611,-544.6078 559.8565,-443 577.9071,-398.9069 571.3726,-384.4333 575.8565,-337 576.0126,-335.3495 576.4292,-290.3454 577.5947,-269.689"/>
<polygon fill="#000000" stroke="#000000" points="581.1009,-269.8544 578.8565,-259.5 574.154,-268.994 581.1009,-269.8544"/>
</g>
<!-- bold_reference_wfvalidate&#45;&gt;bold_reference_wfgen_ref -->
<g id="edge13" class="edge">
<title>bold_reference_wfvalidate:e&#45;&gt;bold_reference_wfgen_ref:w</title>
<path fill="none" stroke="#000000" d="M1045.8565,-514C1061.4121,-514 1056.6221,-490.2284 1045.8565,-479 980.0513,-410.3657 256.6618,-511.6343 190.8565,-443 183.2029,-435.0173 178.5695,-420.6949 182.1199,-413.0817"/>
<polygon fill="#000000" stroke="#000000" points="183.9722,-416.0534 190.8565,-408 180.4527,-410.0025 183.9722,-416.0534"/>
</g>
<!-- bold_reference_wfoutputnode -->
<g id="node6" class="node">
<title>bold_reference_wfoutputnode</title>
<polygon fill="none" stroke="#000000" points="1231.3565,-.5 1231.3565,-207.5 1534.3565,-207.5 1534.3565,-.5 1231.3565,-.5"/>
<text text-anchor="middle" x="1308.8565" y="-192.3" font-family="Times,serif" font-size="14.00" fill="#000000">IN</text>
<polyline fill="none" stroke="#000000" points="1231.3565,-184.5 1386.3565,-184.5 "/>
<text text-anchor="middle" x="1308.8565" y="-169.3" font-family="Times,serif" font-size="14.00" fill="#000000">algo_dummy_scans</text>
<polyline fill="none" stroke="#000000" points="1231.3565,-161.5 1386.3565,-161.5 "/>
<text text-anchor="middle" x="1308.8565" y="-146.3" font-family="Times,serif" font-size="14.00" fill="#000000">bold_file</text>
<polyline fill="none" stroke="#000000" points="1231.3565,-138.5 1386.3565,-138.5 "/>
<text text-anchor="middle" x="1308.8565" y="-123.3" font-family="Times,serif" font-size="14.00" fill="#000000">bold_mask</text>
<polyline fill="none" stroke="#000000" points="1231.3565,-115.5 1386.3565,-115.5 "/>
<text text-anchor="middle" x="1308.8565" y="-100.3" font-family="Times,serif" font-size="14.00" fill="#000000">raw_ref_image</text>
<polyline fill="none" stroke="#000000" points="1231.3565,-92.5 1386.3565,-92.5 "/>
<text text-anchor="middle" x="1308.8565" y="-77.3" font-family="Times,serif" font-size="14.00" fill="#000000">ref_image</text>
<polyline fill="none" stroke="#000000" points="1231.3565,-69.5 1386.3565,-69.5 "/>
<text text-anchor="middle" x="1308.8565" y="-54.3" font-family="Times,serif" font-size="14.00" fill="#000000">ref_image_brain</text>
<polyline fill="none" stroke="#000000" points="1231.3565,-46.5 1386.3565,-46.5 "/>
<text text-anchor="middle" x="1308.8565" y="-31.3" font-family="Times,serif" font-size="14.00" fill="#000000">skip_vols</text>
<polyline fill="none" stroke="#000000" points="1231.3565,-23.5 1386.3565,-23.5 "/>
<text text-anchor="middle" x="1308.8565" y="-8.3" font-family="Times,serif" font-size="14.00" fill="#000000">validation_report</text>
<polyline fill="none" stroke="#000000" points="1386.3565,-.5 1386.3565,-207.5 "/>
<text text-anchor="middle" x="1435.3565" y="-169.3" font-family="Times,serif" font-size="14.00" fill="#000000">outputnode</text>
<polyline fill="none" stroke="#000000" points="1386.3565,-138.5 1484.3565,-138.5 "/>
<text text-anchor="middle" x="1435.3565" y="-100.3" font-family="Times,serif" font-size="14.00" fill="#000000">utility</text>
<polyline fill="none" stroke="#000000" points="1386.3565,-69.5 1484.3565,-69.5 "/>
<text text-anchor="middle" x="1435.3565" y="-31.3" font-family="Times,serif" font-size="14.00" fill="#000000"> </text>
<polyline fill="none" stroke="#000000" points="1484.3565,-.5 1484.3565,-207.5 "/>
<text text-anchor="middle" x="1509.3565" y="-100.3" font-family="Times,serif" font-size="14.00" fill="#000000">OUT</text>
</g>
<!-- bold_reference_wfvalidate&#45;&gt;bold_reference_wfoutputnode -->
<g id="edge14" class="edge">
<title>bold_reference_wfvalidate:e&#45;&gt;bold_reference_wfoutputnode:w</title>
<path fill="none" stroke="#000000" d="M1045.8565,-514C1098.7109,-514 1241.5543,-485.5882 1272.8565,-443 1325.2365,-371.7346 1309.8137,-324.3529 1272.8565,-244 1262.5833,-221.6638 1241.1297,-230.3362 1230.8565,-208 1221.9365,-188.6058 1210.1121,-161.5574 1220.9507,-152.8324"/>
<polygon fill="#000000" stroke="#000000" points="1222.2041,-156.1144 1230.8565,-150 1220.2796,-149.3841 1222.2041,-156.1144"/>
</g>
<!-- bold_reference_wfvalidate&#45;&gt;bold_reference_wfoutputnode -->
<g id="edge15" class="edge">
<title>bold_reference_wfvalidate:e&#45;&gt;bold_reference_wfoutputnode:w</title>
<path fill="none" stroke="#000000" d="M1045.8565,-491C1155.9425,-491 1191.981,-436.1304 1239.8565,-337 1257.8321,-299.7801 1244.9068,-285.0236 1239.8565,-244 1237.8415,-227.6311 1232.8716,-224.3689 1230.8565,-208 1220.6704,-125.2566 1150.1953,-21.3711 1220.5152,-12.5962"/>
<polygon fill="#000000" stroke="#000000" points="1221.0746,-16.0699 1230.8565,-12 1220.6716,-9.0815 1221.0746,-16.0699"/>
</g>
<!-- bold_reference_wfgen_ref&#45;&gt;bold_reference_wfcalc_dummy_scans -->
<g id="edge5" class="edge">
<title>bold_reference_wfgen_ref:e&#45;&gt;bold_reference_wfcalc_dummy_scans:w</title>
<path fill="none" stroke="#000000" d="M550.8565,-408C566.4121,-408 561.3208,-384.5098 550.8565,-373 476.0733,-290.7444 127.6398,-407.7556 52.8565,-325.5 45.4989,-317.4072 40.7975,-303.3914 44.0619,-295.7828"/>
<polygon fill="#000000" stroke="#000000" points="46.0865,-298.6496 52.8565,-290.5 42.4819,-292.649 46.0865,-298.6496"/>
</g>
<!-- bold_reference_wfgen_ref&#45;&gt;bold_reference_wfenhance_and_skullstrip_bold_wf -->
<g id="edge7" class="edge">
<title>bold_reference_wfgen_ref:e&#45;&gt;bold_reference_wfenhance_and_skullstrip_bold_wf:w</title>
<path fill="none" stroke="#000000" d="M550.8565,-385C569.0723,-385 561.1423,-319.0509 570.9833,-297.9266"/>
<polygon fill="#000000" stroke="#000000" points="573.3229,-300.5349 578.8565,-291.5 568.8964,-295.1121 573.3229,-300.5349"/>
</g>
<!-- bold_reference_wfgen_ref&#45;&gt;bold_reference_wfoutputnode -->
<g id="edge6" class="edge">
<title>bold_reference_wfgen_ref:e&#45;&gt;bold_reference_wfoutputnode:w</title>
<path fill="none" stroke="#000000" d="M550.8565,-408C569.2138,-408 557.7843,-256.8881 570.8565,-244 621.4298,-194.1392 1118.1506,-174.4712 1220.7932,-173.0801"/>
<polygon fill="#000000" stroke="#000000" points="1220.8847,-176.5796 1230.8565,-173 1220.829,-169.5798 1220.8847,-176.5796"/>
</g>
<!-- bold_reference_wfgen_ref&#45;&gt;bold_reference_wfoutputnode -->
<g id="edge8" class="edge">
<title>bold_reference_wfgen_ref:e&#45;&gt;bold_reference_wfoutputnode:w</title>
<path fill="none" stroke="#000000" d="M550.8565,-385C566.5425,-385 547.6599,-255.9196 557.8565,-244 655.0231,-130.4151 1060.1604,-105.0704 1220.6454,-104.0338"/>
<polygon fill="#000000" stroke="#000000" points="1220.8682,-107.5332 1230.8565,-104 1220.845,-100.5332 1220.8682,-107.5332"/>
</g>
<!-- bold_reference_wfcalc_dummy_scans&#45;&gt;bold_reference_wfoutputnode -->
<g id="edge1" class="edge">
<title>bold_reference_wfcalc_dummy_scans:e&#45;&gt;bold_reference_wfoutputnode:w</title>
<path fill="none" stroke="#000000" d="M484.8565,-273.5C499.3692,-273.5 487.7839,-253.3815 498.8565,-244 625.4046,-136.7798 1044.8617,-38.896 1220.6458,-35.1134"/>
<polygon fill="#000000" stroke="#000000" points="1220.8961,-38.6109 1230.8565,-35 1220.8183,-31.6113 1220.8961,-38.6109"/>
</g>
<!-- bold_reference_wfenhance_and_skullstrip_bold_wf&#45;&gt;bold_reference_wfoutputnode -->
<g id="edge2" class="edge">
<title>bold_reference_wfenhance_and_skullstrip_bold_wf:e&#45;&gt;bold_reference_wfoutputnode:w</title>
<path fill="none" stroke="#000000" d="M1230.8565,-302.5C1230.8565,-302.5 1230.8565,-134.4248 1230.8565,-91.093"/>
<polygon fill="#000000" stroke="#000000" points="1234.3566,-91 1230.8565,-81 1227.3566,-91 1234.3566,-91"/>
</g>
<!-- bold_reference_wfenhance_and_skullstrip_bold_wf&#45;&gt;bold_reference_wfoutputnode -->
<g id="edge3" class="edge">
<title>bold_reference_wfenhance_and_skullstrip_bold_wf:e&#45;&gt;bold_reference_wfoutputnode:w</title>
<path fill="none" stroke="#000000" d="M1230.8565,-278.5C1230.8565,-278.5 1230.8565,-171.6414 1230.8565,-137.4132"/>
<polygon fill="#000000" stroke="#000000" points="1234.3566,-137 1230.8565,-127 1227.3566,-137 1234.3566,-137"/>
</g>
<!-- bold_reference_wfenhance_and_skullstrip_bold_wf&#45;&gt;bold_reference_wfoutputnode -->
<g id="edge4" class="edge">
<title>bold_reference_wfenhance_and_skullstrip_bold_wf:e&#45;&gt;bold_reference_wfoutputnode:w</title>
<path fill="none" stroke="#000000" d="M1230.8565,-255.5C1230.8565,-255.5 1230.8565,-108.3122 1230.8565,-68.0656"/>
<polygon fill="#000000" stroke="#000000" points="1234.3566,-68 1230.8565,-58 1227.3566,-68 1234.3566,-68"/>
</g>
</g>
</svg>
