<?xml version="1.0" encoding="UTF-8" standalone="no"?>
<!DOCTYPE svg PUBLIC "-//W3C//DTD SVG 1.1//EN"
 "http://www.w3.org/Graphics/SVG/1.1/DTD/svg11.dtd">
<!-- Generated by graphviz version 2.40.1 (20161225.0304)
 -->
<!-- Title: %3 Pages: 1 -->
<svg width="682pt" height="1268pt"
 viewBox="0.00 0.00 681.52 1268.00" xmlns="http://www.w3.org/2000/svg" xmlns:xlink="http://www.w3.org/1999/xlink">
<g id="graph0" class="graph" transform="scale(1 1) rotate(0) translate(4 1264)">
<title>%3</title>
<polygon fill="#ffffff" stroke="transparent" points="-4,4 -4,-1264 677.5199,-1264 677.5199,4 -4,4"/>
<!-- inputnode (utility) -->
<g id="node1" class="node">
<title>inputnode (utility)</title>
<ellipse fill="none" stroke="#000000" cx="338.1289" cy="-1242" rx="94.7833" ry="18"/>
<text text-anchor="middle" x="338.1289" y="-1238.3" font-family="Times,serif" font-size="14.00" fill="#000000">inputnode (utility)</text>
</g>
<!-- init_aff (ants) -->
<g id="node2" class="node">
<title>init_aff (ants)</title>
<ellipse fill="none" stroke="#000000" cx="477.1289" cy="-1170" rx="73.387" ry="18"/>
<text text-anchor="middle" x="477.1289" y="-1166.3" font-family="Times,serif" font-size="14.00" fill="#000000">init_aff (ants)</text>
</g>
<!-- inputnode (utility)&#45;&gt;init_aff (ants) -->
<g id="edge1" class="edge">
<title>inputnode (utility)&#45;&gt;init_aff (ants)</title>
<path fill="none" stroke="#000000" d="M371.07,-1224.937C390.6511,-1214.7942 415.6449,-1201.8478 436.4507,-1191.0707"/>
<polygon fill="#000000" stroke="#000000" points="438.1114,-1194.1522 445.3811,-1186.4449 434.8918,-1187.9366 438.1114,-1194.1522"/>
</g>
<!-- map_brainmask (fixes) -->
<g id="node3" class="node">
<title>map_brainmask (fixes)</title>
<ellipse fill="none" stroke="#000000" cx="488.1289" cy="-1026" rx="116.1796" ry="18"/>
<text text-anchor="middle" x="488.1289" y="-1022.3" font-family="Times,serif" font-size="14.00" fill="#000000">map_brainmask (fixes)</text>
</g>
<!-- inputnode (utility)&#45;&gt;map_brainmask (fixes) -->
<g id="edge2" class="edge">
<title>inputnode (utility)&#45;&gt;map_brainmask (fixes)</title>
<path fill="none" stroke="#000000" d="M419.3929,-1232.6648C475.0097,-1224.4093 541.7207,-1210.1739 559.1289,-1188 569.5434,-1174.7344 564.7014,-1102.2093 553.1289,-1080 546.9772,-1068.1939 537.0197,-1057.9727 526.7275,-1049.6962"/>
<polygon fill="#000000" stroke="#000000" points="528.5631,-1046.6973 518.4678,-1043.4823 524.3548,-1052.2911 528.5631,-1046.6973"/>
</g>
<!-- norm (fixes) -->
<g id="node4" class="node">
<title>norm (fixes)</title>
<ellipse fill="none" stroke="#000000" cx="477.1289" cy="-1098" rx="66.8882" ry="18"/>
<text text-anchor="middle" x="477.1289" y="-1094.3" font-family="Times,serif" font-size="14.00" fill="#000000">norm (fixes)</text>
</g>
<!-- inputnode (utility)&#45;&gt;norm (fixes) -->
<g id="edge3" class="edge">
<title>inputnode (utility)&#45;&gt;norm (fixes)</title>
<path fill="none" stroke="#000000" d="M346.6867,-1223.8674C356.4581,-1204.4882 373.8725,-1173.6378 395.1289,-1152 407.4944,-1139.4126 423.2671,-1128.1756 437.6698,-1119.2549"/>
<polygon fill="#000000" stroke="#000000" points="439.642,-1122.1534 446.4178,-1114.0085 436.0417,-1116.1502 439.642,-1122.1534"/>
</g>
<!-- check_hdr (images) -->
<g id="node5" class="node">
<title>check_hdr (images)</title>
<ellipse fill="none" stroke="#000000" cx="460.1289" cy="-810" rx="102.8821" ry="18"/>
<text text-anchor="middle" x="460.1289" y="-806.3" font-family="Times,serif" font-size="14.00" fill="#000000">check_hdr (images)</text>
</g>
<!-- inputnode (utility)&#45;&gt;check_hdr (images) -->
<g id="edge4" class="edge">
<title>inputnode (utility)&#45;&gt;check_hdr (images)</title>
<path fill="none" stroke="#000000" d="M338.1289,-1223.8146C338.1289,-1196.4983 338.1289,-1143.25 338.1289,-1098 338.1289,-1098 338.1289,-1098 338.1289,-954 338.1289,-912.4855 337.4504,-896.6201 363.1289,-864 374.191,-849.9475 389.9774,-838.9876 405.6101,-830.7246"/>
<polygon fill="#000000" stroke="#000000" points="407.3686,-833.7589 414.7598,-826.1681 404.2481,-827.4929 407.3686,-833.7589"/>
</g>
<!-- n4_correct (fixes) -->
<g id="node6" class="node">
<title>n4_correct (fixes)</title>
<ellipse fill="none" stroke="#000000" cx="460.1289" cy="-738" rx="92.8835" ry="18"/>
<text text-anchor="middle" x="460.1289" y="-734.3" font-family="Times,serif" font-size="14.00" fill="#000000">n4_correct (fixes)</text>
</g>
<!-- inputnode (utility)&#45;&gt;n4_correct (fixes) -->
<g id="edge5" class="edge">
<title>inputnode (utility)&#45;&gt;n4_correct (fixes)</title>
<path fill="none" stroke="#000000" d="M330.0701,-1223.7668C318.9155,-1196.8248 300.1289,-1144.5405 300.1289,-1098 300.1289,-1098 300.1289,-1098 300.1289,-882 300.1289,-836.6667 315.4278,-823.3966 348.1289,-792 363.5178,-777.225 383.7167,-765.8099 402.7183,-757.3626"/>
<polygon fill="#000000" stroke="#000000" points="404.0881,-760.5834 411.9239,-753.4524 401.3514,-754.1406 404.0881,-760.5834"/>
</g>
<!-- fixhdr_unifize (utils) -->
<g id="node7" class="node">
<title>fixhdr_unifize (utils)</title>
<ellipse fill="none" stroke="#000000" cx="182.1289" cy="-378" rx="104.7816" ry="18"/>
<text text-anchor="middle" x="182.1289" y="-374.3" font-family="Times,serif" font-size="14.00" fill="#000000">fixhdr_unifize (utils)</text>
</g>
<!-- inputnode (utility)&#45;&gt;fixhdr_unifize (utils) -->
<g id="edge6" class="edge">
<title>inputnode (utility)&#45;&gt;fixhdr_unifize (utils)</title>
<path fill="none" stroke="#000000" d="M299.2521,-1225.535C281.7641,-1216.5451 261.986,-1203.9613 248.1289,-1188 219.6642,-1155.2129 210.1289,-1141.4193 210.1289,-1098 210.1289,-1098 210.1289,-1098 210.1289,-522 210.1289,-481.1713 199.1486,-435.0082 190.9402,-406.2028"/>
<polygon fill="#000000" stroke="#000000" points="194.2427,-405.0265 188.067,-396.4177 187.5262,-406.9987 194.2427,-405.0265"/>
</g>
<!-- fixhdr_skullstrip2 (utils) -->
<g id="node8" class="node">
<title>fixhdr_skullstrip2 (utils)</title>
<ellipse fill="none" stroke="#000000" cx="336.1289" cy="-234" rx="124.2781" ry="18"/>
<text text-anchor="middle" x="336.1289" y="-230.3" font-family="Times,serif" font-size="14.00" fill="#000000">fixhdr_skullstrip2 (utils)</text>
</g>
<!-- inputnode (utility)&#45;&gt;fixhdr_skullstrip2 (utils) -->
<g id="edge7" class="edge">
<title>inputnode (utility)&#45;&gt;fixhdr_skullstrip2 (utils)</title>
<path fill="none" stroke="#000000" d="M321.262,-1224.0553C298.8718,-1198.2804 262.1289,-1148.3175 262.1289,-1098 262.1289,-1098 262.1289,-1098 262.1289,-594 262.1289,-585.5673 312.6173,-345.4459 330.1873,-262.1391"/>
<polygon fill="#000000" stroke="#000000" points="333.6147,-262.8482 332.2545,-252.341 326.7655,-261.4031 333.6147,-262.8482"/>
</g>
<!-- init_aff (ants)&#45;&gt;norm (fixes) -->
<g id="edge8" class="edge">
<title>init_aff (ants)&#45;&gt;norm (fixes)</title>
<path fill="none" stroke="#000000" d="M477.1289,-1151.8314C477.1289,-1144.131 477.1289,-1134.9743 477.1289,-1126.4166"/>
<polygon fill="#000000" stroke="#000000" points="480.629,-1126.4132 477.1289,-1116.4133 473.629,-1126.4133 480.629,-1126.4132"/>
</g>
<!-- binarize_mask (nibabel) -->
<g id="node9" class="node">
<title>binarize_mask (nibabel)</title>
<ellipse fill="none" stroke="#000000" cx="488.1289" cy="-954" rx="122.3786" ry="18"/>
<text text-anchor="middle" x="488.1289" y="-950.3" font-family="Times,serif" font-size="14.00" fill="#000000">binarize_mask (nibabel)</text>
</g>
<!-- map_brainmask (fixes)&#45;&gt;binarize_mask (nibabel) -->
<g id="edge9" class="edge">
<title>map_brainmask (fixes)&#45;&gt;binarize_mask (nibabel)</title>
<path fill="none" stroke="#000000" d="M488.1289,-1007.8314C488.1289,-1000.131 488.1289,-990.9743 488.1289,-982.4166"/>
<polygon fill="#000000" stroke="#000000" points="491.629,-982.4132 488.1289,-972.4133 484.629,-982.4133 491.629,-982.4132"/>
</g>
<!-- norm (fixes)&#45;&gt;map_brainmask (fixes) -->
<g id="edge10" class="edge">
<title>norm (fixes)&#45;&gt;map_brainmask (fixes)</title>
<path fill="none" stroke="#000000" d="M479.9047,-1079.8314C481.0811,-1072.131 482.48,-1062.9743 483.7875,-1054.4166"/>
<polygon fill="#000000" stroke="#000000" points="487.2653,-1054.8272 485.3158,-1044.4133 480.3456,-1053.7699 487.2653,-1054.8272"/>
</g>
<!-- check_hdr (images)&#45;&gt;n4_correct (fixes) -->
<g id="edge11" class="edge">
<title>check_hdr (images)&#45;&gt;n4_correct (fixes)</title>
<path fill="none" stroke="#000000" d="M460.1289,-791.8314C460.1289,-784.131 460.1289,-774.9743 460.1289,-766.4166"/>
<polygon fill="#000000" stroke="#000000" points="463.629,-766.4132 460.1289,-756.4133 456.629,-766.4133 463.629,-766.4132"/>
</g>
<!-- skullstrip_first_pass (fsl) -->
<g id="node11" class="node">
<title>skullstrip_first_pass (fsl)</title>
<ellipse fill="none" stroke="#000000" cx="460.1289" cy="-666" rx="126.1777" ry="18"/>
<text text-anchor="middle" x="460.1289" y="-662.3" font-family="Times,serif" font-size="14.00" fill="#000000">skullstrip_first_pass (fsl)</text>
</g>
<!-- n4_correct (fixes)&#45;&gt;skullstrip_first_pass (fsl) -->
<g id="edge12" class="edge">
<title>n4_correct (fixes)&#45;&gt;skullstrip_first_pass (fsl)</title>
<path fill="none" stroke="#000000" d="M460.1289,-719.8314C460.1289,-712.131 460.1289,-702.9743 460.1289,-694.4166"/>
<polygon fill="#000000" stroke="#000000" points="463.629,-694.4132 460.1289,-684.4133 456.629,-694.4133 463.629,-694.4132"/>
</g>
<!-- outputnode (utility) -->
<g id="node12" class="node">
<title>outputnode (utility)</title>
<ellipse fill="none" stroke="#000000" cx="572.1289" cy="-18" rx="101.2821" ry="18"/>
<text text-anchor="middle" x="572.1289" y="-14.3" font-family="Times,serif" font-size="14.00" fill="#000000">outputnode (utility)</text>
</g>
<!-- n4_correct (fixes)&#45;&gt;outputnode (utility) -->
<g id="edge13" class="edge">
<title>n4_correct (fixes)&#45;&gt;outputnode (utility)</title>
<path fill="none" stroke="#000000" d="M515.5462,-723.5405C574.1216,-704.5159 658.1289,-664.8764 658.1289,-594 658.1289,-594 658.1289,-594 658.1289,-162 658.1289,-115.0898 624.0726,-70.1952 598.8225,-43.356"/>
<polygon fill="#000000" stroke="#000000" points="601.1172,-40.6947 591.6436,-35.9511 596.0914,-45.5672 601.1172,-40.6947"/>
</g>
<!-- skullstrip_second_pass (afni) -->
<g id="node13" class="node">
<title>skullstrip_second_pass (afni)</title>
<ellipse fill="none" stroke="#000000" cx="162.1289" cy="-306" rx="145.6742" ry="18"/>
<text text-anchor="middle" x="162.1289" y="-302.3" font-family="Times,serif" font-size="14.00" fill="#000000">skullstrip_second_pass (afni)</text>
</g>
<!-- fixhdr_unifize (utils)&#45;&gt;skullstrip_second_pass (afni) -->
<g id="edge14" class="edge">
<title>fixhdr_unifize (utils)&#45;&gt;skullstrip_second_pass (afni)</title>
<path fill="none" stroke="#000000" d="M177.0821,-359.8314C174.9195,-352.0463 172.3436,-342.7729 169.9441,-334.1347"/>
<polygon fill="#000000" stroke="#000000" points="173.2925,-333.1117 167.2437,-324.4133 166.5479,-334.9852 173.2925,-333.1117"/>
</g>
<!-- apply_mask (fsl) -->
<g id="node14" class="node">
<title>apply_mask (fsl)</title>
<ellipse fill="none" stroke="#000000" cx="457.1289" cy="-90" rx="87.1846" ry="18"/>
<text text-anchor="middle" x="457.1289" y="-86.3" font-family="Times,serif" font-size="14.00" fill="#000000">apply_mask (fsl)</text>
</g>
<!-- fixhdr_unifize (utils)&#45;&gt;apply_mask (fsl) -->
<g id="edge15" class="edge">
<title>fixhdr_unifize (utils)&#45;&gt;apply_mask (fsl)</title>
<path fill="none" stroke="#000000" d="M101.6827,-366.3791C43.3723,-354.2047 -20.7358,-330.7033 7.1289,-288 87.446,-164.9124 263.3132,-117.8281 369.8505,-100.1917"/>
<polygon fill="#000000" stroke="#000000" points="370.6183,-103.6134 379.9386,-98.5753 369.5108,-96.7016 370.6183,-103.6134"/>
</g>
<!-- combine_masks (fsl) -->
<g id="node15" class="node">
<title>combine_masks (fsl)</title>
<ellipse fill="none" stroke="#000000" cx="491.1289" cy="-162" rx="105.8812" ry="18"/>
<text text-anchor="middle" x="491.1289" y="-158.3" font-family="Times,serif" font-size="14.00" fill="#000000">combine_masks (fsl)</text>
</g>
<!-- fixhdr_skullstrip2 (utils)&#45;&gt;combine_masks (fsl) -->
<g id="edge16" class="edge">
<title>fixhdr_skullstrip2 (utils)&#45;&gt;combine_masks (fsl)</title>
<path fill="none" stroke="#000000" d="M373.2553,-216.7542C394.9022,-206.6989 422.3794,-193.9352 445.3584,-183.2611"/>
<polygon fill="#000000" stroke="#000000" points="446.9784,-186.3679 454.5732,-178.9807 444.0294,-180.0194 446.9784,-186.3679"/>
</g>
<!-- pre_mask_dilate (fsl) -->
<g id="node10" class="node">
<title>pre_mask_dilate (fsl)</title>
<ellipse fill="none" stroke="#000000" cx="481.1289" cy="-882" rx="108.5808" ry="18"/>
<text text-anchor="middle" x="481.1289" y="-878.3" font-family="Times,serif" font-size="14.00" fill="#000000">pre_mask_dilate (fsl)</text>
</g>
<!-- binarize_mask (nibabel)&#45;&gt;pre_mask_dilate (fsl) -->
<g id="edge17" class="edge">
<title>binarize_mask (nibabel)&#45;&gt;pre_mask_dilate (fsl)</title>
<path fill="none" stroke="#000000" d="M486.3625,-935.8314C485.6139,-928.131 484.7236,-918.9743 483.8916,-910.4166"/>
<polygon fill="#000000" stroke="#000000" points="487.3704,-910.0276 482.9191,-900.4133 480.4033,-910.7051 487.3704,-910.0276"/>
</g>
<!-- pre_mask_dilate (fsl)&#45;&gt;check_hdr (images) -->
<g id="edge18" class="edge">
<title>pre_mask_dilate (fsl)&#45;&gt;check_hdr (images)</title>
<path fill="none" stroke="#000000" d="M475.8297,-863.8314C473.5591,-856.0463 470.8543,-846.7729 468.3349,-838.1347"/>
<polygon fill="#000000" stroke="#000000" points="471.6595,-837.0332 465.4994,-828.4133 464.9395,-838.9933 471.6595,-837.0332"/>
</g>
<!-- skullstrip_first_pass (fsl)&#45;&gt;combine_masks (fsl) -->
<g id="edge21" class="edge">
<title>skullstrip_first_pass (fsl)&#45;&gt;combine_masks (fsl)</title>
<path fill="none" stroke="#000000" d="M537.0032,-651.6405C560.63,-643.6478 584.7067,-631.2399 601.1289,-612 627.6699,-580.9052 620.1289,-562.8816 620.1289,-522 620.1289,-522 620.1289,-522 620.1289,-306 620.1289,-252.2431 569.6373,-209.3869 531.8319,-184.8328"/>
<polygon fill="#000000" stroke="#000000" points="533.3441,-181.649 523.0165,-179.284 529.6151,-187.5732 533.3441,-181.649"/>
</g>
<!-- skullstrip_first_dilate (fsl) -->
<g id="node16" class="node">
<title>skullstrip_first_dilate (fsl)</title>
<ellipse fill="none" stroke="#000000" cx="460.1289" cy="-594" rx="131.8766" ry="18"/>
<text text-anchor="middle" x="460.1289" y="-590.3" font-family="Times,serif" font-size="14.00" fill="#000000">skullstrip_first_dilate (fsl)</text>
</g>
<!-- skullstrip_first_pass (fsl)&#45;&gt;skullstrip_first_dilate (fsl) -->
<g id="edge19" class="edge">
<title>skullstrip_first_pass (fsl)&#45;&gt;skullstrip_first_dilate (fsl)</title>
<path fill="none" stroke="#000000" d="M460.1289,-647.8314C460.1289,-640.131 460.1289,-630.9743 460.1289,-622.4166"/>
<polygon fill="#000000" stroke="#000000" points="463.629,-622.4132 460.1289,-612.4133 456.629,-622.4133 463.629,-622.4132"/>
</g>
<!-- skullstrip_first_mask (fsl) -->
<g id="node17" class="node">
<title>skullstrip_first_mask (fsl)</title>
<ellipse fill="none" stroke="#000000" cx="420.1289" cy="-522" rx="129.9769" ry="18"/>
<text text-anchor="middle" x="420.1289" y="-518.3" font-family="Times,serif" font-size="14.00" fill="#000000">skullstrip_first_mask (fsl)</text>
</g>
<!-- skullstrip_first_pass (fsl)&#45;&gt;skullstrip_first_mask (fsl) -->
<g id="edge20" class="edge">
<title>skullstrip_first_pass (fsl)&#45;&gt;skullstrip_first_mask (fsl)</title>
<path fill="none" stroke="#000000" d="M399.4503,-650.1827C365.8334,-640.0602 328.8964,-626.2001 319.1289,-612 310.0613,-598.8175 310.904,-589.7241 319.1289,-576 327.7204,-561.6642 341.5584,-550.9209 356.2716,-542.9564"/>
<polygon fill="#000000" stroke="#000000" points="358.1208,-545.9453 365.5066,-538.3492 354.9958,-539.6815 358.1208,-545.9453"/>
</g>
<!-- skullstrip_second_pass (afni)&#45;&gt;fixhdr_skullstrip2 (utils) -->
<g id="edge22" class="edge">
<title>skullstrip_second_pass (afni)&#45;&gt;fixhdr_skullstrip2 (utils)</title>
<path fill="none" stroke="#000000" d="M204.2494,-288.5708C228.7935,-278.4146 259.9001,-265.5429 285.7378,-254.8515"/>
<polygon fill="#000000" stroke="#000000" points="287.0947,-258.0779 294.9967,-251.0202 284.4182,-251.6098 287.0947,-258.0779"/>
</g>
<!-- apply_mask (fsl)&#45;&gt;outputnode (utility) -->
<g id="edge23" class="edge">
<title>apply_mask (fsl)&#45;&gt;outputnode (utility)</title>
<path fill="none" stroke="#000000" d="M484.6743,-72.7542C499.9242,-63.2064 519.0743,-51.2168 535.5641,-40.8927"/>
<polygon fill="#000000" stroke="#000000" points="537.7912,-43.6278 544.4097,-35.3546 534.0765,-37.6947 537.7912,-43.6278"/>
</g>
<!-- combine_masks (fsl)&#45;&gt;outputnode (utility) -->
<g id="edge25" class="edge">
<title>combine_masks (fsl)&#45;&gt;outputnode (utility)</title>
<path fill="none" stroke="#000000" d="M518.3166,-144.5029C530.7579,-135.1305 544.5972,-122.5229 553.1289,-108 564.1508,-89.2384 568.8223,-64.952 570.7812,-46.3372"/>
<polygon fill="#000000" stroke="#000000" points="574.2902,-46.3772 571.6485,-36.117 567.3153,-45.7852 574.2902,-46.3772"/>
</g>
<!-- combine_masks (fsl)&#45;&gt;apply_mask (fsl) -->
<g id="edge24" class="edge">
<title>combine_masks (fsl)&#45;&gt;apply_mask (fsl)</title>
<path fill="none" stroke="#000000" d="M482.5493,-143.8314C478.7931,-135.8771 474.3032,-126.369 470.1491,-117.5723"/>
<polygon fill="#000000" stroke="#000000" points="473.259,-115.9612 465.8241,-108.4133 466.9293,-118.9503 473.259,-115.9612"/>
</g>
<!-- skullstrip_first_dilate (fsl)&#45;&gt;skullstrip_first_mask (fsl) -->
<g id="edge26" class="edge">
<title>skullstrip_first_dilate (fsl)&#45;&gt;skullstrip_first_mask (fsl)</title>
<path fill="none" stroke="#000000" d="M450.0352,-575.8314C445.5692,-567.7925 440.2214,-558.1666 435.291,-549.2918"/>
<polygon fill="#000000" stroke="#000000" points="438.2745,-547.4551 430.3585,-540.4133 432.1554,-550.8546 438.2745,-547.4551"/>
</g>
<!-- unifize (afni) -->
<g id="node18" class="node">
<title>unifize (afni)</title>
<ellipse fill="none" stroke="#000000" cx="390.1289" cy="-450" rx="69.5877" ry="18"/>
<text text-anchor="middle" x="390.1289" y="-446.3" font-family="Times,serif" font-size="14.00" fill="#000000">unifize (afni)</text>
</g>
<!-- skullstrip_first_mask (fsl)&#45;&gt;unifize (afni) -->
<g id="edge27" class="edge">
<title>skullstrip_first_mask (fsl)&#45;&gt;unifize (afni)</title>
<path fill="none" stroke="#000000" d="M412.5586,-503.8314C409.1934,-495.7547 405.1606,-486.0761 401.4484,-477.1668"/>
<polygon fill="#000000" stroke="#000000" points="404.6698,-475.798 397.5928,-467.9134 398.2083,-478.4904 404.6698,-475.798"/>
</g>
<!-- unifize (afni)&#45;&gt;fixhdr_unifize (utils) -->
<g id="edge28" class="edge">
<title>unifize (afni)&#45;&gt;fixhdr_unifize (utils)</title>
<path fill="none" stroke="#000000" d="M348.037,-435.4297C316.4617,-424.4998 272.9161,-409.4263 238.3598,-397.4645"/>
<polygon fill="#000000" stroke="#000000" points="239.4637,-394.143 228.8689,-394.1792 237.1739,-400.7579 239.4637,-394.143"/>
</g>
</g>
</svg>
