<?xml version="1.0" encoding="UTF-8" standalone="no"?>
<!DOCTYPE svg PUBLIC "-//W3C//DTD SVG 1.1//EN"
 "http://www.w3.org/Graphics/SVG/1.1/DTD/svg11.dtd">
<!-- Generated by graphviz version 2.40.1 (20161225.0304)
 -->
<!-- Title: %3 Pages: 1 -->
<svg width="970pt" height="1628pt"
 viewBox="0.00 0.00 969.88 1628.00" xmlns="http://www.w3.org/2000/svg" xmlns:xlink="http://www.w3.org/1999/xlink">
<g id="graph0" class="graph" transform="scale(1 1) rotate(0) translate(4 1624)">
<title>%3</title>
<polygon fill="#ffffff" stroke="transparent" points="-4,4 -4,-1624 965.8824,-1624 965.8824,4 -4,4"/>
<!-- inputnode (utility) -->
<g id="node1" class="node">
<title>inputnode (utility)</title>
<ellipse fill="none" stroke="#000000" cx="94.8916" cy="-1602" rx="94.7833" ry="18"/>
<text text-anchor="middle" x="94.8916" y="-1598.3" font-family="Times,serif" font-size="14.00" fill="#000000">inputnode (utility)</text>
</g>
<!-- copy_xform (utils) -->
<g id="node2" class="node">
<title>copy_xform (utils)</title>
<ellipse fill="none" stroke="#000000" cx="312.8916" cy="-90" rx="94.7833" ry="18"/>
<text text-anchor="middle" x="312.8916" y="-86.3" font-family="Times,serif" font-size="14.00" fill="#000000">copy_xform (utils)</text>
</g>
<!-- inputnode (utility)&#45;&gt;copy_xform (utils) -->
<g id="edge1" class="edge">
<title>inputnode (utility)&#45;&gt;copy_xform (utils)</title>
<path fill="none" stroke="#000000" d="M82.5234,-1583.8166C65.7593,-1557.3548 37.8916,-1506.1283 37.8916,-1458 37.8916,-1458 37.8916,-1458 37.8916,-234 37.8916,-150.1459 139.4802,-115.0283 219.1676,-100.3805"/>
<polygon fill="#000000" stroke="#000000" points="220.0169,-103.7851 229.2625,-98.6112 218.8083,-96.8902 220.0169,-103.7851"/>
</g>
<!-- 03_pad_mask (ants) -->
<g id="node3" class="node">
<title>03_pad_mask (ants)</title>
<ellipse fill="none" stroke="#000000" cx="207.8916" cy="-1458" rx="103.9815" ry="18"/>
<text text-anchor="middle" x="207.8916" y="-1454.3" font-family="Times,serif" font-size="14.00" fill="#000000">03_pad_mask (ants)</text>
</g>
<!-- inputnode (utility)&#45;&gt;03_pad_mask (ants) -->
<g id="edge2" class="edge">
<title>inputnode (utility)&#45;&gt;03_pad_mask (ants)</title>
<path fill="none" stroke="#000000" d="M108.9746,-1584.0535C128.683,-1558.9384 164.6182,-1513.1449 187.3225,-1484.2119"/>
<polygon fill="#000000" stroke="#000000" points="190.2111,-1486.2004 193.631,-1476.1727 184.7042,-1481.879 190.2111,-1486.2004"/>
</g>
<!-- 01_atropos (ants) -->
<g id="node4" class="node">
<title>01_atropos (ants)</title>
<ellipse fill="none" stroke="#000000" cx="356.8916" cy="-1530" rx="92.0841" ry="18"/>
<text text-anchor="middle" x="356.8916" y="-1526.3" font-family="Times,serif" font-size="14.00" fill="#000000">01_atropos (ants)</text>
</g>
<!-- inputnode (utility)&#45;&gt;01_atropos (ants) -->
<g id="edge3" class="edge">
<title>inputnode (utility)&#45;&gt;01_atropos (ants)</title>
<path fill="none" stroke="#000000" d="M148.8605,-1587.1689C190.9189,-1575.6108 249.4071,-1559.5377 293.6586,-1547.377"/>
<polygon fill="#000000" stroke="#000000" points="294.7262,-1550.7134 303.4413,-1544.6886 292.8713,-1543.9637 294.7262,-1550.7134"/>
</g>
<!-- msk_conform (utility) -->
<g id="node5" class="node">
<title>msk_conform (utility)</title>
<ellipse fill="none" stroke="#000000" cx="220.8916" cy="-162" rx="111.2805" ry="18"/>
<text text-anchor="middle" x="220.8916" y="-158.3" font-family="Times,serif" font-size="14.00" fill="#000000">msk_conform (utility)</text>
</g>
<!-- inputnode (utility)&#45;&gt;msk_conform (utility) -->
<g id="edge4" class="edge">
<title>inputnode (utility)&#45;&gt;msk_conform (utility)</title>
<path fill="none" stroke="#000000" d="M90.9548,-1583.9156C85.3896,-1556.7281 75.8916,-1503.6422 75.8916,-1458 75.8916,-1458 75.8916,-1458 75.8916,-306 75.8916,-264.9255 70.599,-247.5564 96.8916,-216 110.1958,-200.0322 129.1244,-188.6508 148.1973,-180.5931"/>
<polygon fill="#000000" stroke="#000000" points="149.5334,-183.8285 157.5479,-176.8989 146.9614,-177.3181 149.5334,-183.8285"/>
</g>
<!-- outputnode (utility) -->
<g id="node6" class="node">
<title>outputnode (utility)</title>
<ellipse fill="none" stroke="#000000" cx="312.8916" cy="-18" rx="101.2821" ry="18"/>
<text text-anchor="middle" x="312.8916" y="-14.3" font-family="Times,serif" font-size="14.00" fill="#000000">outputnode (utility)</text>
</g>
<!-- copy_xform (utils)&#45;&gt;outputnode (utility) -->
<g id="edge5" class="edge">
<title>copy_xform (utils)&#45;&gt;outputnode (utility)</title>
<path fill="none" stroke="#000000" d="M312.8916,-71.8314C312.8916,-64.131 312.8916,-54.9743 312.8916,-46.4166"/>
<polygon fill="#000000" stroke="#000000" points="316.3917,-46.4132 312.8916,-36.4133 309.3917,-46.4133 316.3917,-46.4132"/>
</g>
<!-- 20_add_7_2 (ants) -->
<g id="node7" class="node">
<title>20_add_7_2 (ants)</title>
<ellipse fill="none" stroke="#000000" cx="220.8916" cy="-450" rx="95.5831" ry="18"/>
<text text-anchor="middle" x="220.8916" y="-446.3" font-family="Times,serif" font-size="14.00" fill="#000000">20_add_7_2 (ants)</text>
</g>
<!-- 03_pad_mask (ants)&#45;&gt;20_add_7_2 (ants) -->
<g id="edge6" class="edge">
<title>03_pad_mask (ants)&#45;&gt;20_add_7_2 (ants)</title>
<path fill="none" stroke="#000000" d="M186.0898,-1439.9956C158.3213,-1414.9031 113.8916,-1366.5449 113.8916,-1314 113.8916,-1314 113.8916,-1314 113.8916,-594 113.8916,-552.3643 115.2945,-537.5933 139.8916,-504 149.3107,-491.136 162.787,-480.4199 176.0515,-472.0157"/>
<polygon fill="#000000" stroke="#000000" points="177.921,-474.9757 184.6927,-466.8274 174.3176,-468.9743 177.921,-474.9757"/>
</g>
<!-- 02_pad_segm (ants) -->
<g id="node8" class="node">
<title>02_pad_segm (ants)</title>
<ellipse fill="none" stroke="#000000" cx="440.8916" cy="-1458" rx="103.9815" ry="18"/>
<text text-anchor="middle" x="440.8916" y="-1454.3" font-family="Times,serif" font-size="14.00" fill="#000000">02_pad_segm (ants)</text>
</g>
<!-- 01_atropos (ants)&#45;&gt;02_pad_segm (ants) -->
<g id="edge7" class="edge">
<title>01_atropos (ants)&#45;&gt;02_pad_segm (ants)</title>
<path fill="none" stroke="#000000" d="M377.6556,-1512.2022C388.1558,-1503.2021 401.059,-1492.1423 412.4655,-1482.3652"/>
<polygon fill="#000000" stroke="#000000" points="414.7605,-1485.0079 420.0753,-1475.8425 410.2049,-1479.6931 414.7605,-1485.0079"/>
</g>
<!-- msk_conform (utility)&#45;&gt;copy_xform (utils) -->
<g id="edge8" class="edge">
<title>msk_conform (utility)&#45;&gt;copy_xform (utils)</title>
<path fill="none" stroke="#000000" d="M243.6332,-144.2022C255.3312,-135.0473 269.7525,-123.761 282.4016,-113.8617"/>
<polygon fill="#000000" stroke="#000000" points="284.6936,-116.5124 290.4116,-107.593 280.3794,-110.9999 284.6936,-116.5124"/>
</g>
<!-- 21_md_7_2 (ants) -->
<g id="node29" class="node">
<title>21_md_7_2 (ants)</title>
<ellipse fill="none" stroke="#000000" cx="220.8916" cy="-378" rx="92.8835" ry="18"/>
<text text-anchor="middle" x="220.8916" y="-374.3" font-family="Times,serif" font-size="14.00" fill="#000000">21_md_7_2 (ants)</text>
</g>
<!-- 20_add_7_2 (ants)&#45;&gt;21_md_7_2 (ants) -->
<g id="edge9" class="edge">
<title>20_add_7_2 (ants)&#45;&gt;21_md_7_2 (ants)</title>
<path fill="none" stroke="#000000" d="M220.8916,-431.8314C220.8916,-424.131 220.8916,-414.9743 220.8916,-406.4166"/>
<polygon fill="#000000" stroke="#000000" points="224.3917,-406.4132 220.8916,-396.4133 217.3917,-406.4133 224.3917,-406.4132"/>
</g>
<!-- 04_sel_labels (utility) -->
<g id="node9" class="node">
<title>04_sel_labels (utility)</title>
<ellipse fill="none" stroke="#000000" cx="441.8916" cy="-1386" rx="110.4804" ry="18"/>
<text text-anchor="middle" x="441.8916" y="-1382.3" font-family="Times,serif" font-size="14.00" fill="#000000">04_sel_labels (utility)</text>
</g>
<!-- 02_pad_segm (ants)&#45;&gt;04_sel_labels (utility) -->
<g id="edge10" class="edge">
<title>02_pad_segm (ants)&#45;&gt;04_sel_labels (utility)</title>
<path fill="none" stroke="#000000" d="M441.1439,-1439.8314C441.2509,-1432.131 441.378,-1422.9743 441.4969,-1414.4166"/>
<polygon fill="#000000" stroke="#000000" points="444.9965,-1414.4609 441.6358,-1404.4133 437.9972,-1414.3637 444.9965,-1414.4609"/>
</g>
<!-- 05_get_wm (ants) -->
<g id="node10" class="node">
<title>05_get_wm (ants)</title>
<ellipse fill="none" stroke="#000000" cx="320.8916" cy="-1170" rx="93.6835" ry="18"/>
<text text-anchor="middle" x="320.8916" y="-1166.3" font-family="Times,serif" font-size="14.00" fill="#000000">05_get_wm (ants)</text>
</g>
<!-- 04_sel_labels (utility)&#45;&gt;05_get_wm (ants) -->
<g id="edge11" class="edge">
<title>04_sel_labels (utility)&#45;&gt;05_get_wm (ants)</title>
<path fill="none" stroke="#000000" d="M392.139,-1369.829C373.8406,-1361.4008 354.72,-1349.1709 342.8916,-1332 315.3589,-1292.0318 314.7916,-1233.1802 317.4505,-1198.5033"/>
<polygon fill="#000000" stroke="#000000" points="320.9721,-1198.4257 318.3971,-1188.1486 314.0012,-1197.7884 320.9721,-1198.4257"/>
</g>
<!-- 06_get_gm (ants) -->
<g id="node11" class="node">
<title>06_get_gm (ants)</title>
<ellipse fill="none" stroke="#000000" cx="640.8916" cy="-1314" rx="91.784" ry="18"/>
<text text-anchor="middle" x="640.8916" y="-1310.3" font-family="Times,serif" font-size="14.00" fill="#000000">06_get_gm (ants)</text>
</g>
<!-- 04_sel_labels (utility)&#45;&gt;06_get_gm (ants) -->
<g id="edge12" class="edge">
<title>04_sel_labels (utility)&#45;&gt;06_get_gm (ants)</title>
<path fill="none" stroke="#000000" d="M487.5462,-1369.4817C517.3918,-1358.6834 556.4867,-1344.5384 587.7319,-1333.2337"/>
<polygon fill="#000000" stroke="#000000" points="588.945,-1336.5168 597.1577,-1329.8233 586.5634,-1329.9344 588.945,-1336.5168"/>
</g>
<!-- 10_me_csf (ants) -->
<g id="node12" class="node">
<title>10_me_csf (ants)</title>
<ellipse fill="none" stroke="#000000" cx="441.8916" cy="-1314" rx="89.8845" ry="18"/>
<text text-anchor="middle" x="441.8916" y="-1310.3" font-family="Times,serif" font-size="14.00" fill="#000000">10_me_csf (ants)</text>
</g>
<!-- 04_sel_labels (utility)&#45;&gt;10_me_csf (ants) -->
<g id="edge13" class="edge">
<title>04_sel_labels (utility)&#45;&gt;10_me_csf (ants)</title>
<path fill="none" stroke="#000000" d="M441.8916,-1367.8314C441.8916,-1360.131 441.8916,-1350.9743 441.8916,-1342.4166"/>
<polygon fill="#000000" stroke="#000000" points="445.3917,-1342.4132 441.8916,-1332.4133 438.3917,-1342.4133 445.3917,-1342.4132"/>
</g>
<!-- 27_depad_csf (ants) -->
<g id="node13" class="node">
<title>27_depad_csf (ants)</title>
<ellipse fill="none" stroke="#000000" cx="857.8916" cy="-1242" rx="103.9815" ry="18"/>
<text text-anchor="middle" x="857.8916" y="-1238.3" font-family="Times,serif" font-size="14.00" fill="#000000">27_depad_csf (ants)</text>
</g>
<!-- 04_sel_labels (utility)&#45;&gt;27_depad_csf (ants) -->
<g id="edge14" class="edge">
<title>04_sel_labels (utility)&#45;&gt;27_depad_csf (ants)</title>
<path fill="none" stroke="#000000" d="M529.4521,-1374.9585C603.993,-1364.699 704.7278,-1348.5505 741.8916,-1332 777.0927,-1316.3236 811.1714,-1287.7766 833.1777,-1267.0268"/>
<polygon fill="#000000" stroke="#000000" points="835.6559,-1269.4995 840.4403,-1260.0464 830.8051,-1264.4527 835.6559,-1269.4995"/>
</g>
<!-- 09_relabel_wm (ants) -->
<g id="node14" class="node">
<title>09_relabel_wm (ants)</title>
<ellipse fill="none" stroke="#000000" cx="320.8916" cy="-1026" rx="110.4804" ry="18"/>
<text text-anchor="middle" x="320.8916" y="-1022.3" font-family="Times,serif" font-size="14.00" fill="#000000">09_relabel_wm (ants)</text>
</g>
<!-- 05_get_wm (ants)&#45;&gt;09_relabel_wm (ants) -->
<g id="edge15" class="edge">
<title>05_get_wm (ants)&#45;&gt;09_relabel_wm (ants)</title>
<path fill="none" stroke="#000000" d="M320.8916,-1151.7623C320.8916,-1127.201 320.8916,-1083.2474 320.8916,-1054.3541"/>
<polygon fill="#000000" stroke="#000000" points="324.3917,-1054.0896 320.8916,-1044.0896 317.3917,-1054.0897 324.3917,-1054.0896"/>
</g>
<!-- 07_fill_gm (ants) -->
<g id="node15" class="node">
<title>07_fill_gm (ants)</title>
<ellipse fill="none" stroke="#000000" cx="642.8916" cy="-1242" rx="89.0842" ry="18"/>
<text text-anchor="middle" x="642.8916" y="-1238.3" font-family="Times,serif" font-size="14.00" fill="#000000">07_fill_gm (ants)</text>
</g>
<!-- 06_get_gm (ants)&#45;&gt;07_fill_gm (ants) -->
<g id="edge16" class="edge">
<title>06_get_gm (ants)&#45;&gt;07_fill_gm (ants)</title>
<path fill="none" stroke="#000000" d="M641.3963,-1295.8314C641.6102,-1288.131 641.8645,-1278.9743 642.1022,-1270.4166"/>
<polygon fill="#000000" stroke="#000000" points="645.601,-1270.5066 642.3801,-1260.4133 638.6037,-1270.3122 645.601,-1270.5066"/>
</g>
<!-- 08_mult_gm (ants) -->
<g id="node16" class="node">
<title>08_mult_gm (ants)</title>
<ellipse fill="none" stroke="#000000" cx="568.8916" cy="-1170" rx="98.2828" ry="18"/>
<text text-anchor="middle" x="568.8916" y="-1166.3" font-family="Times,serif" font-size="14.00" fill="#000000">08_mult_gm (ants)</text>
</g>
<!-- 06_get_gm (ants)&#45;&gt;08_mult_gm (ants) -->
<g id="edge17" class="edge">
<title>06_get_gm (ants)&#45;&gt;08_mult_gm (ants)</title>
<path fill="none" stroke="#000000" d="M592.4394,-1298.7145C574.2063,-1290.3382 555.3661,-1277.9098 544.8916,-1260 533.5078,-1240.5354 541.6459,-1215.5731 551.4165,-1196.8772"/>
<polygon fill="#000000" stroke="#000000" points="554.5619,-1198.4248 556.4222,-1187.9946 548.4635,-1194.9881 554.5619,-1198.4248"/>
</g>
<!-- 11_add_gm (ants) -->
<g id="node17" class="node">
<title>11_add_gm (ants)</title>
<ellipse fill="none" stroke="#000000" cx="563.8916" cy="-1098" rx="93.6835" ry="18"/>
<text text-anchor="middle" x="563.8916" y="-1094.3" font-family="Times,serif" font-size="14.00" fill="#000000">11_add_gm (ants)</text>
</g>
<!-- 10_me_csf (ants)&#45;&gt;11_add_gm (ants) -->
<g id="edge18" class="edge">
<title>10_me_csf (ants)&#45;&gt;11_add_gm (ants)</title>
<path fill="none" stroke="#000000" d="M439.0707,-1295.8364C435.1019,-1263.7408 431.4204,-1196.2194 461.8916,-1152 472.2034,-1137.0356 488.0119,-1125.8965 504.1277,-1117.7505"/>
<polygon fill="#000000" stroke="#000000" points="506.0505,-1120.7142 513.6128,-1113.2938 503.0736,-1114.3787 506.0505,-1120.7142"/>
</g>
<!-- merge_tpms (utility) -->
<g id="node32" class="node">
<title>merge_tpms (utility)</title>
<ellipse fill="none" stroke="#000000" cx="691.8916" cy="-882" rx="106.6812" ry="18"/>
<text text-anchor="middle" x="691.8916" y="-878.3" font-family="Times,serif" font-size="14.00" fill="#000000">merge_tpms (utility)</text>
</g>
<!-- 27_depad_csf (ants)&#45;&gt;merge_tpms (utility) -->
<g id="edge19" class="edge">
<title>27_depad_csf (ants)&#45;&gt;merge_tpms (utility)</title>
<path fill="none" stroke="#000000" d="M858.0988,-1223.8149C858.3917,-1196.4989 858.8916,-1143.2511 858.8916,-1098 858.8916,-1098 858.8916,-1098 858.8916,-1026 858.8916,-985.1184 866.6788,-966.8829 839.8916,-936 824.0533,-917.7401 801.5126,-905.6521 778.7845,-897.6507"/>
<polygon fill="#000000" stroke="#000000" points="779.6441,-894.2494 769.0515,-894.4657 777.467,-900.9022 779.6441,-894.2494"/>
</g>
<!-- 13_add_gm_wm (ants) -->
<g id="node18" class="node">
<title>13_add_gm_wm (ants)</title>
<ellipse fill="none" stroke="#000000" cx="256.8916" cy="-954" rx="115.0796" ry="18"/>
<text text-anchor="middle" x="256.8916" y="-950.3" font-family="Times,serif" font-size="14.00" fill="#000000">13_add_gm_wm (ants)</text>
</g>
<!-- 09_relabel_wm (ants)&#45;&gt;13_add_gm_wm (ants) -->
<g id="edge20" class="edge">
<title>09_relabel_wm (ants)&#45;&gt;13_add_gm_wm (ants)</title>
<path fill="none" stroke="#000000" d="M304.7417,-1007.8314C297.1042,-999.2392 287.8551,-988.834 279.5323,-979.4708"/>
<polygon fill="#000000" stroke="#000000" points="282.0742,-977.0622 272.8146,-971.9134 276.8423,-981.7128 282.0742,-977.0622"/>
</g>
<!-- 26_depad_wm (ants) -->
<g id="node19" class="node">
<title>26_depad_wm (ants)</title>
<ellipse fill="none" stroke="#000000" cx="496.8916" cy="-954" rx="106.6812" ry="18"/>
<text text-anchor="middle" x="496.8916" y="-950.3" font-family="Times,serif" font-size="14.00" fill="#000000">26_depad_wm (ants)</text>
</g>
<!-- 09_relabel_wm (ants)&#45;&gt;26_depad_wm (ants) -->
<g id="edge21" class="edge">
<title>09_relabel_wm (ants)&#45;&gt;26_depad_wm (ants)</title>
<path fill="none" stroke="#000000" d="M362.1558,-1009.1192C387.4023,-998.7911 419.8787,-985.5053 446.6209,-974.5653"/>
<polygon fill="#000000" stroke="#000000" points="448.2595,-977.6765 456.1898,-970.6507 445.6091,-971.1977 448.2595,-977.6765"/>
</g>
<!-- 07_fill_gm (ants)&#45;&gt;08_mult_gm (ants) -->
<g id="edge22" class="edge">
<title>07_fill_gm (ants)&#45;&gt;08_mult_gm (ants)</title>
<path fill="none" stroke="#000000" d="M624.5994,-1224.2022C615.5272,-1215.3752 604.4186,-1204.5669 594.5148,-1194.9307"/>
<polygon fill="#000000" stroke="#000000" points="596.8378,-1192.3076 587.2298,-1187.8425 591.9563,-1197.3247 596.8378,-1192.3076"/>
</g>
<!-- 08_mult_gm (ants)&#45;&gt;11_add_gm (ants) -->
<g id="edge23" class="edge">
<title>08_mult_gm (ants)&#45;&gt;11_add_gm (ants)</title>
<path fill="none" stroke="#000000" d="M567.6299,-1151.8314C567.0951,-1144.131 566.4592,-1134.9743 565.865,-1126.4166"/>
<polygon fill="#000000" stroke="#000000" points="569.3547,-1126.1467 565.1703,-1116.4133 562.3716,-1126.6317 569.3547,-1126.1467"/>
</g>
<!-- 12_relabel_gm (ants) -->
<g id="node20" class="node">
<title>12_relabel_gm (ants)</title>
<ellipse fill="none" stroke="#000000" cx="563.8916" cy="-1026" rx="108.5808" ry="18"/>
<text text-anchor="middle" x="563.8916" y="-1022.3" font-family="Times,serif" font-size="14.00" fill="#000000">12_relabel_gm (ants)</text>
</g>
<!-- 11_add_gm (ants)&#45;&gt;12_relabel_gm (ants) -->
<g id="edge24" class="edge">
<title>11_add_gm (ants)&#45;&gt;12_relabel_gm (ants)</title>
<path fill="none" stroke="#000000" d="M563.8916,-1079.8314C563.8916,-1072.131 563.8916,-1062.9743 563.8916,-1054.4166"/>
<polygon fill="#000000" stroke="#000000" points="567.3917,-1054.4132 563.8916,-1044.4133 560.3917,-1054.4133 567.3917,-1054.4132"/>
</g>
<!-- 14_sel_labels2 (utility) -->
<g id="node22" class="node">
<title>14_sel_labels2 (utility)</title>
<ellipse fill="none" stroke="#000000" cx="257.8916" cy="-882" rx="116.1796" ry="18"/>
<text text-anchor="middle" x="257.8916" y="-878.3" font-family="Times,serif" font-size="14.00" fill="#000000">14_sel_labels2 (utility)</text>
</g>
<!-- 13_add_gm_wm (ants)&#45;&gt;14_sel_labels2 (utility) -->
<g id="edge25" class="edge">
<title>13_add_gm_wm (ants)&#45;&gt;14_sel_labels2 (utility)</title>
<path fill="none" stroke="#000000" d="M257.1439,-935.8314C257.2509,-928.131 257.378,-918.9743 257.4969,-910.4166"/>
<polygon fill="#000000" stroke="#000000" points="260.9965,-910.4609 257.6358,-900.4133 253.9972,-910.3637 260.9965,-910.4609"/>
</g>
<!-- 24_depad_segm (ants) -->
<g id="node23" class="node">
<title>24_depad_segm (ants)</title>
<ellipse fill="none" stroke="#000000" cx="448.8916" cy="-810" rx="115.0796" ry="18"/>
<text text-anchor="middle" x="448.8916" y="-806.3" font-family="Times,serif" font-size="14.00" fill="#000000">24_depad_segm (ants)</text>
</g>
<!-- 13_add_gm_wm (ants)&#45;&gt;24_depad_segm (ants) -->
<g id="edge26" class="edge">
<title>13_add_gm_wm (ants)&#45;&gt;24_depad_segm (ants)</title>
<path fill="none" stroke="#000000" d="M310.8928,-938.053C334.5803,-929.3237 361.7435,-916.8053 382.8916,-900 404.6305,-882.7252 422.7129,-856.5885 434.4204,-836.9246"/>
<polygon fill="#000000" stroke="#000000" points="437.5283,-838.5412 439.4923,-828.1299 431.4645,-835.0441 437.5283,-838.5412"/>
</g>
<!-- 26_depad_wm (ants)&#45;&gt;merge_tpms (utility) -->
<g id="edge27" class="edge">
<title>26_depad_wm (ants)&#45;&gt;merge_tpms (utility)</title>
<path fill="none" stroke="#000000" d="M541.6285,-937.4817C570.2408,-926.9172 607.5282,-913.1495 637.8005,-901.9721"/>
<polygon fill="#000000" stroke="#000000" points="639.1942,-905.1885 647.3628,-898.4414 636.7695,-898.6219 639.1942,-905.1885"/>
</g>
<!-- 12_relabel_gm (ants)&#45;&gt;13_add_gm_wm (ants) -->
<g id="edge28" class="edge">
<title>12_relabel_gm (ants)&#45;&gt;13_add_gm_wm (ants)</title>
<path fill="none" stroke="#000000" d="M501.0247,-1011.256C451.6665,-999.6801 382.8295,-983.5359 330.8287,-971.3403"/>
<polygon fill="#000000" stroke="#000000" points="331.5291,-967.9097 320.994,-969.0338 329.9307,-974.7247 331.5291,-967.9097"/>
</g>
<!-- 25_depad_gm (ants) -->
<g id="node21" class="node">
<title>25_depad_gm (ants)</title>
<ellipse fill="none" stroke="#000000" cx="725.8916" cy="-954" rx="104.7816" ry="18"/>
<text text-anchor="middle" x="725.8916" y="-950.3" font-family="Times,serif" font-size="14.00" fill="#000000">25_depad_gm (ants)</text>
</g>
<!-- 12_relabel_gm (ants)&#45;&gt;25_depad_gm (ants) -->
<g id="edge29" class="edge">
<title>12_relabel_gm (ants)&#45;&gt;25_depad_gm (ants)</title>
<path fill="none" stroke="#000000" d="M601.8734,-1009.1192C624.7427,-998.9551 654.0571,-985.9264 678.4433,-975.0881"/>
<polygon fill="#000000" stroke="#000000" points="680.1508,-978.1594 687.8674,-970.8996 677.3078,-971.7627 680.1508,-978.1594"/>
</g>
<!-- 25_depad_gm (ants)&#45;&gt;merge_tpms (utility) -->
<g id="edge30" class="edge">
<title>25_depad_gm (ants)&#45;&gt;merge_tpms (utility)</title>
<path fill="none" stroke="#000000" d="M717.3119,-935.8314C713.5558,-927.8771 709.0658,-918.369 704.9118,-909.5723"/>
<polygon fill="#000000" stroke="#000000" points="708.0217,-907.9612 700.5867,-900.4133 701.692,-910.9503 708.0217,-907.9612"/>
</g>
<!-- 15_add_7 (ants) -->
<g id="node24" class="node">
<title>15_add_7 (ants)</title>
<ellipse fill="none" stroke="#000000" cx="230.8916" cy="-810" rx="85.2851" ry="18"/>
<text text-anchor="middle" x="230.8916" y="-806.3" font-family="Times,serif" font-size="14.00" fill="#000000">15_add_7 (ants)</text>
</g>
<!-- 14_sel_labels2 (utility)&#45;&gt;15_add_7 (ants) -->
<g id="edge31" class="edge">
<title>14_sel_labels2 (utility)&#45;&gt;15_add_7 (ants)</title>
<path fill="none" stroke="#000000" d="M251.0783,-863.8314C248.1272,-855.9617 244.6058,-846.5712 241.3366,-837.8533"/>
<polygon fill="#000000" stroke="#000000" points="244.585,-836.5476 237.7966,-828.4133 238.0307,-839.0055 244.585,-836.5476"/>
</g>
<!-- 24_depad_segm (ants)&#45;&gt;copy_xform (utils) -->
<g id="edge32" class="edge">
<title>24_depad_segm (ants)&#45;&gt;copy_xform (utils)</title>
<path fill="none" stroke="#000000" d="M439.7724,-791.8786C427.1501,-765.076 405.8916,-712.9635 405.8916,-666 405.8916,-666 405.8916,-666 405.8916,-234 405.8916,-185.8508 368.7465,-141.0461 341.4069,-114.5898"/>
<polygon fill="#000000" stroke="#000000" points="343.6796,-111.9226 333.9947,-107.6268 338.8868,-117.0246 343.6796,-111.9226"/>
</g>
<!-- 16_me_7 (ants) -->
<g id="node25" class="node">
<title>16_me_7 (ants)</title>
<ellipse fill="none" stroke="#000000" cx="232.8916" cy="-738" rx="81.7856" ry="18"/>
<text text-anchor="middle" x="232.8916" y="-734.3" font-family="Times,serif" font-size="14.00" fill="#000000">16_me_7 (ants)</text>
</g>
<!-- 15_add_7 (ants)&#45;&gt;16_me_7 (ants) -->
<g id="edge33" class="edge">
<title>15_add_7 (ants)&#45;&gt;16_me_7 (ants)</title>
<path fill="none" stroke="#000000" d="M231.3963,-791.8314C231.6102,-784.131 231.8645,-774.9743 232.1022,-766.4166"/>
<polygon fill="#000000" stroke="#000000" points="235.601,-766.5066 232.3801,-756.4133 228.6037,-766.3122 235.601,-766.5066"/>
</g>
<!-- 17_comp_7 (ants) -->
<g id="node26" class="node">
<title>17_comp_7 (ants)</title>
<ellipse fill="none" stroke="#000000" cx="234.8916" cy="-666" rx="92.8835" ry="18"/>
<text text-anchor="middle" x="234.8916" y="-662.3" font-family="Times,serif" font-size="14.00" fill="#000000">17_comp_7 (ants)</text>
</g>
<!-- 16_me_7 (ants)&#45;&gt;17_comp_7 (ants) -->
<g id="edge34" class="edge">
<title>16_me_7 (ants)&#45;&gt;17_comp_7 (ants)</title>
<path fill="none" stroke="#000000" d="M233.3963,-719.8314C233.6102,-712.131 233.8645,-702.9743 234.1022,-694.4166"/>
<polygon fill="#000000" stroke="#000000" points="237.601,-694.5066 234.3801,-684.4133 230.6037,-694.3122 237.601,-694.5066"/>
</g>
<!-- 18_md_7 (ants) -->
<g id="node27" class="node">
<title>18_md_7 (ants)</title>
<ellipse fill="none" stroke="#000000" cx="229.8916" cy="-594" rx="82.5854" ry="18"/>
<text text-anchor="middle" x="229.8916" y="-590.3" font-family="Times,serif" font-size="14.00" fill="#000000">18_md_7 (ants)</text>
</g>
<!-- 17_comp_7 (ants)&#45;&gt;18_md_7 (ants) -->
<g id="edge35" class="edge">
<title>17_comp_7 (ants)&#45;&gt;18_md_7 (ants)</title>
<path fill="none" stroke="#000000" d="M233.6299,-647.8314C233.0951,-640.131 232.4592,-630.9743 231.865,-622.4166"/>
<polygon fill="#000000" stroke="#000000" points="235.3547,-622.1467 231.1703,-612.4133 228.3716,-622.6317 235.3547,-622.1467"/>
</g>
<!-- 19_fill_7 (ants) -->
<g id="node28" class="node">
<title>19_fill_7 (ants)</title>
<ellipse fill="none" stroke="#000000" cx="228.8916" cy="-522" rx="79.8859" ry="18"/>
<text text-anchor="middle" x="228.8916" y="-518.3" font-family="Times,serif" font-size="14.00" fill="#000000">19_fill_7 (ants)</text>
</g>
<!-- 18_md_7 (ants)&#45;&gt;19_fill_7 (ants) -->
<g id="edge36" class="edge">
<title>18_md_7 (ants)&#45;&gt;19_fill_7 (ants)</title>
<path fill="none" stroke="#000000" d="M229.6392,-575.8314C229.5323,-568.131 229.4051,-558.9743 229.2863,-550.4166"/>
<polygon fill="#000000" stroke="#000000" points="232.786,-550.3637 229.1473,-540.4133 225.7866,-550.4609 232.786,-550.3637"/>
</g>
<!-- 19_fill_7 (ants)&#45;&gt;20_add_7_2 (ants) -->
<g id="edge37" class="edge">
<title>19_fill_7 (ants)&#45;&gt;20_add_7_2 (ants)</title>
<path fill="none" stroke="#000000" d="M226.8728,-503.8314C226.0172,-496.131 224.9998,-486.9743 224.049,-478.4166"/>
<polygon fill="#000000" stroke="#000000" points="227.5205,-477.9656 222.9375,-468.4133 220.5633,-478.7386 227.5205,-477.9656"/>
</g>
<!-- 22_me_7_2 (ants) -->
<g id="node30" class="node">
<title>22_me_7_2 (ants)</title>
<ellipse fill="none" stroke="#000000" cx="220.8916" cy="-306" rx="92.8835" ry="18"/>
<text text-anchor="middle" x="220.8916" y="-302.3" font-family="Times,serif" font-size="14.00" fill="#000000">22_me_7_2 (ants)</text>
</g>
<!-- 21_md_7_2 (ants)&#45;&gt;22_me_7_2 (ants) -->
<g id="edge38" class="edge">
<title>21_md_7_2 (ants)&#45;&gt;22_me_7_2 (ants)</title>
<path fill="none" stroke="#000000" d="M220.8916,-359.8314C220.8916,-352.131 220.8916,-342.9743 220.8916,-334.4166"/>
<polygon fill="#000000" stroke="#000000" points="224.3917,-334.4132 220.8916,-324.4133 217.3917,-334.4133 224.3917,-334.4132"/>
</g>
<!-- 23_depad_mask (ants) -->
<g id="node31" class="node">
<title>23_depad_mask (ants)</title>
<ellipse fill="none" stroke="#000000" cx="220.8916" cy="-234" rx="115.0796" ry="18"/>
<text text-anchor="middle" x="220.8916" y="-230.3" font-family="Times,serif" font-size="14.00" fill="#000000">23_depad_mask (ants)</text>
</g>
<!-- 22_me_7_2 (ants)&#45;&gt;23_depad_mask (ants) -->
<g id="edge39" class="edge">
<title>22_me_7_2 (ants)&#45;&gt;23_depad_mask (ants)</title>
<path fill="none" stroke="#000000" d="M220.8916,-287.8314C220.8916,-280.131 220.8916,-270.9743 220.8916,-262.4166"/>
<polygon fill="#000000" stroke="#000000" points="224.3917,-262.4132 220.8916,-252.4133 217.3917,-262.4133 224.3917,-262.4132"/>
</g>
<!-- 23_depad_mask (ants)&#45;&gt;msk_conform (utility) -->
<g id="edge40" class="edge">
<title>23_depad_mask (ants)&#45;&gt;msk_conform (utility)</title>
<path fill="none" stroke="#000000" d="M220.8916,-215.8314C220.8916,-208.131 220.8916,-198.9743 220.8916,-190.4166"/>
<polygon fill="#000000" stroke="#000000" points="224.3917,-190.4132 220.8916,-180.4133 217.3917,-190.4133 224.3917,-190.4132"/>
</g>
<!-- merge_tpms (utility)&#45;&gt;copy_xform (utils) -->
<g id="edge41" class="edge">
<title>merge_tpms (utility)&#45;&gt;copy_xform (utils)</title>
<path fill="none" stroke="#000000" d="M684.8931,-863.6679C675.2063,-836.6028 658.8916,-784.1665 658.8916,-738 658.8916,-738 658.8916,-738 658.8916,-234 658.8916,-175.7552 489.6578,-128.5469 387.9035,-105.4264"/>
<polygon fill="#000000" stroke="#000000" points="388.4953,-101.9722 377.9715,-103.1972 386.9623,-108.8023 388.4953,-101.9722"/>
</g>
</g>
</svg>
