<?xml version="1.0" encoding="UTF-8" standalone="no"?>
<!DOCTYPE svg PUBLIC "-//W3C//DTD SVG 1.1//EN"
 "http://www.w3.org/Graphics/SVG/1.1/DTD/svg11.dtd">
<!-- Generated by graphviz version 2.40.1 (20161225.0304)
 -->
<!-- Title: %3 Pages: 1 -->
<svg width="673pt" height="1196pt"
 viewBox="0.00 0.00 673.46 1196.00" xmlns="http://www.w3.org/2000/svg" xmlns:xlink="http://www.w3.org/1999/xlink">
<g id="graph0" class="graph" transform="scale(1 1) rotate(0) translate(4 1192)">
<title>%3</title>
<polygon fill="#ffffff" stroke="transparent" points="-4,4 -4,-1192 669.4612,-1192 669.4612,4 -4,4"/>
<!-- inputnode (utility) -->
<g id="node1" class="node">
<title>inputnode (utility)</title>
<ellipse fill="none" stroke="#000000" cx="330.0702" cy="-1170" rx="94.7833" ry="18"/>
<text text-anchor="middle" x="330.0702" y="-1166.3" font-family="Times,serif" font-size="14.00" fill="#000000">inputnode (utility)</text>
</g>
<!-- init_aff (ants) -->
<g id="node2" class="node">
<title>init_aff (ants)</title>
<ellipse fill="none" stroke="#000000" cx="469.0702" cy="-1098" rx="73.387" ry="18"/>
<text text-anchor="middle" x="469.0702" y="-1094.3" font-family="Times,serif" font-size="14.00" fill="#000000">init_aff (ants)</text>
</g>
<!-- inputnode (utility)&#45;&gt;init_aff (ants) -->
<g id="edge1" class="edge">
<title>inputnode (utility)&#45;&gt;init_aff (ants)</title>
<path fill="none" stroke="#000000" d="M363.0112,-1152.937C382.5924,-1142.7942 407.5862,-1129.8478 428.392,-1119.0707"/>
<polygon fill="#000000" stroke="#000000" points="430.0527,-1122.1522 437.3224,-1114.4449 426.8331,-1115.9366 430.0527,-1122.1522"/>
</g>
<!-- map_brainmask (fixes) -->
<g id="node3" class="node">
<title>map_brainmask (fixes)</title>
<ellipse fill="none" stroke="#000000" cx="474.0702" cy="-954" rx="116.1796" ry="18"/>
<text text-anchor="middle" x="474.0702" y="-950.3" font-family="Times,serif" font-size="14.00" fill="#000000">map_brainmask (fixes)</text>
</g>
<!-- inputnode (utility)&#45;&gt;map_brainmask (fixes) -->
<g id="edge2" class="edge">
<title>inputnode (utility)&#45;&gt;map_brainmask (fixes)</title>
<path fill="none" stroke="#000000" d="M411.3342,-1160.6648C466.951,-1152.4093 533.662,-1138.1739 551.0702,-1116 561.6648,-1102.505 557.0041,-1029.7489 545.0702,-1008 538.3619,-995.7745 527.5883,-985.4683 516.4394,-977.2439"/>
<polygon fill="#000000" stroke="#000000" points="518.1225,-974.1534 507.9017,-971.3632 514.1517,-979.9182 518.1225,-974.1534"/>
</g>
<!-- norm (fixes) -->
<g id="node4" class="node">
<title>norm (fixes)</title>
<ellipse fill="none" stroke="#000000" cx="469.0702" cy="-1026" rx="66.8882" ry="18"/>
<text text-anchor="middle" x="469.0702" y="-1022.3" font-family="Times,serif" font-size="14.00" fill="#000000">norm (fixes)</text>
</g>
<!-- inputnode (utility)&#45;&gt;norm (fixes) -->
<g id="edge3" class="edge">
<title>inputnode (utility)&#45;&gt;norm (fixes)</title>
<path fill="none" stroke="#000000" d="M338.628,-1151.8674C348.3994,-1132.4882 365.8138,-1101.6378 387.0702,-1080 399.4357,-1067.4126 415.2084,-1056.1756 429.6111,-1047.2549"/>
<polygon fill="#000000" stroke="#000000" points="431.5832,-1050.1534 438.3591,-1042.0085 427.9829,-1044.1502 431.5832,-1050.1534"/>
</g>
<!-- check_hdr (images) -->
<g id="node5" class="node">
<title>check_hdr (images)</title>
<ellipse fill="none" stroke="#000000" cx="452.0702" cy="-810" rx="102.8821" ry="18"/>
<text text-anchor="middle" x="452.0702" y="-806.3" font-family="Times,serif" font-size="14.00" fill="#000000">check_hdr (images)</text>
</g>
<!-- inputnode (utility)&#45;&gt;check_hdr (images) -->
<g id="edge4" class="edge">
<title>inputnode (utility)&#45;&gt;check_hdr (images)</title>
<path fill="none" stroke="#000000" d="M330.0702,-1151.8146C330.0702,-1124.4983 330.0702,-1071.25 330.0702,-1026 330.0702,-1026 330.0702,-1026 330.0702,-954 330.0702,-912.8223 326.8982,-896.588 352.0702,-864 363.1106,-849.707 379.0406,-838.7313 394.9522,-830.5281"/>
<polygon fill="#000000" stroke="#000000" points="396.804,-833.5203 404.2814,-826.0144 393.7553,-827.2191 396.804,-833.5203"/>
</g>
<!-- n4_correct (fixes) -->
<g id="node6" class="node">
<title>n4_correct (fixes)</title>
<ellipse fill="none" stroke="#000000" cx="452.0702" cy="-738" rx="92.8835" ry="18"/>
<text text-anchor="middle" x="452.0702" y="-734.3" font-family="Times,serif" font-size="14.00" fill="#000000">n4_correct (fixes)</text>
</g>
<!-- inputnode (utility)&#45;&gt;n4_correct (fixes) -->
<g id="edge5" class="edge">
<title>inputnode (utility)&#45;&gt;n4_correct (fixes)</title>
<path fill="none" stroke="#000000" d="M322.0114,-1151.7668C310.8568,-1124.8248 292.0702,-1072.5405 292.0702,-1026 292.0702,-1026 292.0702,-1026 292.0702,-882 292.0702,-836.6667 307.3691,-823.3966 340.0702,-792 355.4591,-777.225 375.658,-765.8099 394.6596,-757.3626"/>
<polygon fill="#000000" stroke="#000000" points="396.0294,-760.5834 403.8652,-753.4524 393.2927,-754.1406 396.0294,-760.5834"/>
</g>
<!-- fixhdr_unifize (utils) -->
<g id="node7" class="node">
<title>fixhdr_unifize (utils)</title>
<ellipse fill="none" stroke="#000000" cx="182.0702" cy="-378" rx="104.7816" ry="18"/>
<text text-anchor="middle" x="182.0702" y="-374.3" font-family="Times,serif" font-size="14.00" fill="#000000">fixhdr_unifize (utils)</text>
</g>
<!-- inputnode (utility)&#45;&gt;fixhdr_unifize (utils) -->
<g id="edge6" class="edge">
<title>inputnode (utility)&#45;&gt;fixhdr_unifize (utils)</title>
<path fill="none" stroke="#000000" d="M290.5332,-1153.4792C273.1138,-1144.5427 253.5799,-1132.0187 240.0702,-1116 212.4007,-1083.1919 205.0702,-1068.9182 205.0702,-1026 205.0702,-1026 205.0702,-1026 205.0702,-522 205.0702,-481.1884 195.9502,-434.6758 189.1959,-405.8247"/>
<polygon fill="#000000" stroke="#000000" points="192.5826,-404.9385 186.8358,-396.0377 185.7777,-406.5796 192.5826,-404.9385"/>
</g>
<!-- fixhdr_skullstrip2 (utils) -->
<g id="node8" class="node">
<title>fixhdr_skullstrip2 (utils)</title>
<ellipse fill="none" stroke="#000000" cx="336.0702" cy="-234" rx="124.2781" ry="18"/>
<text text-anchor="middle" x="336.0702" y="-230.3" font-family="Times,serif" font-size="14.00" fill="#000000">fixhdr_skullstrip2 (utils)</text>
</g>
<!-- inputnode (utility)&#45;&gt;fixhdr_skullstrip2 (utils) -->
<g id="edge7" class="edge">
<title>inputnode (utility)&#45;&gt;fixhdr_skullstrip2 (utils)</title>
<path fill="none" stroke="#000000" d="M313.2033,-1152.0553C290.8131,-1126.2804 254.0702,-1076.3175 254.0702,-1026 254.0702,-1026 254.0702,-1026 254.0702,-594 254.0702,-569.1734 300.1419,-398.339 317.0702,-324 321.761,-303.401 326.6776,-280.0573 330.334,-262.3066"/>
<polygon fill="#000000" stroke="#000000" points="333.804,-262.8076 332.3821,-252.3087 326.9464,-261.4028 333.804,-262.8076"/>
</g>
<!-- init_aff (ants)&#45;&gt;norm (fixes) -->
<g id="edge8" class="edge">
<title>init_aff (ants)&#45;&gt;norm (fixes)</title>
<path fill="none" stroke="#000000" d="M469.0702,-1079.8314C469.0702,-1072.131 469.0702,-1062.9743 469.0702,-1054.4166"/>
<polygon fill="#000000" stroke="#000000" points="472.5703,-1054.4132 469.0702,-1044.4133 465.5703,-1054.4133 472.5703,-1054.4132"/>
</g>
<!-- pre_mask_dilate (fsl) -->
<g id="node9" class="node">
<title>pre_mask_dilate (fsl)</title>
<ellipse fill="none" stroke="#000000" cx="470.0702" cy="-882" rx="108.5808" ry="18"/>
<text text-anchor="middle" x="470.0702" y="-878.3" font-family="Times,serif" font-size="14.00" fill="#000000">pre_mask_dilate (fsl)</text>
</g>
<!-- map_brainmask (fixes)&#45;&gt;pre_mask_dilate (fsl) -->
<g id="edge9" class="edge">
<title>map_brainmask (fixes)&#45;&gt;pre_mask_dilate (fsl)</title>
<path fill="none" stroke="#000000" d="M473.0608,-935.8314C472.633,-928.131 472.1243,-918.9743 471.6489,-910.4166"/>
<polygon fill="#000000" stroke="#000000" points="475.1426,-910.2037 471.0931,-900.4133 468.1533,-910.592 475.1426,-910.2037"/>
</g>
<!-- norm (fixes)&#45;&gt;map_brainmask (fixes) -->
<g id="edge10" class="edge">
<title>norm (fixes)&#45;&gt;map_brainmask (fixes)</title>
<path fill="none" stroke="#000000" d="M470.3319,-1007.8314C470.8667,-1000.131 471.5025,-990.9743 472.0968,-982.4166"/>
<polygon fill="#000000" stroke="#000000" points="475.5902,-982.6317 472.7915,-972.4133 468.607,-982.1467 475.5902,-982.6317"/>
</g>
<!-- check_hdr (images)&#45;&gt;n4_correct (fixes) -->
<g id="edge11" class="edge">
<title>check_hdr (images)&#45;&gt;n4_correct (fixes)</title>
<path fill="none" stroke="#000000" d="M452.0702,-791.8314C452.0702,-784.131 452.0702,-774.9743 452.0702,-766.4166"/>
<polygon fill="#000000" stroke="#000000" points="455.5703,-766.4132 452.0702,-756.4133 448.5703,-766.4133 455.5703,-766.4132"/>
</g>
<!-- skullstrip_first_pass (fsl) -->
<g id="node10" class="node">
<title>skullstrip_first_pass (fsl)</title>
<ellipse fill="none" stroke="#000000" cx="452.0702" cy="-666" rx="126.1777" ry="18"/>
<text text-anchor="middle" x="452.0702" y="-662.3" font-family="Times,serif" font-size="14.00" fill="#000000">skullstrip_first_pass (fsl)</text>
</g>
<!-- n4_correct (fixes)&#45;&gt;skullstrip_first_pass (fsl) -->
<g id="edge12" class="edge">
<title>n4_correct (fixes)&#45;&gt;skullstrip_first_pass (fsl)</title>
<path fill="none" stroke="#000000" d="M452.0702,-719.8314C452.0702,-712.131 452.0702,-702.9743 452.0702,-694.4166"/>
<polygon fill="#000000" stroke="#000000" points="455.5703,-694.4132 452.0702,-684.4133 448.5703,-694.4133 455.5703,-694.4132"/>
</g>
<!-- outputnode (utility) -->
<g id="node11" class="node">
<title>outputnode (utility)</title>
<ellipse fill="none" stroke="#000000" cx="564.0702" cy="-18" rx="101.2821" ry="18"/>
<text text-anchor="middle" x="564.0702" y="-14.3" font-family="Times,serif" font-size="14.00" fill="#000000">outputnode (utility)</text>
</g>
<!-- n4_correct (fixes)&#45;&gt;outputnode (utility) -->
<g id="edge13" class="edge">
<title>n4_correct (fixes)&#45;&gt;outputnode (utility)</title>
<path fill="none" stroke="#000000" d="M507.4875,-723.5405C566.0629,-704.5159 650.0702,-664.8764 650.0702,-594 650.0702,-594 650.0702,-594 650.0702,-162 650.0702,-115.0898 616.0139,-70.1952 590.7638,-43.356"/>
<polygon fill="#000000" stroke="#000000" points="593.0585,-40.6947 583.5849,-35.9511 588.0327,-45.5672 593.0585,-40.6947"/>
</g>
<!-- skullstrip_second_pass (afni) -->
<g id="node12" class="node">
<title>skullstrip_second_pass (afni)</title>
<ellipse fill="none" stroke="#000000" cx="162.0702" cy="-306" rx="145.6742" ry="18"/>
<text text-anchor="middle" x="162.0702" y="-302.3" font-family="Times,serif" font-size="14.00" fill="#000000">skullstrip_second_pass (afni)</text>
</g>
<!-- fixhdr_unifize (utils)&#45;&gt;skullstrip_second_pass (afni) -->
<g id="edge14" class="edge">
<title>fixhdr_unifize (utils)&#45;&gt;skullstrip_second_pass (afni)</title>
<path fill="none" stroke="#000000" d="M177.0233,-359.8314C174.8608,-352.0463 172.2849,-342.7729 169.8854,-334.1347"/>
<polygon fill="#000000" stroke="#000000" points="173.2338,-333.1117 167.185,-324.4133 166.4892,-334.9852 173.2338,-333.1117"/>
</g>
<!-- apply_mask (fsl) -->
<g id="node13" class="node">
<title>apply_mask (fsl)</title>
<ellipse fill="none" stroke="#000000" cx="449.0702" cy="-90" rx="87.1846" ry="18"/>
<text text-anchor="middle" x="449.0702" y="-86.3" font-family="Times,serif" font-size="14.00" fill="#000000">apply_mask (fsl)</text>
</g>
<!-- fixhdr_unifize (utils)&#45;&gt;apply_mask (fsl) -->
<g id="edge15" class="edge">
<title>fixhdr_unifize (utils)&#45;&gt;apply_mask (fsl)</title>
<path fill="none" stroke="#000000" d="M101.6982,-366.4274C43.4322,-354.2818 -20.6523,-330.7957 7.0702,-288 85.789,-166.4806 258.5886,-118.8548 363.2886,-100.6958"/>
<polygon fill="#000000" stroke="#000000" points="363.9216,-104.1386 373.2029,-99.029 362.761,-97.2355 363.9216,-104.1386"/>
</g>
<!-- combine_masks (fsl) -->
<g id="node14" class="node">
<title>combine_masks (fsl)</title>
<ellipse fill="none" stroke="#000000" cx="483.0702" cy="-162" rx="105.8812" ry="18"/>
<text text-anchor="middle" x="483.0702" y="-158.3" font-family="Times,serif" font-size="14.00" fill="#000000">combine_masks (fsl)</text>
</g>
<!-- fixhdr_skullstrip2 (utils)&#45;&gt;combine_masks (fsl) -->
<g id="edge16" class="edge">
<title>fixhdr_skullstrip2 (utils)&#45;&gt;combine_masks (fsl)</title>
<path fill="none" stroke="#000000" d="M371.6548,-216.5708C391.9356,-206.6374 417.5201,-194.1062 439.056,-183.558"/>
<polygon fill="#000000" stroke="#000000" points="440.8795,-186.5622 448.3205,-179.0202 437.8003,-180.2757 440.8795,-186.5622"/>
</g>
<!-- pre_mask_dilate (fsl)&#45;&gt;check_hdr (images) -->
<g id="edge17" class="edge">
<title>pre_mask_dilate (fsl)&#45;&gt;check_hdr (images)</title>
<path fill="none" stroke="#000000" d="M465.528,-863.8314C463.5818,-856.0463 461.2634,-846.7729 459.1039,-838.1347"/>
<polygon fill="#000000" stroke="#000000" points="462.4944,-837.2658 456.6735,-828.4133 455.7034,-838.9636 462.4944,-837.2658"/>
</g>
<!-- skullstrip_first_pass (fsl)&#45;&gt;combine_masks (fsl) -->
<g id="edge20" class="edge">
<title>skullstrip_first_pass (fsl)&#45;&gt;combine_masks (fsl)</title>
<path fill="none" stroke="#000000" d="M528.9445,-651.6405C552.5713,-643.6478 576.6479,-631.2399 593.0702,-612 619.6112,-580.9052 612.0702,-562.8816 612.0702,-522 612.0702,-522 612.0702,-522 612.0702,-306 612.0702,-252.2431 561.5786,-209.3869 523.7731,-184.8328"/>
<polygon fill="#000000" stroke="#000000" points="525.2854,-181.649 514.9578,-179.284 521.5564,-187.5732 525.2854,-181.649"/>
</g>
<!-- skullstrip_first_dilate (fsl) -->
<g id="node15" class="node">
<title>skullstrip_first_dilate (fsl)</title>
<ellipse fill="none" stroke="#000000" cx="452.0702" cy="-594" rx="131.8766" ry="18"/>
<text text-anchor="middle" x="452.0702" y="-590.3" font-family="Times,serif" font-size="14.00" fill="#000000">skullstrip_first_dilate (fsl)</text>
</g>
<!-- skullstrip_first_pass (fsl)&#45;&gt;skullstrip_first_dilate (fsl) -->
<g id="edge18" class="edge">
<title>skullstrip_first_pass (fsl)&#45;&gt;skullstrip_first_dilate (fsl)</title>
<path fill="none" stroke="#000000" d="M452.0702,-647.8314C452.0702,-640.131 452.0702,-630.9743 452.0702,-622.4166"/>
<polygon fill="#000000" stroke="#000000" points="455.5703,-622.4132 452.0702,-612.4133 448.5703,-622.4133 455.5703,-622.4132"/>
</g>
<!-- skullstrip_first_mask (fsl) -->
<g id="node16" class="node">
<title>skullstrip_first_mask (fsl)</title>
<ellipse fill="none" stroke="#000000" cx="412.0702" cy="-522" rx="129.9769" ry="18"/>
<text text-anchor="middle" x="412.0702" y="-518.3" font-family="Times,serif" font-size="14.00" fill="#000000">skullstrip_first_mask (fsl)</text>
</g>
<!-- skullstrip_first_pass (fsl)&#45;&gt;skullstrip_first_mask (fsl) -->
<g id="edge19" class="edge">
<title>skullstrip_first_pass (fsl)&#45;&gt;skullstrip_first_mask (fsl)</title>
<path fill="none" stroke="#000000" d="M391.3916,-650.1827C357.7747,-640.0602 320.8377,-626.2001 311.0702,-612 302.0026,-598.8175 302.8453,-589.7241 311.0702,-576 319.6616,-561.6642 333.4997,-550.9209 348.2129,-542.9564"/>
<polygon fill="#000000" stroke="#000000" points="350.0621,-545.9453 357.4479,-538.3492 346.9371,-539.6815 350.0621,-545.9453"/>
</g>
<!-- skullstrip_second_pass (afni)&#45;&gt;fixhdr_skullstrip2 (utils) -->
<g id="edge21" class="edge">
<title>skullstrip_second_pass (afni)&#45;&gt;fixhdr_skullstrip2 (utils)</title>
<path fill="none" stroke="#000000" d="M204.1907,-288.5708C228.7348,-278.4146 259.8414,-265.5429 285.6791,-254.8515"/>
<polygon fill="#000000" stroke="#000000" points="287.036,-258.0779 294.9379,-251.0202 284.3595,-251.6098 287.036,-258.0779"/>
</g>
<!-- apply_mask (fsl)&#45;&gt;outputnode (utility) -->
<g id="edge22" class="edge">
<title>apply_mask (fsl)&#45;&gt;outputnode (utility)</title>
<path fill="none" stroke="#000000" d="M476.6156,-72.7542C491.8655,-63.2064 511.0156,-51.2168 527.5054,-40.8927"/>
<polygon fill="#000000" stroke="#000000" points="529.7325,-43.6278 536.351,-35.3546 526.0178,-37.6947 529.7325,-43.6278"/>
</g>
<!-- combine_masks (fsl)&#45;&gt;outputnode (utility) -->
<g id="edge24" class="edge">
<title>combine_masks (fsl)&#45;&gt;outputnode (utility)</title>
<path fill="none" stroke="#000000" d="M510.2579,-144.5029C522.6992,-135.1305 536.5384,-122.5229 545.0702,-108 556.092,-89.2384 560.7636,-64.952 562.7224,-46.3372"/>
<polygon fill="#000000" stroke="#000000" points="566.2315,-46.3772 563.5898,-36.117 559.2566,-45.7852 566.2315,-46.3772"/>
</g>
<!-- combine_masks (fsl)&#45;&gt;apply_mask (fsl) -->
<g id="edge23" class="edge">
<title>combine_masks (fsl)&#45;&gt;apply_mask (fsl)</title>
<path fill="none" stroke="#000000" d="M474.4906,-143.8314C470.7344,-135.8771 466.2445,-126.369 462.0904,-117.5723"/>
<polygon fill="#000000" stroke="#000000" points="465.2003,-115.9612 457.7653,-108.4133 458.8706,-118.9503 465.2003,-115.9612"/>
</g>
<!-- skullstrip_first_dilate (fsl)&#45;&gt;skullstrip_first_mask (fsl) -->
<g id="edge25" class="edge">
<title>skullstrip_first_dilate (fsl)&#45;&gt;skullstrip_first_mask (fsl)</title>
<path fill="none" stroke="#000000" d="M441.9765,-575.8314C437.5105,-567.7925 432.1627,-558.1666 427.2323,-549.2918"/>
<polygon fill="#000000" stroke="#000000" points="430.2158,-547.4551 422.2998,-540.4133 424.0967,-550.8546 430.2158,-547.4551"/>
</g>
<!-- unifize (afni) -->
<g id="node17" class="node">
<title>unifize (afni)</title>
<ellipse fill="none" stroke="#000000" cx="382.0702" cy="-450" rx="69.5877" ry="18"/>
<text text-anchor="middle" x="382.0702" y="-446.3" font-family="Times,serif" font-size="14.00" fill="#000000">unifize (afni)</text>
</g>
<!-- skullstrip_first_mask (fsl)&#45;&gt;unifize (afni) -->
<g id="edge26" class="edge">
<title>skullstrip_first_mask (fsl)&#45;&gt;unifize (afni)</title>
<path fill="none" stroke="#000000" d="M404.4999,-503.8314C401.1347,-495.7547 397.1019,-486.0761 393.3897,-477.1668"/>
<polygon fill="#000000" stroke="#000000" points="396.6111,-475.798 389.5341,-467.9134 390.1496,-478.4904 396.6111,-475.798"/>
</g>
<!-- unifize (afni)&#45;&gt;fixhdr_unifize (utils) -->
<g id="edge27" class="edge">
<title>unifize (afni)&#45;&gt;fixhdr_unifize (utils)</title>
<path fill="none" stroke="#000000" d="M341.1146,-435.256C311.0543,-424.4343 269.9039,-409.6201 236.9921,-397.7719"/>
<polygon fill="#000000" stroke="#000000" points="238.0995,-394.4507 227.5051,-394.3566 235.7284,-401.0369 238.0995,-394.4507"/>
</g>
</g>
</svg>
