<?xml version="1.0" encoding="UTF-8" standalone="no"?>
<!DOCTYPE svg PUBLIC "-//W3C//DTD SVG 1.1//EN"
 "http://www.w3.org/Graphics/SVG/1.1/DTD/svg11.dtd">
<!-- Generated by graphviz version 2.40.1 (20161225.0304)
 -->
<!-- Title: %3 Pages: 1 -->
<svg width="722pt" height="332pt"
 viewBox="0.00 0.00 721.83 332.00" xmlns="http://www.w3.org/2000/svg" xmlns:xlink="http://www.w3.org/1999/xlink">
<g id="graph0" class="graph" transform="scale(1 1) rotate(0) translate(4 328)">
<title>%3</title>
<polygon fill="#ffffff" stroke="transparent" points="-4,4 -4,-328 717.8276,-328 717.8276,4 -4,4"/>
<!-- inputnode (utility) -->
<g id="node1" class="node">
<title>inputnode (utility)</title>
<ellipse fill="none" stroke="#000000" cx="468.8356" cy="-306" rx="94.7833" ry="18"/>
<text text-anchor="middle" x="468.8356" y="-302.3" font-family="Times,serif" font-size="14.00" fill="#000000">inputnode (utility)</text>
</g>
<!-- enhance_and_skullstrip_bold_wf -->
<g id="node2" class="node">
<title>enhance_and_skullstrip_bold_wf</title>
<ellipse fill="none" stroke="#000000" cx="161.8356" cy="-90" rx="161.6714" ry="18"/>
<text text-anchor="middle" x="161.8356" y="-86.3" font-family="Times,serif" font-size="14.00" fill="#000000">enhance_and_skullstrip_bold_wf</text>
</g>
<!-- inputnode (utility)&#45;&gt;enhance_and_skullstrip_bold_wf -->
<g id="edge1" class="edge">
<title>inputnode (utility)&#45;&gt;enhance_and_skullstrip_bold_wf</title>
<path fill="none" stroke="#000000" d="M431.7884,-289.2097C385.948,-267.5123 306.6394,-226.9043 246.8356,-180 222.5681,-160.9669 198.7987,-134.9925 182.5941,-115.8392"/>
<polygon fill="#000000" stroke="#000000" points="185.2245,-113.5285 176.133,-108.0883 179.8476,-118.0106 185.2245,-113.5285"/>
</g>
<!-- validate (images) -->
<g id="node3" class="node">
<title>validate (images)</title>
<ellipse fill="none" stroke="#000000" cx="622.8356" cy="-234" rx="90.9839" ry="18"/>
<text text-anchor="middle" x="622.8356" y="-230.3" font-family="Times,serif" font-size="14.00" fill="#000000">validate (images)</text>
</g>
<!-- inputnode (utility)&#45;&gt;validate (images) -->
<g id="edge2" class="edge">
<title>inputnode (utility)&#45;&gt;validate (images)</title>
<path fill="none" stroke="#000000" d="M504.5534,-289.3008C526.4198,-279.0775 554.5922,-265.906 577.957,-254.9822"/>
<polygon fill="#000000" stroke="#000000" points="579.7351,-258.0146 587.3116,-250.6087 576.7704,-251.6734 579.7351,-258.0146"/>
</g>
<!-- gen_ref (registration) -->
<g id="node4" class="node">
<title>gen_ref (registration)</title>
<ellipse fill="none" stroke="#000000" cx="365.8356" cy="-162" rx="110.4804" ry="18"/>
<text text-anchor="middle" x="365.8356" y="-158.3" font-family="Times,serif" font-size="14.00" fill="#000000">gen_ref (registration)</text>
</g>
<!-- inputnode (utility)&#45;&gt;gen_ref (registration) -->
<g id="edge3" class="edge">
<title>inputnode (utility)&#45;&gt;gen_ref (registration)</title>
<path fill="none" stroke="#000000" d="M455.9989,-288.0535C438.1117,-263.0462 405.5604,-217.5376 384.8515,-188.5853"/>
<polygon fill="#000000" stroke="#000000" points="387.4987,-186.27 378.8342,-180.1727 381.8052,-190.3425 387.4987,-186.27"/>
</g>
<!-- calc_dummy_scans (utility) -->
<g id="node5" class="node">
<title>calc_dummy_scans (utility)</title>
<ellipse fill="none" stroke="#000000" cx="517.8356" cy="-90" rx="137.5759" ry="18"/>
<text text-anchor="middle" x="517.8356" y="-86.3" font-family="Times,serif" font-size="14.00" fill="#000000">calc_dummy_scans (utility)</text>
</g>
<!-- inputnode (utility)&#45;&gt;calc_dummy_scans (utility) -->
<g id="edge4" class="edge">
<title>inputnode (utility)&#45;&gt;calc_dummy_scans (utility)</title>
<path fill="none" stroke="#000000" d="M472.9291,-287.9555C481.468,-250.3144 501.2331,-163.1867 511.4555,-118.1246"/>
<polygon fill="#000000" stroke="#000000" points="514.9203,-118.6716 513.7194,-108.1451 508.0937,-117.1229 514.9203,-118.6716"/>
</g>
<!-- outputnode (utility) -->
<g id="node6" class="node">
<title>outputnode (utility)</title>
<ellipse fill="none" stroke="#000000" cx="434.8356" cy="-18" rx="101.2821" ry="18"/>
<text text-anchor="middle" x="434.8356" y="-14.3" font-family="Times,serif" font-size="14.00" fill="#000000">outputnode (utility)</text>
</g>
<!-- enhance_and_skullstrip_bold_wf&#45;&gt;outputnode (utility) -->
<g id="edge5" class="edge">
<title>enhance_and_skullstrip_bold_wf&#45;&gt;outputnode (utility)</title>
<path fill="none" stroke="#000000" d="M224.8101,-73.3913C267.8505,-62.04 324.7922,-47.0224 368.527,-35.488"/>
<polygon fill="#000000" stroke="#000000" points="369.4348,-38.8683 378.2116,-32.9338 367.6497,-32.0998 369.4348,-38.8683"/>
</g>
<!-- validate (images)&#45;&gt;gen_ref (registration) -->
<g id="edge6" class="edge">
<title>validate (images)&#45;&gt;gen_ref (registration)</title>
<path fill="none" stroke="#000000" d="M570.2077,-219.256C530.0167,-207.9963 474.398,-192.4144 431.3286,-180.3482"/>
<polygon fill="#000000" stroke="#000000" points="432.0791,-176.9238 421.5056,-177.5962 430.1906,-183.6642 432.0791,-176.9238"/>
</g>
<!-- validate (images)&#45;&gt;outputnode (utility) -->
<g id="edge7" class="edge">
<title>validate (images)&#45;&gt;outputnode (utility)</title>
<path fill="none" stroke="#000000" d="M636.4282,-216.131C659.1689,-183.9055 699.211,-115.3808 664.8356,-72 647.989,-50.7399 587.1526,-37.0335 532.28,-28.7507"/>
<polygon fill="#000000" stroke="#000000" points="532.5162,-25.2481 522.1154,-27.2666 531.5048,-32.1747 532.5162,-25.2481"/>
</g>
<!-- gen_ref (registration)&#45;&gt;enhance_and_skullstrip_bold_wf -->
<g id="edge8" class="edge">
<title>gen_ref (registration)&#45;&gt;enhance_and_skullstrip_bold_wf</title>
<path fill="none" stroke="#000000" d="M319.2896,-145.572C289.8762,-135.1908 251.6237,-121.6899 220.188,-110.595"/>
<polygon fill="#000000" stroke="#000000" points="221.2631,-107.2629 210.6683,-107.2351 218.9333,-113.8638 221.2631,-107.2629"/>
</g>
<!-- gen_ref (registration)&#45;&gt;calc_dummy_scans (utility) -->
<g id="edge9" class="edge">
<title>gen_ref (registration)&#45;&gt;calc_dummy_scans (utility)</title>
<path fill="none" stroke="#000000" d="M401.8575,-144.937C422.7515,-135.0398 449.2812,-122.4732 471.6923,-111.8574"/>
<polygon fill="#000000" stroke="#000000" points="473.4774,-114.8847 481.0164,-107.4407 470.4807,-108.5585 473.4774,-114.8847"/>
</g>
<!-- gen_ref (registration)&#45;&gt;outputnode (utility) -->
<g id="edge10" class="edge">
<title>gen_ref (registration)&#45;&gt;outputnode (utility)</title>
<path fill="none" stroke="#000000" d="M362.7857,-143.6839C360.5228,-124.7004 359.5191,-94.6856 370.8356,-72 376.7755,-60.0927 386.6495,-49.7969 396.8849,-41.4825"/>
<polygon fill="#000000" stroke="#000000" points="399.2526,-44.0795 405.1028,-35.2463 395.021,-38.5033 399.2526,-44.0795"/>
</g>
<!-- calc_dummy_scans (utility)&#45;&gt;outputnode (utility) -->
<g id="edge11" class="edge">
<title>calc_dummy_scans (utility)&#45;&gt;outputnode (utility)</title>
<path fill="none" stroke="#000000" d="M496.8912,-71.8314C486.6119,-62.9144 474.0816,-52.0447 462.979,-42.4135"/>
<polygon fill="#000000" stroke="#000000" points="465.0469,-39.574 455.1995,-35.665 460.4599,-44.8617 465.0469,-39.574"/>
</g>
</g>
</svg>
