<?xml version="1.0" encoding="UTF-8" standalone="no"?>
<!DOCTYPE svg PUBLIC "-//W3C//DTD SVG 1.1//EN"
 "http://www.w3.org/Graphics/SVG/1.1/DTD/svg11.dtd">
<!-- Generated by graphviz version 2.40.1 (20161225.0304)
 -->
<!-- Title: structs Pages: 1 -->
<svg width="1777pt" height="686pt"
 viewBox="0.00 0.00 1777.06 686.00" xmlns="http://www.w3.org/2000/svg" xmlns:xlink="http://www.w3.org/1999/xlink">
<g id="graph0" class="graph" transform="scale(1 1) rotate(0) translate(4 682)">
<title>structs</title>
<polygon fill="#ffffff" stroke="transparent" points="-4,4 -4,-682 1773.0614,-682 1773.0614,4 -4,4"/>
<!-- bold_reference_wfinputnode -->
<g id="node1" class="node">
<title>bold_reference_wfinputnode</title>
<polygon fill="none" stroke="#000000" points="464.0572,-585.5 464.0572,-677.5 706.0572,-677.5 706.0572,-585.5 464.0572,-585.5"/>
<text text-anchor="middle" x="481.5572" y="-627.8" font-family="Times,serif" font-size="14.00" fill="#000000">IN</text>
<polyline fill="none" stroke="#000000" points="499.0572,-585.5 499.0572,-677.5 "/>
<text text-anchor="middle" x="543.5572" y="-658.8" font-family="Times,serif" font-size="14.00" fill="#000000">inputnode</text>
<polyline fill="none" stroke="#000000" points="499.0572,-647.5 588.0572,-647.5 "/>
<text text-anchor="middle" x="543.5572" y="-628.3" font-family="Times,serif" font-size="14.00" fill="#000000">utility</text>
<polyline fill="none" stroke="#000000" points="499.0572,-616.5 588.0572,-616.5 "/>
<text text-anchor="middle" x="543.5572" y="-597.3" font-family="Times,serif" font-size="14.00" fill="#000000"> </text>
<polyline fill="none" stroke="#000000" points="588.0572,-585.5 588.0572,-677.5 "/>
<text text-anchor="middle" x="647.0572" y="-662.3" font-family="Times,serif" font-size="14.00" fill="#000000">OUT</text>
<polyline fill="none" stroke="#000000" points="588.0572,-654.5 706.0572,-654.5 "/>
<text text-anchor="middle" x="647.0572" y="-639.3" font-family="Times,serif" font-size="14.00" fill="#000000">bold_file</text>
<polyline fill="none" stroke="#000000" points="588.0572,-631.5 706.0572,-631.5 "/>
<text text-anchor="middle" x="647.0572" y="-616.3" font-family="Times,serif" font-size="14.00" fill="#000000">bold_mask</text>
<polyline fill="none" stroke="#000000" points="588.0572,-608.5 706.0572,-608.5 "/>
<text text-anchor="middle" x="647.0572" y="-593.3" font-family="Times,serif" font-size="14.00" fill="#000000">dummy_scans</text>
</g>
<!-- bold_reference_wfval_bold -->
<g id="node2" class="node">
<title>bold_reference_wfval_bold</title>
<polygon fill="none" stroke="#000000" points="15.0572,-479.5 15.0572,-548.5 243.0572,-548.5 243.0572,-479.5 15.0572,-479.5"/>
<text text-anchor="middle" x="45.0572" y="-527.8" font-family="Times,serif" font-size="14.00" fill="#000000">IN</text>
<polyline fill="none" stroke="#000000" points="15.0572,-514.5 75.0572,-514.5 "/>
<text text-anchor="middle" x="45.0572" y="-493.3" font-family="Times,serif" font-size="14.00" fill="#000000">in_file</text>
<polyline fill="none" stroke="#000000" points="75.0572,-479.5 75.0572,-548.5 "/>
<text text-anchor="middle" x="113.0572" y="-533.3" font-family="Times,serif" font-size="14.00" fill="#000000">val_bold</text>
<polyline fill="none" stroke="#000000" points="75.0572,-525.5 151.0572,-525.5 "/>
<text text-anchor="middle" x="113.0572" y="-510.3" font-family="Times,serif" font-size="14.00" fill="#000000">images</text>
<polyline fill="none" stroke="#000000" points="75.0572,-502.5 151.0572,-502.5 "/>
<text text-anchor="middle" x="113.0572" y="-487.3" font-family="Times,serif" font-size="14.00" fill="#000000"> </text>
<polyline fill="none" stroke="#000000" points="151.0572,-479.5 151.0572,-548.5 "/>
<text text-anchor="middle" x="197.0572" y="-533.3" font-family="Times,serif" font-size="14.00" fill="#000000">OUT</text>
<polyline fill="none" stroke="#000000" points="151.0572,-525.5 243.0572,-525.5 "/>
<text text-anchor="middle" x="197.0572" y="-510.3" font-family="Times,serif" font-size="14.00" fill="#000000">out_file</text>
<polyline fill="none" stroke="#000000" points="151.0572,-502.5 243.0572,-502.5 "/>
<text text-anchor="middle" x="197.0572" y="-487.3" font-family="Times,serif" font-size="14.00" fill="#000000">out_report</text>
</g>
<!-- bold_reference_wfinputnode&#45;&gt;bold_reference_wfval_bold -->
<g id="edge10" class="edge">
<title>bold_reference_wfinputnode:e&#45;&gt;bold_reference_wfval_bold:w</title>
<path fill="none" stroke="#000000" d="M706.0572,-643.5C732.0572,-643.5 723.9573,-603.857 706.0572,-585 653.1266,-529.24 67.9878,-604.76 15.0572,-549 2.005,-535.2501 -5.1852,-509.0672 5.4095,-500.1016"/>
<polygon fill="#000000" stroke="#000000" points="6.6083,-503.3927 15.0572,-497 4.4658,-496.7287 6.6083,-503.3927"/>
</g>
<!-- bold_reference_wfcalc_dummy_scans -->
<g id="node6" class="node">
<title>bold_reference_wfcalc_dummy_scans</title>
<polygon fill="none" stroke="#000000" points="650.0572,-256 650.0572,-325 1082.0572,-325 1082.0572,-256 650.0572,-256"/>
<text text-anchor="middle" x="727.5572" y="-309.8" font-family="Times,serif" font-size="14.00" fill="#000000">IN</text>
<polyline fill="none" stroke="#000000" points="650.0572,-302 805.0572,-302 "/>
<text text-anchor="middle" x="727.5572" y="-286.8" font-family="Times,serif" font-size="14.00" fill="#000000">algo_dummy_scans</text>
<polyline fill="none" stroke="#000000" points="650.0572,-279 805.0572,-279 "/>
<text text-anchor="middle" x="727.5572" y="-263.8" font-family="Times,serif" font-size="14.00" fill="#000000">dummy_scans</text>
<polyline fill="none" stroke="#000000" points="805.0572,-256 805.0572,-325 "/>
<text text-anchor="middle" x="882.5572" y="-309.8" font-family="Times,serif" font-size="14.00" fill="#000000">calc_dummy_scans</text>
<polyline fill="none" stroke="#000000" points="805.0572,-302 960.0572,-302 "/>
<text text-anchor="middle" x="882.5572" y="-286.8" font-family="Times,serif" font-size="14.00" fill="#000000">utility</text>
<polyline fill="none" stroke="#000000" points="805.0572,-279 960.0572,-279 "/>
<text text-anchor="middle" x="882.5572" y="-263.8" font-family="Times,serif" font-size="14.00" fill="#000000"> </text>
<polyline fill="none" stroke="#000000" points="960.0572,-256 960.0572,-325 "/>
<text text-anchor="middle" x="1021.0572" y="-304.3" font-family="Times,serif" font-size="14.00" fill="#000000">OUT</text>
<polyline fill="none" stroke="#000000" points="960.0572,-291 1082.0572,-291 "/>
<text text-anchor="middle" x="1021.0572" y="-269.8" font-family="Times,serif" font-size="14.00" fill="#000000">skip_vols_num</text>
</g>
<!-- bold_reference_wfinputnode&#45;&gt;bold_reference_wfcalc_dummy_scans -->
<g id="edge12" class="edge">
<title>bold_reference_wfinputnode:e&#45;&gt;bold_reference_wfcalc_dummy_scans:w</title>
<path fill="none" stroke="#000000" d="M706.0572,-596.5C805.7488,-596.5 723.6251,-465.7427 687.0572,-373 677.2413,-348.1053 658.751,-350.8084 650.0572,-325.5 648.536,-321.0717 645.8233,-292.4605 646.9253,-277.1448"/>
<polygon fill="#000000" stroke="#000000" points="650.2975,-278.0921 650.0572,-267.5 643.6397,-275.9301 650.2975,-278.0921"/>
</g>
<!-- bold_reference_wfenhance_and_skullstrip_bold_wf -->
<g id="node7" class="node">
<title>bold_reference_wfenhance_and_skullstrip_bold_wf</title>
<polygon fill="none" stroke="#000000" points="1100.5572,-244.5 1100.5572,-336.5 1751.5572,-336.5 1751.5572,-244.5 1100.5572,-244.5"/>
<text text-anchor="middle" x="1182.0572" y="-317.8" font-family="Times,serif" font-size="14.00" fill="#000000">IN</text>
<polyline fill="none" stroke="#000000" points="1100.5572,-306.5 1263.5572,-306.5 "/>
<text text-anchor="middle" x="1182.0572" y="-287.3" font-family="Times,serif" font-size="14.00" fill="#000000">inputnode.in_file</text>
<polyline fill="none" stroke="#000000" points="1100.5572,-275.5 1263.5572,-275.5 "/>
<text text-anchor="middle" x="1182.0572" y="-256.3" font-family="Times,serif" font-size="14.00" fill="#000000">inputnode.pre_mask</text>
<polyline fill="none" stroke="#000000" points="1263.5572,-244.5 1263.5572,-336.5 "/>
<text text-anchor="middle" x="1388.0572" y="-317.8" font-family="Times,serif" font-size="14.00" fill="#000000">enhance_and_skullstrip_bold_wf</text>
<polyline fill="none" stroke="#000000" points="1263.5572,-306.5 1512.5572,-306.5 "/>
<text text-anchor="middle" x="1388.0572" y="-287.3" font-family="Times,serif" font-size="14.00" fill="#000000"> </text>
<polyline fill="none" stroke="#000000" points="1263.5572,-275.5 1512.5572,-275.5 "/>
<text text-anchor="middle" x="1388.0572" y="-256.3" font-family="Times,serif" font-size="14.00" fill="#000000"> </text>
<polyline fill="none" stroke="#000000" points="1512.5572,-244.5 1512.5572,-336.5 "/>
<text text-anchor="middle" x="1632.0572" y="-321.3" font-family="Times,serif" font-size="14.00" fill="#000000">OUT</text>
<polyline fill="none" stroke="#000000" points="1512.5572,-313.5 1751.5572,-313.5 "/>
<text text-anchor="middle" x="1632.0572" y="-298.3" font-family="Times,serif" font-size="14.00" fill="#000000">outputnode.bias_corrected_file</text>
<polyline fill="none" stroke="#000000" points="1512.5572,-290.5 1751.5572,-290.5 "/>
<text text-anchor="middle" x="1632.0572" y="-275.3" font-family="Times,serif" font-size="14.00" fill="#000000">outputnode.mask_file</text>
<polyline fill="none" stroke="#000000" points="1512.5572,-267.5 1751.5572,-267.5 "/>
<text text-anchor="middle" x="1632.0572" y="-252.3" font-family="Times,serif" font-size="14.00" fill="#000000">outputnode.skull_stripped_file</text>
</g>
<!-- bold_reference_wfinputnode&#45;&gt;bold_reference_wfenhance_and_skullstrip_bold_wf -->
<g id="edge11" class="edge">
<title>bold_reference_wfinputnode:e&#45;&gt;bold_reference_wfenhance_and_skullstrip_bold_wf:w</title>
<path fill="none" stroke="#000000" d="M706.0572,-619.5C918.291,-619.5 984.3728,-520.4712 1091.0572,-337 1097.9341,-325.1733 1088.767,-283.7576 1093.1115,-266.8116"/>
<polygon fill="#000000" stroke="#000000" points="1095.7074,-269.1608 1100.0572,-259.5 1090.6323,-264.3396 1095.7074,-269.1608"/>
</g>
<!-- bold_reference_wfvalidate_1st -->
<g id="node3" class="node">
<title>bold_reference_wfvalidate_1st</title>
<polygon fill="none" stroke="#000000" points="227.5572,-256 227.5572,-325 434.5572,-325 434.5572,-256 227.5572,-256"/>
<text text-anchor="middle" x="254.0572" y="-304.3" font-family="Times,serif" font-size="14.00" fill="#000000">IN</text>
<polyline fill="none" stroke="#000000" points="227.5572,-291 280.5572,-291 "/>
<text text-anchor="middle" x="254.0572" y="-269.8" font-family="Times,serif" font-size="14.00" fill="#000000">inlist</text>
<polyline fill="none" stroke="#000000" points="280.5572,-256 280.5572,-325 "/>
<text text-anchor="middle" x="332.5572" y="-309.8" font-family="Times,serif" font-size="14.00" fill="#000000">validate_1st</text>
<polyline fill="none" stroke="#000000" points="280.5572,-302 384.5572,-302 "/>
<text text-anchor="middle" x="332.5572" y="-286.8" font-family="Times,serif" font-size="14.00" fill="#000000">utility</text>
<polyline fill="none" stroke="#000000" points="280.5572,-279 384.5572,-279 "/>
<text text-anchor="middle" x="332.5572" y="-263.8" font-family="Times,serif" font-size="14.00" fill="#000000"> </text>
<polyline fill="none" stroke="#000000" points="384.5572,-256 384.5572,-325 "/>
<text text-anchor="middle" x="409.5572" y="-304.3" font-family="Times,serif" font-size="14.00" fill="#000000">OUT</text>
<polyline fill="none" stroke="#000000" points="384.5572,-291 434.5572,-291 "/>
<text text-anchor="middle" x="409.5572" y="-269.8" font-family="Times,serif" font-size="14.00" fill="#000000">out</text>
</g>
<!-- bold_reference_wfval_bold&#45;&gt;bold_reference_wfvalidate_1st -->
<g id="edge15" class="edge">
<title>bold_reference_wfval_bold:e&#45;&gt;bold_reference_wfvalidate_1st:w</title>
<path fill="none" stroke="#000000" d="M243.0572,-491C248.3905,-491 246.1756,-483.3266 243.0572,-479 213.4729,-437.954 164.6414,-484.046 135.0572,-443 86.9945,-376.3166 136.8948,-281.649 216.6635,-273.9955"/>
<polygon fill="#000000" stroke="#000000" points="217.2352,-277.4723 227.0572,-273.5 216.9018,-270.4803 217.2352,-277.4723"/>
</g>
<!-- bold_reference_wfbold_1st -->
<g id="node4" class="node">
<title>bold_reference_wfbold_1st</title>
<polygon fill="none" stroke="#000000" points="144.0572,-373.5 144.0572,-442.5 324.0572,-442.5 324.0572,-373.5 144.0572,-373.5"/>
<text text-anchor="middle" x="170.5572" y="-421.8" font-family="Times,serif" font-size="14.00" fill="#000000">IN</text>
<polyline fill="none" stroke="#000000" points="144.0572,-408.5 197.0572,-408.5 "/>
<text text-anchor="middle" x="170.5572" y="-387.3" font-family="Times,serif" font-size="14.00" fill="#000000">inlist</text>
<polyline fill="none" stroke="#000000" points="197.0572,-373.5 197.0572,-442.5 "/>
<text text-anchor="middle" x="235.5572" y="-427.3" font-family="Times,serif" font-size="14.00" fill="#000000">bold_1st</text>
<polyline fill="none" stroke="#000000" points="197.0572,-419.5 274.0572,-419.5 "/>
<text text-anchor="middle" x="235.5572" y="-404.3" font-family="Times,serif" font-size="14.00" fill="#000000">utility</text>
<polyline fill="none" stroke="#000000" points="197.0572,-396.5 274.0572,-396.5 "/>
<text text-anchor="middle" x="235.5572" y="-381.3" font-family="Times,serif" font-size="14.00" fill="#000000"> </text>
<polyline fill="none" stroke="#000000" points="274.0572,-373.5 274.0572,-442.5 "/>
<text text-anchor="middle" x="299.0572" y="-421.8" font-family="Times,serif" font-size="14.00" fill="#000000">OUT</text>
<polyline fill="none" stroke="#000000" points="274.0572,-408.5 324.0572,-408.5 "/>
<text text-anchor="middle" x="299.0572" y="-387.3" font-family="Times,serif" font-size="14.00" fill="#000000">out</text>
</g>
<!-- bold_reference_wfval_bold&#45;&gt;bold_reference_wfbold_1st -->
<g id="edge13" class="edge">
<title>bold_reference_wfval_bold:e&#45;&gt;bold_reference_wfbold_1st:w</title>
<path fill="none" stroke="#000000" d="M243.0572,-514C258.6127,-514 251.9814,-491.741 243.0572,-479 216.1974,-440.6522 170.917,-481.3478 144.0572,-443 133.2844,-427.6197 124.7605,-402.9043 134.339,-394.1767"/>
<polygon fill="#000000" stroke="#000000" points="135.6396,-397.4339 144.0572,-391 133.4646,-390.7803 135.6396,-397.4339"/>
</g>
<!-- bold_reference_wfgen_ref -->
<g id="node5" class="node">
<title>bold_reference_wfgen_ref</title>
<polygon fill="none" stroke="#000000" points="342.0572,-373.5 342.0572,-442.5 678.0572,-442.5 678.0572,-373.5 342.0572,-373.5"/>
<text text-anchor="middle" x="372.0572" y="-421.8" font-family="Times,serif" font-size="14.00" fill="#000000">IN</text>
<polyline fill="none" stroke="#000000" points="342.0572,-408.5 402.0572,-408.5 "/>
<text text-anchor="middle" x="372.0572" y="-387.3" font-family="Times,serif" font-size="14.00" fill="#000000">in_file</text>
<polyline fill="none" stroke="#000000" points="402.0572,-373.5 402.0572,-442.5 "/>
<text text-anchor="middle" x="452.5572" y="-427.3" font-family="Times,serif" font-size="14.00" fill="#000000">gen_ref</text>
<polyline fill="none" stroke="#000000" points="402.0572,-419.5 503.0572,-419.5 "/>
<text text-anchor="middle" x="452.5572" y="-404.3" font-family="Times,serif" font-size="14.00" fill="#000000">registration</text>
<polyline fill="none" stroke="#000000" points="402.0572,-396.5 503.0572,-396.5 "/>
<text text-anchor="middle" x="452.5572" y="-381.3" font-family="Times,serif" font-size="14.00" fill="#000000"> </text>
<polyline fill="none" stroke="#000000" points="503.0572,-373.5 503.0572,-442.5 "/>
<text text-anchor="middle" x="590.5572" y="-427.3" font-family="Times,serif" font-size="14.00" fill="#000000">OUT</text>
<polyline fill="none" stroke="#000000" points="503.0572,-419.5 678.0572,-419.5 "/>
<text text-anchor="middle" x="590.5572" y="-404.3" font-family="Times,serif" font-size="14.00" fill="#000000">n_volumes_to_discard</text>
<polyline fill="none" stroke="#000000" points="503.0572,-396.5 678.0572,-396.5 "/>
<text text-anchor="middle" x="590.5572" y="-381.3" font-family="Times,serif" font-size="14.00" fill="#000000">ref_image</text>
</g>
<!-- bold_reference_wfval_bold&#45;&gt;bold_reference_wfgen_ref -->
<g id="edge14" class="edge">
<title>bold_reference_wfval_bold:e&#45;&gt;bold_reference_wfgen_ref:w</title>
<path fill="none" stroke="#000000" d="M243.0572,-514C294.0057,-514 306.9885,-486.7742 333.0572,-443 337.37,-435.7579 334.0742,-412.063 336.2336,-399.3075"/>
<polygon fill="#000000" stroke="#000000" points="339.183,-401.1975 342.0572,-391 333.4511,-397.1794 339.183,-401.1975"/>
</g>
<!-- bold_reference_wfoutputnode -->
<g id="node8" class="node">
<title>bold_reference_wfoutputnode</title>
<polygon fill="none" stroke="#000000" points="852.5572,-.5 852.5572,-207.5 1155.5572,-207.5 1155.5572,-.5 852.5572,-.5"/>
<text text-anchor="middle" x="930.0572" y="-192.3" font-family="Times,serif" font-size="14.00" fill="#000000">IN</text>
<polyline fill="none" stroke="#000000" points="852.5572,-184.5 1007.5572,-184.5 "/>
<text text-anchor="middle" x="930.0572" y="-169.3" font-family="Times,serif" font-size="14.00" fill="#000000">algo_dummy_scans</text>
<polyline fill="none" stroke="#000000" points="852.5572,-161.5 1007.5572,-161.5 "/>
<text text-anchor="middle" x="930.0572" y="-146.3" font-family="Times,serif" font-size="14.00" fill="#000000">bold_file</text>
<polyline fill="none" stroke="#000000" points="852.5572,-138.5 1007.5572,-138.5 "/>
<text text-anchor="middle" x="930.0572" y="-123.3" font-family="Times,serif" font-size="14.00" fill="#000000">bold_mask</text>
<polyline fill="none" stroke="#000000" points="852.5572,-115.5 1007.5572,-115.5 "/>
<text text-anchor="middle" x="930.0572" y="-100.3" font-family="Times,serif" font-size="14.00" fill="#000000">raw_ref_image</text>
<polyline fill="none" stroke="#000000" points="852.5572,-92.5 1007.5572,-92.5 "/>
<text text-anchor="middle" x="930.0572" y="-77.3" font-family="Times,serif" font-size="14.00" fill="#000000">ref_image</text>
<polyline fill="none" stroke="#000000" points="852.5572,-69.5 1007.5572,-69.5 "/>
<text text-anchor="middle" x="930.0572" y="-54.3" font-family="Times,serif" font-size="14.00" fill="#000000">ref_image_brain</text>
<polyline fill="none" stroke="#000000" points="852.5572,-46.5 1007.5572,-46.5 "/>
<text text-anchor="middle" x="930.0572" y="-31.3" font-family="Times,serif" font-size="14.00" fill="#000000">skip_vols</text>
<polyline fill="none" stroke="#000000" points="852.5572,-23.5 1007.5572,-23.5 "/>
<text text-anchor="middle" x="930.0572" y="-8.3" font-family="Times,serif" font-size="14.00" fill="#000000">validation_report</text>
<polyline fill="none" stroke="#000000" points="1007.5572,-.5 1007.5572,-207.5 "/>
<text text-anchor="middle" x="1056.5572" y="-169.3" font-family="Times,serif" font-size="14.00" fill="#000000">outputnode</text>
<polyline fill="none" stroke="#000000" points="1007.5572,-138.5 1105.5572,-138.5 "/>
<text text-anchor="middle" x="1056.5572" y="-100.3" font-family="Times,serif" font-size="14.00" fill="#000000">utility</text>
<polyline fill="none" stroke="#000000" points="1007.5572,-69.5 1105.5572,-69.5 "/>
<text text-anchor="middle" x="1056.5572" y="-31.3" font-family="Times,serif" font-size="14.00" fill="#000000"> </text>
<polyline fill="none" stroke="#000000" points="1105.5572,-.5 1105.5572,-207.5 "/>
<text text-anchor="middle" x="1130.5572" y="-100.3" font-family="Times,serif" font-size="14.00" fill="#000000">OUT</text>
</g>
<!-- bold_reference_wfvalidate_1st&#45;&gt;bold_reference_wfoutputnode -->
<g id="edge16" class="edge">
<title>bold_reference_wfvalidate_1st:e&#45;&gt;bold_reference_wfoutputnode:w</title>
<path fill="none" stroke="#000000" d="M435.0572,-273.5C486.97,-273.5 766.7767,-37.8843 841.835,-13.9545"/>
<polygon fill="#000000" stroke="#000000" points="842.8924,-17.3158 852.0572,-12 841.5778,-10.4404 842.8924,-17.3158"/>
</g>
<!-- bold_reference_wfbold_1st&#45;&gt;bold_reference_wfoutputnode -->
<g id="edge1" class="edge">
<title>bold_reference_wfbold_1st:e&#45;&gt;bold_reference_wfoutputnode:w</title>
<path fill="none" stroke="#000000" d="M324.0572,-391C333.0015,-391 326.2764,-378.8328 333.0572,-373 372.3751,-339.1788 397.2836,-359.4057 444.0572,-337 512.0955,-304.408 518.4494,-277.476 586.0572,-244 695.3513,-189.8831 725.0626,-152.1108 841.9857,-150.0856"/>
<polygon fill="#000000" stroke="#000000" points="842.0873,-153.585 852.0572,-150 842.0278,-146.5852 842.0873,-153.585"/>
</g>
<!-- bold_reference_wfgen_ref&#45;&gt;bold_reference_wfcalc_dummy_scans -->
<g id="edge6" class="edge">
<title>bold_reference_wfgen_ref:e&#45;&gt;bold_reference_wfcalc_dummy_scans:w</title>
<path fill="none" stroke="#000000" d="M678.0572,-408C727.1282,-408 618.243,-309.8275 640.1653,-292.9542"/>
<polygon fill="#000000" stroke="#000000" points="641.1942,-296.3051 650.0572,-290.5 639.5086,-289.511 641.1942,-296.3051"/>
</g>
<!-- bold_reference_wfgen_ref&#45;&gt;bold_reference_wfenhance_and_skullstrip_bold_wf -->
<g id="edge8" class="edge">
<title>bold_reference_wfgen_ref:e&#45;&gt;bold_reference_wfenhance_and_skullstrip_bold_wf:w</title>
<path fill="none" stroke="#000000" d="M678.0572,-385C724.255,-385 1057.1168,-368.3415 1091.0572,-337 1102.0607,-326.8391 1090.9438,-307.4241 1091.9479,-297.5663"/>
<polygon fill="#000000" stroke="#000000" points="1094.1463,-300.2927 1100.0572,-291.5 1089.9532,-294.6875 1094.1463,-300.2927"/>
</g>
<!-- bold_reference_wfgen_ref&#45;&gt;bold_reference_wfoutputnode -->
<g id="edge7" class="edge">
<title>bold_reference_wfgen_ref:e&#45;&gt;bold_reference_wfoutputnode:w</title>
<path fill="none" stroke="#000000" d="M678.0572,-408C693.6127,-408 686.1599,-386.2786 678.0572,-373 659.8342,-343.1366 626.2801,-366.8634 608.0572,-337 586.5271,-301.7169 583.2468,-277.0589 608.0572,-244 640.1003,-201.3038 779.1407,-175.8834 841.9561,-173.2307"/>
<polygon fill="#000000" stroke="#000000" points="842.1397,-176.7275 852.0572,-173 841.9798,-169.7294 842.1397,-176.7275"/>
</g>
<!-- bold_reference_wfgen_ref&#45;&gt;bold_reference_wfoutputnode -->
<g id="edge9" class="edge">
<title>bold_reference_wfgen_ref:e&#45;&gt;bold_reference_wfoutputnode:w</title>
<path fill="none" stroke="#000000" d="M678.0572,-385C683.3905,-385 680.1319,-377.9133 678.0572,-373 669.132,-351.8633 649.9824,-358.1367 641.0572,-337 624.9784,-298.9222 621.5138,-280.4212 641.0572,-244 692.6591,-147.8343 736.7677,-106.5257 842.019,-104.1128"/>
<polygon fill="#000000" stroke="#000000" points="842.0972,-107.6122 852.0572,-104 842.0185,-100.6126 842.0972,-107.6122"/>
</g>
<!-- bold_reference_wfcalc_dummy_scans&#45;&gt;bold_reference_wfoutputnode -->
<g id="edge2" class="edge">
<title>bold_reference_wfcalc_dummy_scans:e&#45;&gt;bold_reference_wfoutputnode:w</title>
<path fill="none" stroke="#000000" d="M1082.0572,-273.5C1090.0572,-273.5 1087.1097,-261.7026 1082.0572,-255.5 1016.1349,-174.5722 917.9795,-288.9278 852.0572,-208 805.7732,-151.1806 777.8686,-45.5118 841.9295,-35.7302"/>
<polygon fill="#000000" stroke="#000000" points="842.3348,-39.2102 852.0572,-35 841.8313,-32.2283 842.3348,-39.2102"/>
</g>
<!-- bold_reference_wfenhance_and_skullstrip_bold_wf&#45;&gt;bold_reference_wfoutputnode -->
<g id="edge3" class="edge">
<title>bold_reference_wfenhance_and_skullstrip_bold_wf:e&#45;&gt;bold_reference_wfoutputnode:w</title>
<path fill="none" stroke="#000000" d="M1752.0572,-302.5C1778.0572,-302.5 1770.0708,-262.7486 1752.0572,-244 1682.7186,-171.8324 921.3958,-280.1676 852.0572,-208 815.4712,-169.9213 797.9381,-91.9349 842.0487,-82.0402"/>
<polygon fill="#000000" stroke="#000000" points="842.4726,-85.5151 852.0572,-81 841.7489,-78.5526 842.4726,-85.5151"/>
</g>
<!-- bold_reference_wfenhance_and_skullstrip_bold_wf&#45;&gt;bold_reference_wfoutputnode -->
<g id="edge4" class="edge">
<title>bold_reference_wfenhance_and_skullstrip_bold_wf:e&#45;&gt;bold_reference_wfoutputnode:w</title>
<path fill="none" stroke="#000000" d="M1752.0572,-278.5C1767.3905,-278.5 1762.6806,-255.0569 1752.0572,-244 1682.7186,-171.8324 921.3958,-280.1676 852.0572,-208 829.7458,-184.7784 818.5442,-138.2866 842.198,-128.7381"/>
<polygon fill="#000000" stroke="#000000" points="842.8167,-132.183 852.0572,-127 841.6014,-125.2893 842.8167,-132.183"/>
</g>
<!-- bold_reference_wfenhance_and_skullstrip_bold_wf&#45;&gt;bold_reference_wfoutputnode -->
<g id="edge5" class="edge">
<title>bold_reference_wfenhance_and_skullstrip_bold_wf:e&#45;&gt;bold_reference_wfoutputnode:w</title>
<path fill="none" stroke="#000000" d="M1752.0572,-255.5C1757.1683,-255.5 1755.5983,-247.6856 1752.0572,-244 1682.7186,-171.8324 921.3958,-280.1676 852.0572,-208 808.3943,-162.5557 787.7072,-68.9872 841.8915,-58.889"/>
<polygon fill="#000000" stroke="#000000" points="842.4002,-62.358 852.0572,-58 841.7902,-55.3846 842.4002,-62.358"/>
</g>
</g>
</svg>
