<?xml version="1.0" encoding="UTF-8" standalone="no"?>
<!DOCTYPE svg PUBLIC "-//W3C//DTD SVG 1.1//EN"
 "http://www.w3.org/Graphics/SVG/1.1/DTD/svg11.dtd">
<!-- Generated by graphviz version 2.40.1 (20161225.0304)
 -->
<!-- Title: %3 Pages: 1 -->
<svg width="1043pt" height="692pt"
 viewBox="0.00 0.00 1042.89 692.00" xmlns="http://www.w3.org/2000/svg" xmlns:xlink="http://www.w3.org/1999/xlink">
<g id="graph0" class="graph" transform="scale(1 1) rotate(0) translate(4 688)">
<title>%3</title>
<polygon fill="#ffffff" stroke="transparent" points="-4,4 -4,-688 1038.8944,-688 1038.8944,4 -4,4"/>
<!-- inputnode (utility) -->
<g id="node1" class="node">
<title>inputnode (utility)</title>
<ellipse fill="none" stroke="#000000" cx="115.8944" cy="-666" rx="94.7833" ry="18"/>
<text text-anchor="middle" x="115.8944" y="-662.3" font-family="Times,serif" font-size="14.00" fill="#000000">inputnode (utility)</text>
</g>
<!-- truncate_images (ants) -->
<g id="node2" class="node">
<title>truncate_images (ants)</title>
<ellipse fill="none" stroke="#000000" cx="460.8944" cy="-594" rx="118.0794" ry="18"/>
<text text-anchor="middle" x="460.8944" y="-590.3" font-family="Times,serif" font-size="14.00" fill="#000000">truncate_images (ants)</text>
</g>
<!-- inputnode (utility)&#45;&gt;truncate_images (ants) -->
<g id="edge1" class="edge">
<title>inputnode (utility)&#45;&gt;truncate_images (ants)</title>
<path fill="none" stroke="#000000" d="M179.9777,-652.6261C236.7391,-640.7802 319.8383,-623.4378 380.9357,-610.687"/>
<polygon fill="#000000" stroke="#000000" points="381.8527,-614.0712 390.9267,-608.602 380.4226,-607.2188 381.8527,-614.0712"/>
</g>
<!-- inu_n4_final (ants) -->
<g id="node3" class="node">
<title>inu_n4_final (ants)</title>
<ellipse fill="none" stroke="#000000" cx="126.8944" cy="-162" rx="96.6831" ry="18"/>
<text text-anchor="middle" x="126.8944" y="-158.3" font-family="Times,serif" font-size="14.00" fill="#000000">inu_n4_final (ants)</text>
</g>
<!-- inputnode (utility)&#45;&gt;inu_n4_final (ants) -->
<g id="edge2" class="edge">
<title>inputnode (utility)&#45;&gt;inu_n4_final (ants)</title>
<path fill="none" stroke="#000000" d="M99.0275,-648.0553C76.6373,-622.2804 39.8944,-572.3175 39.8944,-522 39.8944,-522 39.8944,-522 39.8944,-306 39.8944,-264.3643 43.6473,-251.1937 65.8944,-216 73.0503,-204.6798 83.2578,-194.3461 93.2806,-185.8179"/>
<polygon fill="#000000" stroke="#000000" points="95.655,-188.3985 101.2172,-179.3811 91.2457,-182.9618 95.655,-188.3985"/>
</g>
<!-- init_aff (ants) -->
<g id="node4" class="node">
<title>init_aff (ants)</title>
<ellipse fill="none" stroke="#000000" cx="336.8944" cy="-378" rx="73.387" ry="18"/>
<text text-anchor="middle" x="336.8944" y="-374.3" font-family="Times,serif" font-size="14.00" fill="#000000">init_aff (ants)</text>
</g>
<!-- inputnode (utility)&#45;&gt;init_aff (ants) -->
<g id="edge3" class="edge">
<title>inputnode (utility)&#45;&gt;init_aff (ants)</title>
<path fill="none" stroke="#000000" d="M120.6475,-648.022C123.3985,-637.5293 126.8985,-624.0293 129.8944,-612 149.7718,-532.187 117.2151,-492.5397 172.8944,-432 186.7374,-416.9486 232.4083,-402.6024 272.0491,-392.4849"/>
<polygon fill="#000000" stroke="#000000" points="273.1206,-395.8249 281.9744,-390.0059 271.4243,-389.0335 273.1206,-395.8249"/>
</g>
<!-- norm (fixes) -->
<g id="node5" class="node">
<title>norm (fixes)</title>
<ellipse fill="none" stroke="#000000" cx="397.8944" cy="-306" rx="66.8882" ry="18"/>
<text text-anchor="middle" x="397.8944" y="-302.3" font-family="Times,serif" font-size="14.00" fill="#000000">norm (fixes)</text>
</g>
<!-- inputnode (utility)&#45;&gt;norm (fixes) -->
<g id="edge4" class="edge">
<title>inputnode (utility)&#45;&gt;norm (fixes)</title>
<path fill="none" stroke="#000000" d="M115.8944,-647.8146C115.8944,-620.4983 115.8944,-567.25 115.8944,-522 115.8944,-522 115.8944,-522 115.8944,-450 115.8944,-399.6845 260.0891,-347.6961 342.2592,-322.1551"/>
<polygon fill="#000000" stroke="#000000" points="343.4285,-325.4573 351.9586,-319.1733 341.3716,-318.7664 343.4285,-325.4573"/>
</g>
<!-- map_brainmask (fixes) -->
<g id="node6" class="node">
<title>map_brainmask (fixes)</title>
<ellipse fill="none" stroke="#000000" cx="426.8944" cy="-234" rx="116.1796" ry="18"/>
<text text-anchor="middle" x="426.8944" y="-230.3" font-family="Times,serif" font-size="14.00" fill="#000000">map_brainmask (fixes)</text>
</g>
<!-- inputnode (utility)&#45;&gt;map_brainmask (fixes) -->
<g id="edge5" class="edge">
<title>inputnode (utility)&#45;&gt;map_brainmask (fixes)</title>
<path fill="none" stroke="#000000" d="M207.3714,-661.1843C439.8217,-647.7315 1034.8944,-605.1701 1034.8944,-522 1034.8944,-522 1034.8944,-522 1034.8944,-378 1034.8944,-279.4377 728.5288,-248.2446 550.7464,-238.4409"/>
<polygon fill="#000000" stroke="#000000" points="550.7144,-234.9342 540.5413,-237.8937 550.3396,-241.9242 550.7144,-234.9342"/>
</g>
<!-- map_wmmask (fixes) -->
<g id="node7" class="node">
<title>map_wmmask (fixes)</title>
<ellipse fill="none" stroke="#000000" cx="183.8944" cy="-234" rx="108.5808" ry="18"/>
<text text-anchor="middle" x="183.8944" y="-230.3" font-family="Times,serif" font-size="14.00" fill="#000000">map_wmmask (fixes)</text>
</g>
<!-- inputnode (utility)&#45;&gt;map_wmmask (fixes) -->
<g id="edge6" class="edge">
<title>inputnode (utility)&#45;&gt;map_wmmask (fixes)</title>
<path fill="none" stroke="#000000" d="M107.8356,-647.7668C96.681,-620.8248 77.8944,-568.5405 77.8944,-522 77.8944,-522 77.8944,-522 77.8944,-378 77.8944,-337.1184 73.4184,-321.4692 96.8944,-288 106.1896,-274.748 119.8789,-264.0915 133.6606,-255.8606"/>
<polygon fill="#000000" stroke="#000000" points="135.6754,-258.7436 142.6851,-250.7991 132.2511,-252.6382 135.6754,-258.7436"/>
</g>
<!-- atropos_wf -->
<g id="node8" class="node">
<title>atropos_wf</title>
<ellipse fill="none" stroke="#000000" cx="162.8944" cy="-90" rx="61.99" ry="18"/>
<text text-anchor="middle" x="162.8944" y="-86.3" font-family="Times,serif" font-size="14.00" fill="#000000">atropos_wf</text>
</g>
<!-- inputnode (utility)&#45;&gt;atropos_wf -->
<g id="edge7" class="edge">
<title>inputnode (utility)&#45;&gt;atropos_wf</title>
<path fill="none" stroke="#000000" d="M88.878,-648.633C55.1666,-624.6024 1.8944,-577.8003 1.8944,-522 1.8944,-522 1.8944,-522 1.8944,-234 1.8944,-193.1184 -5.6832,-175.0635 20.8944,-144 40.2127,-121.4211 70.0302,-108.257 97.364,-100.5941"/>
<polygon fill="#000000" stroke="#000000" points="98.4997,-103.9153 107.2979,-98.0125 96.7391,-97.1403 98.4997,-103.9153"/>
</g>
<!-- inu_n4 (ants) -->
<g id="node9" class="node">
<title>inu_n4 (ants)</title>
<ellipse fill="none" stroke="#000000" cx="556.8944" cy="-522" rx="71.4873" ry="18"/>
<text text-anchor="middle" x="556.8944" y="-518.3" font-family="Times,serif" font-size="14.00" fill="#000000">inu_n4 (ants)</text>
</g>
<!-- truncate_images (ants)&#45;&gt;inu_n4 (ants) -->
<g id="edge8" class="edge">
<title>truncate_images (ants)&#45;&gt;inu_n4 (ants)</title>
<path fill="none" stroke="#000000" d="M484.6247,-576.2022C497.1315,-566.8221 512.6215,-555.2047 526.0491,-545.134"/>
<polygon fill="#000000" stroke="#000000" points="528.1981,-547.8973 534.0981,-539.0972 523.9981,-542.2973 528.1981,-547.8973"/>
</g>
<!-- inu_n4_final (ants)&#45;&gt;atropos_wf -->
<g id="edge10" class="edge">
<title>inu_n4_final (ants)&#45;&gt;atropos_wf</title>
<path fill="none" stroke="#000000" d="M135.9787,-143.8314C140.06,-135.6688 144.9594,-125.87 149.453,-116.8827"/>
<polygon fill="#000000" stroke="#000000" points="152.596,-118.423 153.9377,-107.9134 146.335,-115.2924 152.596,-118.423"/>
</g>
<!-- apply_mask (nibabel) -->
<g id="node10" class="node">
<title>apply_mask (nibabel)</title>
<ellipse fill="none" stroke="#000000" cx="370.8944" cy="-90" rx="109.6807" ry="18"/>
<text text-anchor="middle" x="370.8944" y="-86.3" font-family="Times,serif" font-size="14.00" fill="#000000">apply_mask (nibabel)</text>
</g>
<!-- inu_n4_final (ants)&#45;&gt;apply_mask (nibabel) -->
<g id="edge9" class="edge">
<title>inu_n4_final (ants)&#45;&gt;apply_mask (nibabel)</title>
<path fill="none" stroke="#000000" d="M178.6405,-146.7307C216.3771,-135.5953 267.7174,-120.4457 307.8512,-108.6029"/>
<polygon fill="#000000" stroke="#000000" points="308.9355,-111.9322 317.5361,-105.7451 306.9543,-105.2184 308.9355,-111.9322"/>
</g>
<!-- init_aff (ants)&#45;&gt;norm (fixes) -->
<g id="edge11" class="edge">
<title>init_aff (ants)&#45;&gt;norm (fixes)</title>
<path fill="none" stroke="#000000" d="M351.9731,-360.2022C359.36,-351.4832 368.3847,-340.8311 376.4724,-331.2849"/>
<polygon fill="#000000" stroke="#000000" points="379.1954,-333.4854 382.9892,-323.593 373.8545,-328.9604 379.1954,-333.4854"/>
</g>
<!-- norm (fixes)&#45;&gt;map_brainmask (fixes) -->
<g id="edge12" class="edge">
<title>norm (fixes)&#45;&gt;map_brainmask (fixes)</title>
<path fill="none" stroke="#000000" d="M405.2123,-287.8314C408.382,-279.9617 412.1643,-270.5712 415.6757,-261.8533"/>
<polygon fill="#000000" stroke="#000000" points="418.9883,-262.9968 419.4779,-252.4133 412.4952,-260.3815 418.9883,-262.9968"/>
</g>
<!-- norm (fixes)&#45;&gt;map_wmmask (fixes) -->
<g id="edge13" class="edge">
<title>norm (fixes)&#45;&gt;map_wmmask (fixes)</title>
<path fill="none" stroke="#000000" d="M355.8702,-291.861C323.3814,-280.9302 278.0302,-265.6719 242.056,-253.5684"/>
<polygon fill="#000000" stroke="#000000" points="242.7706,-250.1161 232.1766,-250.2445 240.5384,-256.7507 242.7706,-250.1161"/>
</g>
<!-- thr_brainmask (ants) -->
<g id="node11" class="node">
<title>thr_brainmask (ants)</title>
<ellipse fill="none" stroke="#000000" cx="388.8944" cy="-162" rx="108.5808" ry="18"/>
<text text-anchor="middle" x="388.8944" y="-158.3" font-family="Times,serif" font-size="14.00" fill="#000000">thr_brainmask (ants)</text>
</g>
<!-- map_brainmask (fixes)&#45;&gt;thr_brainmask (ants) -->
<g id="edge14" class="edge">
<title>map_brainmask (fixes)&#45;&gt;thr_brainmask (ants)</title>
<path fill="none" stroke="#000000" d="M417.3054,-215.8314C413.0626,-207.7925 407.9823,-198.1666 403.2984,-189.2918"/>
<polygon fill="#000000" stroke="#000000" points="406.3755,-187.6235 398.6125,-180.4133 400.1848,-190.8908 406.3755,-187.6235"/>
</g>
<!-- map_wmmask (fixes)&#45;&gt;inu_n4_final (ants) -->
<g id="edge15" class="edge">
<title>map_wmmask (fixes)&#45;&gt;inu_n4_final (ants)</title>
<path fill="none" stroke="#000000" d="M169.5109,-215.8314C162.8448,-207.411 154.8002,-197.2495 147.5045,-188.0338"/>
<polygon fill="#000000" stroke="#000000" points="150.0271,-185.5814 141.0758,-179.9134 144.5387,-189.9264 150.0271,-185.5814"/>
</g>
<!-- map_wmmask (fixes)&#45;&gt;atropos_wf -->
<g id="edge16" class="edge">
<title>map_wmmask (fixes)&#45;&gt;atropos_wf</title>
<path fill="none" stroke="#000000" d="M206.3124,-216.2316C216.4992,-206.71 227.4686,-194.0536 232.8944,-180 238.6571,-165.0738 239.9525,-158.3591 232.8944,-144 226.3564,-130.699 214.7911,-119.7492 202.9214,-111.2693"/>
<polygon fill="#000000" stroke="#000000" points="204.5576,-108.1542 194.2921,-105.5328 200.6823,-113.9837 204.5576,-108.1542"/>
</g>
<!-- outputnode (utility) -->
<g id="node19" class="node">
<title>outputnode (utility)</title>
<ellipse fill="none" stroke="#000000" cx="162.8944" cy="-18" rx="101.2821" ry="18"/>
<text text-anchor="middle" x="162.8944" y="-14.3" font-family="Times,serif" font-size="14.00" fill="#000000">outputnode (utility)</text>
</g>
<!-- atropos_wf&#45;&gt;outputnode (utility) -->
<g id="edge17" class="edge">
<title>atropos_wf&#45;&gt;outputnode (utility)</title>
<path fill="none" stroke="#000000" d="M162.8944,-71.8314C162.8944,-64.131 162.8944,-54.9743 162.8944,-46.4166"/>
<polygon fill="#000000" stroke="#000000" points="166.3945,-46.4132 162.8944,-36.4133 159.3945,-46.4133 166.3945,-46.4132"/>
</g>
<!-- res_target (images) -->
<g id="node12" class="node">
<title>res_target (images)</title>
<ellipse fill="none" stroke="#000000" cx="491.8944" cy="-450" rx="102.0819" ry="18"/>
<text text-anchor="middle" x="491.8944" y="-446.3" font-family="Times,serif" font-size="14.00" fill="#000000">res_target (images)</text>
</g>
<!-- inu_n4 (ants)&#45;&gt;res_target (images) -->
<g id="edge18" class="edge">
<title>inu_n4 (ants)&#45;&gt;res_target (images)</title>
<path fill="none" stroke="#000000" d="M540.827,-504.2022C533.0144,-495.5483 523.4826,-484.99 514.9142,-475.4988"/>
<polygon fill="#000000" stroke="#000000" points="517.3013,-472.9199 508.0022,-467.8425 512.1054,-477.6106 517.3013,-472.9199"/>
</g>
<!-- lap_target (ants) -->
<g id="node13" class="node">
<title>lap_target (ants)</title>
<ellipse fill="none" stroke="#000000" cx="737.8944" cy="-450" rx="88.2844" ry="18"/>
<text text-anchor="middle" x="737.8944" y="-446.3" font-family="Times,serif" font-size="14.00" fill="#000000">lap_target (ants)</text>
</g>
<!-- inu_n4 (ants)&#45;&gt;lap_target (ants) -->
<g id="edge19" class="edge">
<title>inu_n4 (ants)&#45;&gt;lap_target (ants)</title>
<path fill="none" stroke="#000000" d="M595.2798,-506.7307C622.2239,-496.0126 658.517,-481.5755 687.7475,-469.9479"/>
<polygon fill="#000000" stroke="#000000" points="689.3679,-473.0702 697.366,-466.1218 686.7805,-466.5659 689.3679,-473.0702"/>
</g>
<!-- mrg_target (utility) -->
<g id="node14" class="node">
<title>mrg_target (utility)</title>
<ellipse fill="none" stroke="#000000" cx="621.8944" cy="-378" rx="100.9827" ry="18"/>
<text text-anchor="middle" x="621.8944" y="-374.3" font-family="Times,serif" font-size="14.00" fill="#000000">mrg_target (utility)</text>
</g>
<!-- inu_n4 (ants)&#45;&gt;mrg_target (utility) -->
<g id="edge20" class="edge">
<title>inu_n4 (ants)&#45;&gt;mrg_target (utility)</title>
<path fill="none" stroke="#000000" d="M576.063,-504.1864C585.5093,-494.3803 596.2671,-481.4842 602.8944,-468 612.4334,-448.5914 617.1971,-424.5319 619.5684,-406.1732"/>
<polygon fill="#000000" stroke="#000000" points="623.0615,-406.4306 620.7061,-396.1009 616.1057,-405.6448 623.0615,-406.4306"/>
</g>
<!-- thr_brainmask (ants)&#45;&gt;atropos_wf -->
<g id="edge22" class="edge">
<title>thr_brainmask (ants)&#45;&gt;atropos_wf</title>
<path fill="none" stroke="#000000" d="M338.7377,-146.0209C301.7316,-134.2313 251.5409,-118.2414 214.2534,-106.3622"/>
<polygon fill="#000000" stroke="#000000" points="215.1755,-102.9827 204.5849,-103.2819 213.0506,-109.6524 215.1755,-102.9827"/>
</g>
<!-- thr_brainmask (ants)&#45;&gt;apply_mask (nibabel) -->
<g id="edge21" class="edge">
<title>thr_brainmask (ants)&#45;&gt;apply_mask (nibabel)</title>
<path fill="none" stroke="#000000" d="M384.3522,-143.8314C382.406,-136.0463 380.0876,-126.7729 377.9281,-118.1347"/>
<polygon fill="#000000" stroke="#000000" points="381.3186,-117.2658 375.4977,-108.4133 374.5276,-118.9636 381.3186,-117.2658"/>
</g>
<!-- res_target (images)&#45;&gt;init_aff (ants) -->
<g id="edge23" class="edge">
<title>res_target (images)&#45;&gt;init_aff (ants)</title>
<path fill="none" stroke="#000000" d="M455.5538,-433.1192C433.1197,-422.6982 404.2034,-409.2661 380.5328,-398.2707"/>
<polygon fill="#000000" stroke="#000000" points="381.955,-395.0723 371.4112,-394.0336 379.006,-401.4208 381.955,-395.0723"/>
</g>
<!-- lap_target (ants)&#45;&gt;mrg_target (utility) -->
<g id="edge24" class="edge">
<title>lap_target (ants)&#45;&gt;mrg_target (utility)</title>
<path fill="none" stroke="#000000" d="M710.1095,-432.7542C694.7269,-423.2064 675.4103,-411.2168 658.7772,-400.8927"/>
<polygon fill="#000000" stroke="#000000" points="660.1968,-397.6545 649.8546,-395.3546 656.5052,-403.602 660.1968,-397.6545"/>
</g>
<!-- mrg_target (utility)&#45;&gt;norm (fixes) -->
<g id="edge25" class="edge">
<title>mrg_target (utility)&#45;&gt;norm (fixes)</title>
<path fill="none" stroke="#000000" d="M572.7366,-362.1993C536.5611,-350.5714 487.4529,-334.7867 450.4912,-322.9061"/>
<polygon fill="#000000" stroke="#000000" points="451.4826,-319.5485 440.8912,-319.8204 449.3405,-326.2127 451.4826,-319.5485"/>
</g>
<!-- res_tmpl (images) -->
<g id="node15" class="node">
<title>res_tmpl (images)</title>
<ellipse fill="none" stroke="#000000" cx="276.8944" cy="-450" rx="94.7833" ry="18"/>
<text text-anchor="middle" x="276.8944" y="-446.3" font-family="Times,serif" font-size="14.00" fill="#000000">res_tmpl (images)</text>
</g>
<!-- res_tmpl (images)&#45;&gt;init_aff (ants) -->
<g id="edge26" class="edge">
<title>res_tmpl (images)&#45;&gt;init_aff (ants)</title>
<path fill="none" stroke="#000000" d="M291.7259,-432.2022C298.8654,-423.6348 307.5603,-413.2009 315.4078,-403.7839"/>
<polygon fill="#000000" stroke="#000000" points="318.3125,-405.7654 322.0256,-395.8425 312.9349,-401.2841 318.3125,-405.7654"/>
</g>
<!-- full_wm (utility) -->
<g id="node16" class="node">
<title>full_wm (utility)</title>
<ellipse fill="none" stroke="#000000" cx="190.8944" cy="-306" rx="85.2851" ry="18"/>
<text text-anchor="middle" x="190.8944" y="-302.3" font-family="Times,serif" font-size="14.00" fill="#000000">full_wm (utility)</text>
</g>
<!-- full_wm (utility)&#45;&gt;map_wmmask (fixes) -->
<g id="edge27" class="edge">
<title>full_wm (utility)&#45;&gt;map_wmmask (fixes)</title>
<path fill="none" stroke="#000000" d="M189.128,-287.8314C188.3793,-280.131 187.4891,-270.9743 186.6571,-262.4166"/>
<polygon fill="#000000" stroke="#000000" points="190.1359,-262.0276 185.6846,-252.4133 183.1687,-262.7051 190.1359,-262.0276"/>
</g>
<!-- lap_tmpl (ants) -->
<g id="node17" class="node">
<title>lap_tmpl (ants)</title>
<ellipse fill="none" stroke="#000000" cx="925.8944" cy="-450" rx="81.4863" ry="18"/>
<text text-anchor="middle" x="925.8944" y="-446.3" font-family="Times,serif" font-size="14.00" fill="#000000">lap_tmpl (ants)</text>
</g>
<!-- mrg_tmpl (utility) -->
<g id="node18" class="node">
<title>mrg_tmpl (utility)</title>
<ellipse fill="none" stroke="#000000" cx="873.8944" cy="-378" rx="93.6835" ry="18"/>
<text text-anchor="middle" x="873.8944" y="-374.3" font-family="Times,serif" font-size="14.00" fill="#000000">mrg_tmpl (utility)</text>
</g>
<!-- lap_tmpl (ants)&#45;&gt;mrg_tmpl (utility) -->
<g id="edge28" class="edge">
<title>lap_tmpl (ants)&#45;&gt;mrg_tmpl (utility)</title>
<path fill="none" stroke="#000000" d="M913.0405,-432.2022C906.9154,-423.7214 899.4694,-413.4115 892.7224,-404.0696"/>
<polygon fill="#000000" stroke="#000000" points="895.473,-401.9001 886.7807,-395.8425 889.7982,-405.9986 895.473,-401.9001"/>
</g>
<!-- mrg_tmpl (utility)&#45;&gt;norm (fixes) -->
<g id="edge29" class="edge">
<title>mrg_tmpl (utility)&#45;&gt;norm (fixes)</title>
<path fill="none" stroke="#000000" d="M800.3023,-366.8684C709.2151,-353.0905 555.2988,-329.8091 466.5526,-316.3853"/>
<polygon fill="#000000" stroke="#000000" points="467.0006,-312.9133 456.5896,-314.8783 465.9537,-319.8346 467.0006,-312.9133"/>
</g>
</g>
</svg>
