<?xml version="1.0" encoding="UTF-8" standalone="no"?>
<!DOCTYPE svg PUBLIC "-//W3C//DTD SVG 1.1//EN"
 "http://www.w3.org/Graphics/SVG/1.1/DTD/svg11.dtd">
<!-- Generated by graphviz version 2.40.1 (20161225.0304)
 -->
<!-- Title: structs Pages: 1 -->
<svg width="1284pt" height="935pt"
 viewBox="0.00 0.00 1283.50 935.00" xmlns="http://www.w3.org/2000/svg" xmlns:xlink="http://www.w3.org/1999/xlink">
<g id="graph0" class="graph" transform="scale(1 1) rotate(0) translate(4 931)">
<title>structs</title>
<polygon fill="#ffffff" stroke="transparent" points="-4,4 -4,-931 1279.5,-931 1279.5,4 -4,4"/>
<!-- n4_only_wfinputnode -->
<g id="node1" class="node">
<title>n4_only_wfinputnode</title>
<polygon fill="none" stroke="#000000" points="0,-857.5 0,-926.5 192,-926.5 192,-857.5 0,-857.5"/>
<text text-anchor="middle" x="17.5" y="-888.3" font-family="Times,serif" font-size="14.00" fill="#000000">IN</text>
<polyline fill="none" stroke="#000000" points="35,-857.5 35,-926.5 "/>
<text text-anchor="middle" x="79.5" y="-911.3" font-family="Times,serif" font-size="14.00" fill="#000000">inputnode</text>
<polyline fill="none" stroke="#000000" points="35,-903.5 124,-903.5 "/>
<text text-anchor="middle" x="79.5" y="-888.3" font-family="Times,serif" font-size="14.00" fill="#000000">utility</text>
<polyline fill="none" stroke="#000000" points="35,-880.5 124,-880.5 "/>
<text text-anchor="middle" x="79.5" y="-865.3" font-family="Times,serif" font-size="14.00" fill="#000000"> </text>
<polyline fill="none" stroke="#000000" points="124,-857.5 124,-926.5 "/>
<text text-anchor="middle" x="158" y="-905.8" font-family="Times,serif" font-size="14.00" fill="#000000">OUT</text>
<polyline fill="none" stroke="#000000" points="124,-892.5 192,-892.5 "/>
<text text-anchor="middle" x="158" y="-871.3" font-family="Times,serif" font-size="14.00" fill="#000000">in_files</text>
</g>
<!-- n4_only_wfinu_n4 -->
<g id="node2" class="node">
<title>n4_only_wfinu_n4</title>
<polygon fill="none" stroke="#000000" points="98.5,-645.5 98.5,-714.5 383.5,-714.5 383.5,-645.5 98.5,-645.5"/>
<text text-anchor="middle" x="151" y="-693.8" font-family="Times,serif" font-size="14.00" fill="#000000">IN</text>
<polyline fill="none" stroke="#000000" points="98.5,-680.5 203.5,-680.5 "/>
<text text-anchor="middle" x="151" y="-659.3" font-family="Times,serif" font-size="14.00" fill="#000000">input_image</text>
<polyline fill="none" stroke="#000000" points="203.5,-645.5 203.5,-714.5 "/>
<text text-anchor="middle" x="236" y="-699.3" font-family="Times,serif" font-size="14.00" fill="#000000">inu_n4</text>
<polyline fill="none" stroke="#000000" points="203.5,-691.5 268.5,-691.5 "/>
<text text-anchor="middle" x="236" y="-676.3" font-family="Times,serif" font-size="14.00" fill="#000000">ants</text>
<polyline fill="none" stroke="#000000" points="203.5,-668.5 268.5,-668.5 "/>
<text text-anchor="middle" x="236" y="-653.3" font-family="Times,serif" font-size="14.00" fill="#000000"> </text>
<polyline fill="none" stroke="#000000" points="268.5,-645.5 268.5,-714.5 "/>
<text text-anchor="middle" x="326" y="-693.8" font-family="Times,serif" font-size="14.00" fill="#000000">OUT</text>
<polyline fill="none" stroke="#000000" points="268.5,-680.5 383.5,-680.5 "/>
<text text-anchor="middle" x="326" y="-659.3" font-family="Times,serif" font-size="14.00" fill="#000000">output_image</text>
</g>
<!-- n4_only_wfinputnode&#45;&gt;n4_only_wfinu_n4 -->
<g id="edge10" class="edge">
<title>n4_only_wfinputnode:e&#45;&gt;n4_only_wfinu_n4:w</title>
<path fill="none" stroke="#000000" d="M192,-875C200,-875 194.3058,-864.6605 192,-857 170.1854,-784.5258 119.8146,-787.4742 98,-715 92.6919,-697.3649 81.1678,-674.8152 88.3999,-666.382"/>
<polygon fill="#000000" stroke="#000000" points="89.7312,-669.624 98,-663 87.4052,-663.0217 89.7312,-669.624"/>
</g>
<!-- n4_only_wfbinarize -->
<g id="node3" class="node">
<title>n4_only_wfbinarize</title>
<polygon fill="none" stroke="#000000" points="192,-751.5 192,-820.5 412,-820.5 412,-751.5 192,-751.5"/>
<text text-anchor="middle" x="222" y="-799.8" font-family="Times,serif" font-size="14.00" fill="#000000">IN</text>
<polyline fill="none" stroke="#000000" points="192,-786.5 252,-786.5 "/>
<text text-anchor="middle" x="222" y="-765.3" font-family="Times,serif" font-size="14.00" fill="#000000">in_file</text>
<polyline fill="none" stroke="#000000" points="252,-751.5 252,-820.5 "/>
<text text-anchor="middle" x="289" y="-805.3" font-family="Times,serif" font-size="14.00" fill="#000000">binarize</text>
<polyline fill="none" stroke="#000000" points="252,-797.5 326,-797.5 "/>
<text text-anchor="middle" x="289" y="-782.3" font-family="Times,serif" font-size="14.00" fill="#000000">nibabel</text>
<polyline fill="none" stroke="#000000" points="252,-774.5 326,-774.5 "/>
<text text-anchor="middle" x="289" y="-759.3" font-family="Times,serif" font-size="14.00" fill="#000000"> </text>
<polyline fill="none" stroke="#000000" points="326,-751.5 326,-820.5 "/>
<text text-anchor="middle" x="369" y="-799.8" font-family="Times,serif" font-size="14.00" fill="#000000">OUT</text>
<polyline fill="none" stroke="#000000" points="326,-786.5 412,-786.5 "/>
<text text-anchor="middle" x="369" y="-765.3" font-family="Times,serif" font-size="14.00" fill="#000000">out_mask</text>
</g>
<!-- n4_only_wfinputnode&#45;&gt;n4_only_wfbinarize -->
<g id="edge9" class="edge">
<title>n4_only_wfinputnode:e&#45;&gt;n4_only_wfbinarize:w</title>
<path fill="none" stroke="#000000" d="M192,-875C234.6944,-875 161.3134,-787.9434 182.2437,-771.6202"/>
<polygon fill="#000000" stroke="#000000" points="183.2501,-774.9741 192,-769 181.4344,-768.2136 183.2501,-774.9741"/>
</g>
<!-- n4_only_wfinu_n4_final -->
<g id="node8" class="node">
<title>n4_only_wfinu_n4_final</title>
<polygon fill="none" stroke="#000000" points="850.5,-198.5 850.5,-267.5 1185.5,-267.5 1185.5,-198.5 850.5,-198.5"/>
<text text-anchor="middle" x="908.5" y="-252.3" font-family="Times,serif" font-size="14.00" fill="#000000">IN</text>
<polyline fill="none" stroke="#000000" points="850.5,-244.5 966.5,-244.5 "/>
<text text-anchor="middle" x="908.5" y="-229.3" font-family="Times,serif" font-size="14.00" fill="#000000">input_image</text>
<polyline fill="none" stroke="#000000" points="850.5,-221.5 966.5,-221.5 "/>
<text text-anchor="middle" x="908.5" y="-206.3" font-family="Times,serif" font-size="14.00" fill="#000000">weight_image</text>
<polyline fill="none" stroke="#000000" points="966.5,-198.5 966.5,-267.5 "/>
<text text-anchor="middle" x="1018.5" y="-252.3" font-family="Times,serif" font-size="14.00" fill="#000000">inu_n4_final</text>
<polyline fill="none" stroke="#000000" points="966.5,-244.5 1070.5,-244.5 "/>
<text text-anchor="middle" x="1018.5" y="-229.3" font-family="Times,serif" font-size="14.00" fill="#000000">ants</text>
<polyline fill="none" stroke="#000000" points="966.5,-221.5 1070.5,-221.5 "/>
<text text-anchor="middle" x="1018.5" y="-206.3" font-family="Times,serif" font-size="14.00" fill="#000000"> </text>
<polyline fill="none" stroke="#000000" points="1070.5,-198.5 1070.5,-267.5 "/>
<text text-anchor="middle" x="1128" y="-252.3" font-family="Times,serif" font-size="14.00" fill="#000000">OUT</text>
<polyline fill="none" stroke="#000000" points="1070.5,-244.5 1185.5,-244.5 "/>
<text text-anchor="middle" x="1128" y="-229.3" font-family="Times,serif" font-size="14.00" fill="#000000">bias_image</text>
<polyline fill="none" stroke="#000000" points="1070.5,-221.5 1185.5,-221.5 "/>
<text text-anchor="middle" x="1128" y="-206.3" font-family="Times,serif" font-size="14.00" fill="#000000">output_image</text>
</g>
<!-- n4_only_wfinputnode&#45;&gt;n4_only_wfinu_n4_final -->
<g id="edge11" class="edge">
<title>n4_only_wfinputnode:e&#45;&gt;n4_only_wfinu_n4_final:w</title>
<path fill="none" stroke="#000000" d="M192,-875C289.9812,-875 1052,-777.9812 1052,-680 1052,-680 1052,-680 1052,-456.5 1052,-388.1418 1078.7434,-353.8788 1032,-304 975.6164,-243.8344 902.3436,-331.7115 850,-268 848.4378,-266.0985 847.2954,-252.5878 847.6526,-242.9222"/>
<polygon fill="#000000" stroke="#000000" points="851.1037,-243.5372 850,-233 844.2917,-241.9256 851.1037,-243.5372"/>
</g>
<!-- n4_only_wfatropos_wf -->
<g id="node6" class="node">
<title>n4_only_wfatropos_wf</title>
<polygon fill="none" stroke="#000000" points="374,-410.5 374,-502.5 850,-502.5 850,-410.5 374,-410.5"/>
<text text-anchor="middle" x="478.5" y="-487.3" font-family="Times,serif" font-size="14.00" fill="#000000">IN</text>
<polyline fill="none" stroke="#000000" points="374,-479.5 583,-479.5 "/>
<text text-anchor="middle" x="478.5" y="-464.3" font-family="Times,serif" font-size="14.00" fill="#000000">inputnode.in_files</text>
<polyline fill="none" stroke="#000000" points="374,-456.5 583,-456.5 "/>
<text text-anchor="middle" x="478.5" y="-441.3" font-family="Times,serif" font-size="14.00" fill="#000000">inputnode.in_mask</text>
<polyline fill="none" stroke="#000000" points="374,-433.5 583,-433.5 "/>
<text text-anchor="middle" x="478.5" y="-418.3" font-family="Times,serif" font-size="14.00" fill="#000000">inputnode.in_mask_dilated</text>
<polyline fill="none" stroke="#000000" points="583,-410.5 583,-502.5 "/>
<text text-anchor="middle" x="630.5" y="-483.8" font-family="Times,serif" font-size="14.00" fill="#000000">atropos_wf</text>
<polyline fill="none" stroke="#000000" points="583,-472.5 678,-472.5 "/>
<text text-anchor="middle" x="630.5" y="-453.3" font-family="Times,serif" font-size="14.00" fill="#000000"> </text>
<polyline fill="none" stroke="#000000" points="583,-441.5 678,-441.5 "/>
<text text-anchor="middle" x="630.5" y="-422.3" font-family="Times,serif" font-size="14.00" fill="#000000"> </text>
<polyline fill="none" stroke="#000000" points="678,-410.5 678,-502.5 "/>
<text text-anchor="middle" x="764" y="-483.8" font-family="Times,serif" font-size="14.00" fill="#000000">OUT</text>
<polyline fill="none" stroke="#000000" points="678,-472.5 850,-472.5 "/>
<text text-anchor="middle" x="764" y="-453.3" font-family="Times,serif" font-size="14.00" fill="#000000">outputnode.out_segm</text>
<polyline fill="none" stroke="#000000" points="678,-441.5 850,-441.5 "/>
<text text-anchor="middle" x="764" y="-422.3" font-family="Times,serif" font-size="14.00" fill="#000000">outputnode.out_tpms</text>
</g>
<!-- n4_only_wfinu_n4&#45;&gt;n4_only_wfatropos_wf -->
<g id="edge12" class="edge">
<title>n4_only_wfinu_n4:e&#45;&gt;n4_only_wfatropos_wf:w</title>
<path fill="none" stroke="#000000" d="M384,-663C423.0528,-663 348.2462,-504.6334 365.0608,-473.7024"/>
<polygon fill="#000000" stroke="#000000" points="367.1176,-476.555 374,-468.5 363.5966,-470.505 367.1176,-476.555"/>
</g>
<!-- n4_only_wfdil_brainmask -->
<g id="node4" class="node">
<title>n4_only_wfdil_brainmask</title>
<polygon fill="none" stroke="#000000" points="440,-645.5 440,-714.5 716,-714.5 716,-645.5 440,-645.5"/>
<text text-anchor="middle" x="461.5" y="-693.8" font-family="Times,serif" font-size="14.00" fill="#000000">IN</text>
<polyline fill="none" stroke="#000000" points="440,-680.5 483,-680.5 "/>
<text text-anchor="middle" x="461.5" y="-659.3" font-family="Times,serif" font-size="14.00" fill="#000000">op1</text>
<polyline fill="none" stroke="#000000" points="483,-645.5 483,-714.5 "/>
<text text-anchor="middle" x="542" y="-699.3" font-family="Times,serif" font-size="14.00" fill="#000000">dil_brainmask</text>
<polyline fill="none" stroke="#000000" points="483,-691.5 601,-691.5 "/>
<text text-anchor="middle" x="542" y="-676.3" font-family="Times,serif" font-size="14.00" fill="#000000">ants</text>
<polyline fill="none" stroke="#000000" points="483,-668.5 601,-668.5 "/>
<text text-anchor="middle" x="542" y="-653.3" font-family="Times,serif" font-size="14.00" fill="#000000"> </text>
<polyline fill="none" stroke="#000000" points="601,-645.5 601,-714.5 "/>
<text text-anchor="middle" x="658.5" y="-693.8" font-family="Times,serif" font-size="14.00" fill="#000000">OUT</text>
<polyline fill="none" stroke="#000000" points="601,-680.5 716,-680.5 "/>
<text text-anchor="middle" x="658.5" y="-659.3" font-family="Times,serif" font-size="14.00" fill="#000000">output_image</text>
</g>
<!-- n4_only_wfbinarize&#45;&gt;n4_only_wfdil_brainmask -->
<g id="edge5" class="edge">
<title>n4_only_wfbinarize:e&#45;&gt;n4_only_wfdil_brainmask:w</title>
<path fill="none" stroke="#000000" d="M412,-769C432.8422,-769 420.686,-691.4264 431.9896,-669.0027"/>
<polygon fill="#000000" stroke="#000000" points="434.0964,-671.7977 440,-663 429.8987,-666.1959 434.0964,-671.7977"/>
</g>
<!-- n4_only_wfbinarize&#45;&gt;n4_only_wfatropos_wf -->
<g id="edge4" class="edge">
<title>n4_only_wfbinarize:e&#45;&gt;n4_only_wfatropos_wf:w</title>
<path fill="none" stroke="#000000" d="M412,-769C416.0164,-769 440.697,-677.6095 396,-539 390.2452,-521.1538 379.0787,-521.0502 374,-503 368.1683,-482.2735 354.1648,-455.7565 364.2893,-447.2536"/>
<polygon fill="#000000" stroke="#000000" points="365.3341,-450.5953 374,-444.5 363.4245,-443.8609 365.3341,-450.5953"/>
</g>
<!-- n4_only_wfoutputnode -->
<g id="node9" class="node">
<title>n4_only_wfoutputnode</title>
<polygon fill="none" stroke="#000000" points="1004.5,-.5 1004.5,-161.5 1275.5,-161.5 1275.5,-.5 1004.5,-.5"/>
<text text-anchor="middle" x="1066" y="-146.3" font-family="Times,serif" font-size="14.00" fill="#000000">IN</text>
<polyline fill="none" stroke="#000000" points="1004.5,-138.5 1127.5,-138.5 "/>
<text text-anchor="middle" x="1066" y="-123.3" font-family="Times,serif" font-size="14.00" fill="#000000">bias_corrected</text>
<polyline fill="none" stroke="#000000" points="1004.5,-115.5 1127.5,-115.5 "/>
<text text-anchor="middle" x="1066" y="-100.3" font-family="Times,serif" font-size="14.00" fill="#000000">bias_image</text>
<polyline fill="none" stroke="#000000" points="1004.5,-92.5 1127.5,-92.5 "/>
<text text-anchor="middle" x="1066" y="-77.3" font-family="Times,serif" font-size="14.00" fill="#000000">out_file</text>
<polyline fill="none" stroke="#000000" points="1004.5,-69.5 1127.5,-69.5 "/>
<text text-anchor="middle" x="1066" y="-54.3" font-family="Times,serif" font-size="14.00" fill="#000000">out_mask</text>
<polyline fill="none" stroke="#000000" points="1004.5,-46.5 1127.5,-46.5 "/>
<text text-anchor="middle" x="1066" y="-31.3" font-family="Times,serif" font-size="14.00" fill="#000000">out_segm</text>
<polyline fill="none" stroke="#000000" points="1004.5,-23.5 1127.5,-23.5 "/>
<text text-anchor="middle" x="1066" y="-8.3" font-family="Times,serif" font-size="14.00" fill="#000000">out_tpms</text>
<polyline fill="none" stroke="#000000" points="1127.5,-.5 1127.5,-161.5 "/>
<text text-anchor="middle" x="1176.5" y="-131.3" font-family="Times,serif" font-size="14.00" fill="#000000">outputnode</text>
<polyline fill="none" stroke="#000000" points="1127.5,-108.5 1225.5,-108.5 "/>
<text text-anchor="middle" x="1176.5" y="-77.8" font-family="Times,serif" font-size="14.00" fill="#000000">utility</text>
<polyline fill="none" stroke="#000000" points="1127.5,-54.5 1225.5,-54.5 "/>
<text text-anchor="middle" x="1176.5" y="-23.8" font-family="Times,serif" font-size="14.00" fill="#000000"> </text>
<polyline fill="none" stroke="#000000" points="1225.5,-.5 1225.5,-161.5 "/>
<text text-anchor="middle" x="1250.5" y="-77.3" font-family="Times,serif" font-size="14.00" fill="#000000">OUT</text>
</g>
<!-- n4_only_wfbinarize&#45;&gt;n4_only_wfoutputnode -->
<g id="edge6" class="edge">
<title>n4_only_wfbinarize:e&#45;&gt;n4_only_wfoutputnode:w</title>
<path fill="none" stroke="#000000" d="M412,-769C420,-769 417.3344,-756.9619 412,-751 363.8426,-697.177 140.6514,-765.4795 89,-715 43.7774,-670.8034 70,-637.2331 70,-574 70,-574 70,-574 70,-339 70,-125.5353 765.7051,-59.9801 993.8177,-58.0445"/>
<polygon fill="#000000" stroke="#000000" points="994.0154,-61.5437 1004,-58 993.9848,-54.5438 994.0154,-61.5437"/>
</g>
<!-- n4_only_wfget_brainmask -->
<g id="node5" class="node">
<title>n4_only_wfget_brainmask</title>
<polygon fill="none" stroke="#000000" points="578.5,-539.5 578.5,-608.5 859.5,-608.5 859.5,-539.5 578.5,-539.5"/>
<text text-anchor="middle" x="600" y="-587.8" font-family="Times,serif" font-size="14.00" fill="#000000">IN</text>
<polyline fill="none" stroke="#000000" points="578.5,-574.5 621.5,-574.5 "/>
<text text-anchor="middle" x="600" y="-553.3" font-family="Times,serif" font-size="14.00" fill="#000000">op1</text>
<polyline fill="none" stroke="#000000" points="621.5,-539.5 621.5,-608.5 "/>
<text text-anchor="middle" x="683" y="-593.3" font-family="Times,serif" font-size="14.00" fill="#000000">get_brainmask</text>
<polyline fill="none" stroke="#000000" points="621.5,-585.5 744.5,-585.5 "/>
<text text-anchor="middle" x="683" y="-570.3" font-family="Times,serif" font-size="14.00" fill="#000000">ants</text>
<polyline fill="none" stroke="#000000" points="621.5,-562.5 744.5,-562.5 "/>
<text text-anchor="middle" x="683" y="-547.3" font-family="Times,serif" font-size="14.00" fill="#000000"> </text>
<polyline fill="none" stroke="#000000" points="744.5,-539.5 744.5,-608.5 "/>
<text text-anchor="middle" x="802" y="-587.8" font-family="Times,serif" font-size="14.00" fill="#000000">OUT</text>
<polyline fill="none" stroke="#000000" points="744.5,-574.5 859.5,-574.5 "/>
<text text-anchor="middle" x="802" y="-553.3" font-family="Times,serif" font-size="14.00" fill="#000000">output_image</text>
</g>
<!-- n4_only_wfdil_brainmask&#45;&gt;n4_only_wfget_brainmask -->
<g id="edge7" class="edge">
<title>n4_only_wfdil_brainmask:e&#45;&gt;n4_only_wfget_brainmask:w</title>
<path fill="none" stroke="#000000" d="M716,-663C724,-663 720.8911,-651.3307 716,-645 677.2469,-594.8405 616.7531,-659.1595 578,-609 566.5196,-594.1405 558.4379,-569.0996 568.2071,-560.2316"/>
<polygon fill="#000000" stroke="#000000" points="569.6005,-563.4575 578,-557 567.4069,-556.8101 569.6005,-563.4575"/>
</g>
<!-- n4_only_wfget_brainmask&#45;&gt;n4_only_wfatropos_wf -->
<g id="edge8" class="edge">
<title>n4_only_wfget_brainmask:e&#45;&gt;n4_only_wfatropos_wf:w</title>
<path fill="none" stroke="#000000" d="M860,-557C868,-557 865.4439,-544.8621 860,-539 786.3059,-459.6452 447.6941,-582.3548 374,-503 351.9509,-479.2572 340.3645,-432.7766 364.0933,-423.2362"/>
<polygon fill="#000000" stroke="#000000" points="364.7543,-426.6738 374,-421.5 363.5459,-419.7789 364.7543,-426.6738"/>
</g>
<!-- n4_only_wfsel_wm -->
<g id="node7" class="node">
<title>n4_only_wfsel_wm</title>
<polygon fill="none" stroke="#000000" points="850.5,-304.5 850.5,-373.5 1023.5,-373.5 1023.5,-304.5 850.5,-304.5"/>
<text text-anchor="middle" x="877" y="-352.8" font-family="Times,serif" font-size="14.00" fill="#000000">IN</text>
<polyline fill="none" stroke="#000000" points="850.5,-339.5 903.5,-339.5 "/>
<text text-anchor="middle" x="877" y="-318.3" font-family="Times,serif" font-size="14.00" fill="#000000">inlist</text>
<polyline fill="none" stroke="#000000" points="903.5,-304.5 903.5,-373.5 "/>
<text text-anchor="middle" x="938.5" y="-358.3" font-family="Times,serif" font-size="14.00" fill="#000000">sel_wm</text>
<polyline fill="none" stroke="#000000" points="903.5,-350.5 973.5,-350.5 "/>
<text text-anchor="middle" x="938.5" y="-335.3" font-family="Times,serif" font-size="14.00" fill="#000000">utility</text>
<polyline fill="none" stroke="#000000" points="903.5,-327.5 973.5,-327.5 "/>
<text text-anchor="middle" x="938.5" y="-312.3" font-family="Times,serif" font-size="14.00" fill="#000000"> </text>
<polyline fill="none" stroke="#000000" points="973.5,-304.5 973.5,-373.5 "/>
<text text-anchor="middle" x="998.5" y="-352.8" font-family="Times,serif" font-size="14.00" fill="#000000">OUT</text>
<polyline fill="none" stroke="#000000" points="973.5,-339.5 1023.5,-339.5 "/>
<text text-anchor="middle" x="998.5" y="-318.3" font-family="Times,serif" font-size="14.00" fill="#000000">out</text>
</g>
<!-- n4_only_wfatropos_wf&#45;&gt;n4_only_wfsel_wm -->
<g id="edge3" class="edge">
<title>n4_only_wfatropos_wf:e&#45;&gt;n4_only_wfsel_wm:w</title>
<path fill="none" stroke="#000000" d="M850,-425.5C850,-425.5 850,-358.4815 850,-332.3024"/>
<polygon fill="#000000" stroke="#000000" points="853.5001,-332 850,-322 846.5001,-332 853.5001,-332"/>
</g>
<!-- n4_only_wfatropos_wf&#45;&gt;n4_only_wfoutputnode -->
<g id="edge1" class="edge">
<title>n4_only_wfatropos_wf:e&#45;&gt;n4_only_wfoutputnode:w</title>
<path fill="none" stroke="#000000" d="M850,-457.5C871.1111,-457.5 858.8214,-429.1797 850,-410 839.7268,-387.6638 818.2732,-396.3362 808,-374 775.3143,-302.9341 774.786,-268.8205 808,-198 854.6513,-98.5276 888.5946,-38.697 993.924,-35.1656"/>
<polygon fill="#000000" stroke="#000000" points="994.0589,-38.664 1004,-35 993.9438,-31.6649 994.0589,-38.664"/>
</g>
<!-- n4_only_wfatropos_wf&#45;&gt;n4_only_wfoutputnode -->
<g id="edge2" class="edge">
<title>n4_only_wfatropos_wf:e&#45;&gt;n4_only_wfoutputnode:w</title>
<path fill="none" stroke="#000000" d="M850,-425.5C856.8889,-425.5 850.8417,-416.8373 850,-410 847.9849,-393.6311 843.0151,-390.3689 841,-374 831.4426,-296.3639 813.4593,-271.2136 841,-198 878.4909,-98.3351 893.1594,-17.2143 993.9714,-12.2416"/>
<polygon fill="#000000" stroke="#000000" points="994.0872,-15.7399 1004,-12 993.9186,-8.7419 994.0872,-15.7399"/>
</g>
<!-- n4_only_wfsel_wm&#45;&gt;n4_only_wfinu_n4_final -->
<g id="edge16" class="edge">
<title>n4_only_wfsel_wm:e&#45;&gt;n4_only_wfinu_n4_final:w</title>
<path fill="none" stroke="#000000" d="M1024,-322C1032,-322 1029.0514,-310.2035 1024,-304 974.1357,-242.7628 899.8643,-329.2372 850,-268 843.8962,-260.5041 839.6981,-231.6271 843.418,-217.657"/>
<polygon fill="#000000" stroke="#000000" points="846.1355,-219.8649 850,-210 840.8271,-215.3018 846.1355,-219.8649"/>
</g>
<!-- n4_only_wfinu_n4_final&#45;&gt;n4_only_wfoutputnode -->
<g id="edge13" class="edge">
<title>n4_only_wfinu_n4_final:e&#45;&gt;n4_only_wfoutputnode:w</title>
<path fill="none" stroke="#000000" d="M1186,-233C1201.5556,-233 1195.8748,-210.0193 1186,-198 1133.6564,-134.2885 1056.3436,-225.7115 1004,-162 990.3208,-145.35 981.4982,-116.0068 994.0295,-106.8267"/>
<polygon fill="#000000" stroke="#000000" points="995.3339,-110.095 1004,-104 993.4245,-103.3604 995.3339,-110.095"/>
</g>
<!-- n4_only_wfinu_n4_final&#45;&gt;n4_only_wfoutputnode -->
<g id="edge14" class="edge">
<title>n4_only_wfinu_n4_final:e&#45;&gt;n4_only_wfoutputnode:w</title>
<path fill="none" stroke="#000000" d="M1186,-210C1191.3333,-210 1189.3856,-202.1209 1186,-198 1133.6564,-134.2885 1056.3436,-225.7115 1004,-162 997.0568,-153.5489 992.1871,-139.6787 995.3149,-132.1881"/>
<polygon fill="#000000" stroke="#000000" points="997.21,-135.133 1004,-127 993.6202,-129.1236 997.21,-135.133"/>
</g>
<!-- n4_only_wfinu_n4_final&#45;&gt;n4_only_wfoutputnode -->
<g id="edge15" class="edge">
<title>n4_only_wfinu_n4_final:e&#45;&gt;n4_only_wfoutputnode:w</title>
<path fill="none" stroke="#000000" d="M1186,-210C1191.3333,-210 1189.3856,-202.1209 1186,-198 1133.6564,-134.2885 1056.3436,-225.7115 1004,-162 983.6465,-137.2262 970.992,-92.3305 993.8997,-82.8059"/>
<polygon fill="#000000" stroke="#000000" points="994.7722,-86.2055 1004,-81 993.5401,-79.3148 994.7722,-86.2055"/>
</g>
</g>
</svg>
