<?xml version="1.0" encoding="UTF-8" standalone="no"?>
<!DOCTYPE svg PUBLIC "-//W3C//DTD SVG 1.1//EN"
 "http://www.w3.org/Graphics/SVG/1.1/DTD/svg11.dtd">
<!-- Generated by graphviz version 2.40.1 (20161225.0304)
 -->
<!-- Title: %3 Pages: 1 -->
<svg width="896pt" height="332pt"
 viewBox="0.00 0.00 895.53 332.00" xmlns="http://www.w3.org/2000/svg" xmlns:xlink="http://www.w3.org/1999/xlink">
<g id="graph0" class="graph" transform="scale(1 1) rotate(0) translate(4 328)">
<title>%3</title>
<polygon fill="#ffffff" stroke="transparent" points="-4,4 -4,-328 891.53,-328 891.53,4 -4,4"/>
<!-- inputnode (utility) -->
<g id="node1" class="node">
<title>inputnode (utility)</title>
<ellipse fill="none" stroke="#000000" cx="393.7422" cy="-306" rx="94.7833" ry="18"/>
<text text-anchor="middle" x="393.7422" y="-302.3" font-family="Times,serif" font-size="14.00" fill="#000000">inputnode (utility)</text>
</g>
<!-- val_bold (images) -->
<g id="node2" class="node">
<title>val_bold (images)</title>
<ellipse fill="none" stroke="#000000" cx="267.7422" cy="-234" rx="92.0841" ry="18"/>
<text text-anchor="middle" x="267.7422" y="-230.3" font-family="Times,serif" font-size="14.00" fill="#000000">val_bold (images)</text>
</g>
<!-- inputnode (utility)&#45;&gt;val_bold (images) -->
<g id="edge1" class="edge">
<title>inputnode (utility)&#45;&gt;val_bold (images)</title>
<path fill="none" stroke="#000000" d="M363.5621,-288.7542C346.4189,-278.9581 324.7773,-266.5915 306.4009,-256.0907"/>
<polygon fill="#000000" stroke="#000000" points="308.095,-253.0277 297.6761,-251.1051 304.622,-259.1054 308.095,-253.0277"/>
</g>
<!-- enhance_and_skullstrip_bold_wf -->
<g id="node3" class="node">
<title>enhance_and_skullstrip_bold_wf</title>
<ellipse fill="none" stroke="#000000" cx="393.7422" cy="-90" rx="161.6714" ry="18"/>
<text text-anchor="middle" x="393.7422" y="-86.3" font-family="Times,serif" font-size="14.00" fill="#000000">enhance_and_skullstrip_bold_wf</text>
</g>
<!-- inputnode (utility)&#45;&gt;enhance_and_skullstrip_bold_wf -->
<g id="edge2" class="edge">
<title>inputnode (utility)&#45;&gt;enhance_and_skullstrip_bold_wf</title>
<path fill="none" stroke="#000000" d="M393.7422,-287.9555C393.7422,-250.3938 393.7422,-163.5541 393.7422,-118.4103"/>
<polygon fill="#000000" stroke="#000000" points="397.2423,-118.145 393.7422,-108.1451 390.2423,-118.1451 397.2423,-118.145"/>
</g>
<!-- calc_dummy_scans (utility) -->
<g id="node4" class="node">
<title>calc_dummy_scans (utility)</title>
<ellipse fill="none" stroke="#000000" cx="749.7422" cy="-90" rx="137.5759" ry="18"/>
<text text-anchor="middle" x="749.7422" y="-86.3" font-family="Times,serif" font-size="14.00" fill="#000000">calc_dummy_scans (utility)</text>
</g>
<!-- inputnode (utility)&#45;&gt;calc_dummy_scans (utility) -->
<g id="edge3" class="edge">
<title>inputnode (utility)&#45;&gt;calc_dummy_scans (utility)</title>
<path fill="none" stroke="#000000" d="M446.1907,-290.888C506.1597,-271.838 605.2517,-234.8112 676.7422,-180 699.7259,-162.3786 719.944,-136.1168 733.2393,-116.5038"/>
<polygon fill="#000000" stroke="#000000" points="736.2551,-118.2884 738.8459,-108.0152 730.4141,-114.4305 736.2551,-118.2884"/>
</g>
<!-- gen_ref (registration) -->
<g id="node5" class="node">
<title>gen_ref (registration)</title>
<ellipse fill="none" stroke="#000000" cx="557.7422" cy="-162" rx="110.4804" ry="18"/>
<text text-anchor="middle" x="557.7422" y="-158.3" font-family="Times,serif" font-size="14.00" fill="#000000">gen_ref (registration)</text>
</g>
<!-- val_bold (images)&#45;&gt;gen_ref (registration) -->
<g id="edge4" class="edge">
<title>val_bold (images)&#45;&gt;gen_ref (registration)</title>
<path fill="none" stroke="#000000" d="M325.0369,-219.7751C371.617,-208.2104 437.5395,-191.8434 487.334,-179.4807"/>
<polygon fill="#000000" stroke="#000000" points="488.2054,-182.8707 497.0674,-177.0641 486.5186,-176.0769 488.2054,-182.8707"/>
</g>
<!-- bold_1st (utility) -->
<g id="node6" class="node">
<title>bold_1st (utility)</title>
<ellipse fill="none" stroke="#000000" cx="87.7422" cy="-90" rx="87.9851" ry="18"/>
<text text-anchor="middle" x="87.7422" y="-86.3" font-family="Times,serif" font-size="14.00" fill="#000000">bold_1st (utility)</text>
</g>
<!-- val_bold (images)&#45;&gt;bold_1st (utility) -->
<g id="edge5" class="edge">
<title>val_bold (images)&#45;&gt;bold_1st (utility)</title>
<path fill="none" stroke="#000000" d="M210.4718,-219.7704C185.6217,-211.3804 157.5178,-198.6528 136.7422,-180 117.9431,-163.1218 104.9225,-137.2748 97.0543,-117.6029"/>
<polygon fill="#000000" stroke="#000000" points="100.3206,-116.3452 93.5044,-108.2341 93.7747,-118.8255 100.3206,-116.3452"/>
</g>
<!-- validate_1st (utility) -->
<g id="node7" class="node">
<title>validate_1st (utility)</title>
<ellipse fill="none" stroke="#000000" cx="250.7422" cy="-162" rx="104.7816" ry="18"/>
<text text-anchor="middle" x="250.7422" y="-158.3" font-family="Times,serif" font-size="14.00" fill="#000000">validate_1st (utility)</text>
</g>
<!-- val_bold (images)&#45;&gt;validate_1st (utility) -->
<g id="edge6" class="edge">
<title>val_bold (images)&#45;&gt;validate_1st (utility)</title>
<path fill="none" stroke="#000000" d="M263.4524,-215.8314C261.6342,-208.131 259.4723,-198.9743 257.4517,-190.4166"/>
<polygon fill="#000000" stroke="#000000" points="260.7941,-189.3414 255.0898,-180.4133 253.9815,-190.95 260.7941,-189.3414"/>
</g>
<!-- outputnode (utility) -->
<g id="node8" class="node">
<title>outputnode (utility)</title>
<ellipse fill="none" stroke="#000000" cx="393.7422" cy="-18" rx="101.2821" ry="18"/>
<text text-anchor="middle" x="393.7422" y="-14.3" font-family="Times,serif" font-size="14.00" fill="#000000">outputnode (utility)</text>
</g>
<!-- enhance_and_skullstrip_bold_wf&#45;&gt;outputnode (utility) -->
<g id="edge7" class="edge">
<title>enhance_and_skullstrip_bold_wf&#45;&gt;outputnode (utility)</title>
<path fill="none" stroke="#000000" d="M393.7422,-71.8314C393.7422,-64.131 393.7422,-54.9743 393.7422,-46.4166"/>
<polygon fill="#000000" stroke="#000000" points="397.2423,-46.4132 393.7422,-36.4133 390.2423,-46.4133 397.2423,-46.4132"/>
</g>
<!-- calc_dummy_scans (utility)&#45;&gt;outputnode (utility) -->
<g id="edge8" class="edge">
<title>calc_dummy_scans (utility)&#45;&gt;outputnode (utility)</title>
<path fill="none" stroke="#000000" d="M674.6788,-74.8186C614.7746,-62.7032 531.1718,-45.7948 470.76,-33.5766"/>
<polygon fill="#000000" stroke="#000000" points="471.3897,-30.1332 460.8943,-31.5813 470.002,-36.9943 471.3897,-30.1332"/>
</g>
<!-- gen_ref (registration)&#45;&gt;enhance_and_skullstrip_bold_wf -->
<g id="edge9" class="edge">
<title>gen_ref (registration)&#45;&gt;enhance_and_skullstrip_bold_wf</title>
<path fill="none" stroke="#000000" d="M519.2915,-145.1192C496.5577,-135.1385 467.5327,-122.3958 443.118,-111.6772"/>
<polygon fill="#000000" stroke="#000000" points="444.2279,-108.3421 433.6645,-107.5269 441.414,-114.7516 444.2279,-108.3421"/>
</g>
<!-- gen_ref (registration)&#45;&gt;calc_dummy_scans (utility) -->
<g id="edge10" class="edge">
<title>gen_ref (registration)&#45;&gt;calc_dummy_scans (utility)</title>
<path fill="none" stroke="#000000" d="M601.7909,-145.4817C629.3437,-135.1494 665.0668,-121.7533 694.5078,-110.7129"/>
<polygon fill="#000000" stroke="#000000" points="696.0961,-113.8554 704.2304,-107.0669 693.6382,-107.3011 696.0961,-113.8554"/>
</g>
<!-- gen_ref (registration)&#45;&gt;outputnode (utility) -->
<g id="edge11" class="edge">
<title>gen_ref (registration)&#45;&gt;outputnode (utility)</title>
<path fill="none" stroke="#000000" d="M565.5615,-143.8748C572.7017,-124.2161 580.0283,-92.8574 564.7422,-72 553.2056,-56.2587 511.9544,-42.9839 472.861,-33.5352"/>
<polygon fill="#000000" stroke="#000000" points="473.5232,-30.0956 462.9878,-31.2163 471.9226,-36.9102 473.5232,-30.0956"/>
</g>
<!-- bold_1st (utility)&#45;&gt;outputnode (utility) -->
<g id="edge12" class="edge">
<title>bold_1st (utility)&#45;&gt;outputnode (utility)</title>
<path fill="none" stroke="#000000" d="M145.6582,-76.3727C195.979,-64.5325 269.0346,-47.343 322.8422,-34.6824"/>
<polygon fill="#000000" stroke="#000000" points="323.7229,-38.0708 332.6554,-32.3734 322.1196,-31.2569 323.7229,-38.0708"/>
</g>
<!-- validate_1st (utility)&#45;&gt;outputnode (utility) -->
<g id="edge13" class="edge">
<title>validate_1st (utility)&#45;&gt;outputnode (utility)</title>
<path fill="none" stroke="#000000" d="M236.3463,-143.8705C222.8313,-124.4939 206.8784,-93.6457 222.7422,-72 234.2788,-56.2587 275.53,-42.9839 314.6235,-33.5352"/>
<polygon fill="#000000" stroke="#000000" points="315.5618,-36.9102 324.4966,-31.2163 313.9612,-30.0956 315.5618,-36.9102"/>
</g>
</g>
</svg>
