<?xml version="1.0" encoding="UTF-8" standalone="no"?>
<!DOCTYPE svg PUBLIC "-//W3C//DTD SVG 1.1//EN"
 "http://www.w3.org/Graphics/SVG/1.1/DTD/svg11.dtd">
<!-- Generated by graphviz version 2.40.1 (20161225.0304)
 -->
<!-- Title: structs Pages: 1 -->
<svg width="994pt" height="1820pt"
 viewBox="0.00 0.00 993.50 1820.00" xmlns="http://www.w3.org/2000/svg" xmlns:xlink="http://www.w3.org/1999/xlink">
<g id="graph0" class="graph" transform="scale(1 1) rotate(0) translate(4 1816)">
<title>structs</title>
<polygon fill="#ffffff" stroke="transparent" points="-4,4 -4,-1816 989.5,-1816 989.5,4 -4,4"/>
<!-- enhance_and_skullstrip_bold_wfinputnode -->
<g id="node1" class="node">
<title>enhance_and_skullstrip_bold_wfinputnode</title>
<polygon fill="none" stroke="#000000" points="278,-1742.5 278,-1811.5 462,-1811.5 462,-1742.5 278,-1742.5"/>
<text text-anchor="middle" x="295.5" y="-1773.3" font-family="Times,serif" font-size="14.00" fill="#000000">IN</text>
<polyline fill="none" stroke="#000000" points="313,-1742.5 313,-1811.5 "/>
<text text-anchor="middle" x="357.5" y="-1796.3" font-family="Times,serif" font-size="14.00" fill="#000000">inputnode</text>
<polyline fill="none" stroke="#000000" points="313,-1788.5 402,-1788.5 "/>
<text text-anchor="middle" x="357.5" y="-1773.3" font-family="Times,serif" font-size="14.00" fill="#000000">utility</text>
<polyline fill="none" stroke="#000000" points="313,-1765.5 402,-1765.5 "/>
<text text-anchor="middle" x="357.5" y="-1750.3" font-family="Times,serif" font-size="14.00" fill="#000000"> </text>
<polyline fill="none" stroke="#000000" points="402,-1742.5 402,-1811.5 "/>
<text text-anchor="middle" x="432" y="-1790.8" font-family="Times,serif" font-size="14.00" fill="#000000">OUT</text>
<polyline fill="none" stroke="#000000" points="402,-1777.5 462,-1777.5 "/>
<text text-anchor="middle" x="432" y="-1756.3" font-family="Times,serif" font-size="14.00" fill="#000000">in_file</text>
</g>
<!-- enhance_and_skullstrip_bold_wfinit_aff -->
<g id="node2" class="node">
<title>enhance_and_skullstrip_bold_wfinit_aff</title>
<polygon fill="none" stroke="#000000" points="104,-1636.5 104,-1705.5 434,-1705.5 434,-1636.5 104,-1636.5"/>
<text text-anchor="middle" x="164" y="-1684.8" font-family="Times,serif" font-size="14.00" fill="#000000">IN</text>
<polyline fill="none" stroke="#000000" points="104,-1671.5 224,-1671.5 "/>
<text text-anchor="middle" x="164" y="-1650.3" font-family="Times,serif" font-size="14.00" fill="#000000">moving_image</text>
<polyline fill="none" stroke="#000000" points="224,-1636.5 224,-1705.5 "/>
<text text-anchor="middle" x="257.5" y="-1690.3" font-family="Times,serif" font-size="14.00" fill="#000000">init_aff</text>
<polyline fill="none" stroke="#000000" points="224,-1682.5 291,-1682.5 "/>
<text text-anchor="middle" x="257.5" y="-1667.3" font-family="Times,serif" font-size="14.00" fill="#000000">ants</text>
<polyline fill="none" stroke="#000000" points="224,-1659.5 291,-1659.5 "/>
<text text-anchor="middle" x="257.5" y="-1644.3" font-family="Times,serif" font-size="14.00" fill="#000000"> </text>
<polyline fill="none" stroke="#000000" points="291,-1636.5 291,-1705.5 "/>
<text text-anchor="middle" x="362.5" y="-1684.8" font-family="Times,serif" font-size="14.00" fill="#000000">OUT</text>
<polyline fill="none" stroke="#000000" points="291,-1671.5 434,-1671.5 "/>
<text text-anchor="middle" x="362.5" y="-1650.3" font-family="Times,serif" font-size="14.00" fill="#000000">output_transform</text>
</g>
<!-- enhance_and_skullstrip_bold_wfinputnode&#45;&gt;enhance_and_skullstrip_bold_wfinit_aff -->
<g id="edge12" class="edge">
<title>enhance_and_skullstrip_bold_wfinputnode:e&#45;&gt;enhance_and_skullstrip_bold_wfinit_aff:w</title>
<path fill="none" stroke="#000000" d="M462,-1760C470,-1760 467.3664,-1747.9331 462,-1742 408.365,-1682.701 157.635,-1765.299 104,-1706 98.3681,-1699.7733 94.8199,-1675.1444 97.7327,-1662.1409"/>
<polygon fill="#000000" stroke="#000000" points="100.6732,-1664.059 104,-1654 95.1264,-1659.7888 100.6732,-1664.059"/>
</g>
<!-- enhance_and_skullstrip_bold_wfnorm -->
<g id="node3" class="node">
<title>enhance_and_skullstrip_bold_wfnorm</title>
<polygon fill="none" stroke="#000000" points="104,-1530.5 104,-1599.5 518,-1599.5 518,-1530.5 104,-1530.5"/>
<text text-anchor="middle" x="202.5" y="-1584.3" font-family="Times,serif" font-size="14.00" fill="#000000">IN</text>
<polyline fill="none" stroke="#000000" points="104,-1576.5 301,-1576.5 "/>
<text text-anchor="middle" x="202.5" y="-1561.3" font-family="Times,serif" font-size="14.00" fill="#000000">initial_moving_transform</text>
<polyline fill="none" stroke="#000000" points="104,-1553.5 301,-1553.5 "/>
<text text-anchor="middle" x="202.5" y="-1538.3" font-family="Times,serif" font-size="14.00" fill="#000000">moving_image</text>
<polyline fill="none" stroke="#000000" points="301,-1530.5 301,-1599.5 "/>
<text text-anchor="middle" x="328" y="-1584.3" font-family="Times,serif" font-size="14.00" fill="#000000">norm</text>
<polyline fill="none" stroke="#000000" points="301,-1576.5 355,-1576.5 "/>
<text text-anchor="middle" x="328" y="-1561.3" font-family="Times,serif" font-size="14.00" fill="#000000">fixes</text>
<polyline fill="none" stroke="#000000" points="301,-1553.5 355,-1553.5 "/>
<text text-anchor="middle" x="328" y="-1538.3" font-family="Times,serif" font-size="14.00" fill="#000000"> </text>
<polyline fill="none" stroke="#000000" points="355,-1530.5 355,-1599.5 "/>
<text text-anchor="middle" x="436.5" y="-1584.3" font-family="Times,serif" font-size="14.00" fill="#000000">OUT</text>
<polyline fill="none" stroke="#000000" points="355,-1576.5 518,-1576.5 "/>
<text text-anchor="middle" x="436.5" y="-1561.3" font-family="Times,serif" font-size="14.00" fill="#000000">reverse_invert_flags</text>
<polyline fill="none" stroke="#000000" points="355,-1553.5 518,-1553.5 "/>
<text text-anchor="middle" x="436.5" y="-1538.3" font-family="Times,serif" font-size="14.00" fill="#000000">reverse_transforms</text>
</g>
<!-- enhance_and_skullstrip_bold_wfinputnode&#45;&gt;enhance_and_skullstrip_bold_wfnorm -->
<g id="edge15" class="edge">
<title>enhance_and_skullstrip_bold_wfinputnode:e&#45;&gt;enhance_and_skullstrip_bold_wfnorm:w</title>
<path fill="none" stroke="#000000" d="M462,-1760C475.7192,-1760 518.392,-1706.1809 443,-1636 387.5497,-1584.3824 154.6609,-1656.3257 104,-1600 97.5356,-1592.8128 93.5178,-1563.7814 97.3504,-1549.7149"/>
<polygon fill="#000000" stroke="#000000" points="100.1224,-1551.8598 104,-1542 94.8201,-1547.2896 100.1224,-1551.8598"/>
</g>
<!-- enhance_and_skullstrip_bold_wfmap_brainmask -->
<g id="node4" class="node">
<title>enhance_and_skullstrip_bold_wfmap_brainmask</title>
<polygon fill="none" stroke="#000000" points="219,-1401.5 219,-1493.5 645,-1493.5 645,-1401.5 219,-1401.5"/>
<text text-anchor="middle" x="309" y="-1478.3" font-family="Times,serif" font-size="14.00" fill="#000000">IN</text>
<polyline fill="none" stroke="#000000" points="219,-1470.5 399,-1470.5 "/>
<text text-anchor="middle" x="309" y="-1455.3" font-family="Times,serif" font-size="14.00" fill="#000000">invert_transform_flags</text>
<polyline fill="none" stroke="#000000" points="219,-1447.5 399,-1447.5 "/>
<text text-anchor="middle" x="309" y="-1432.3" font-family="Times,serif" font-size="14.00" fill="#000000">reference_image</text>
<polyline fill="none" stroke="#000000" points="219,-1424.5 399,-1424.5 "/>
<text text-anchor="middle" x="309" y="-1409.3" font-family="Times,serif" font-size="14.00" fill="#000000">transforms</text>
<polyline fill="none" stroke="#000000" points="399,-1401.5 399,-1493.5 "/>
<text text-anchor="middle" x="464.5" y="-1474.8" font-family="Times,serif" font-size="14.00" fill="#000000">map_brainmask</text>
<polyline fill="none" stroke="#000000" points="399,-1463.5 530,-1463.5 "/>
<text text-anchor="middle" x="464.5" y="-1444.3" font-family="Times,serif" font-size="14.00" fill="#000000">fixes</text>
<polyline fill="none" stroke="#000000" points="399,-1432.5 530,-1432.5 "/>
<text text-anchor="middle" x="464.5" y="-1413.3" font-family="Times,serif" font-size="14.00" fill="#000000"> </text>
<polyline fill="none" stroke="#000000" points="530,-1401.5 530,-1493.5 "/>
<text text-anchor="middle" x="587.5" y="-1466.8" font-family="Times,serif" font-size="14.00" fill="#000000">OUT</text>
<polyline fill="none" stroke="#000000" points="530,-1447.5 645,-1447.5 "/>
<text text-anchor="middle" x="587.5" y="-1420.8" font-family="Times,serif" font-size="14.00" fill="#000000">output_image</text>
</g>
<!-- enhance_and_skullstrip_bold_wfinputnode&#45;&gt;enhance_and_skullstrip_bold_wfmap_brainmask -->
<g id="edge13" class="edge">
<title>enhance_and_skullstrip_bold_wfinputnode:e&#45;&gt;enhance_and_skullstrip_bold_wfmap_brainmask:w</title>
<path fill="none" stroke="#000000" d="M462,-1760C568.2259,-1760 597.6186,-1609.3534 527,-1530 435.3773,-1427.0444 310.6227,-1596.9556 219,-1494 204.416,-1477.6121 195.9327,-1447.2318 209.2554,-1438.1381"/>
<polygon fill="#000000" stroke="#000000" points="210.2621,-1441.4916 219,-1435.5 208.4328,-1434.7348 210.2621,-1441.4916"/>
</g>
<!-- enhance_and_skullstrip_bold_wfcheck_hdr -->
<g id="node6" class="node">
<title>enhance_and_skullstrip_bold_wfcheck_hdr</title>
<polygon fill="none" stroke="#000000" points="524,-1189.5 524,-1258.5 772,-1258.5 772,-1189.5 524,-1189.5"/>
<text text-anchor="middle" x="567" y="-1243.3" font-family="Times,serif" font-size="14.00" fill="#000000">IN</text>
<polyline fill="none" stroke="#000000" points="524,-1235.5 610,-1235.5 "/>
<text text-anchor="middle" x="567" y="-1220.3" font-family="Times,serif" font-size="14.00" fill="#000000">in_file</text>
<polyline fill="none" stroke="#000000" points="524,-1212.5 610,-1212.5 "/>
<text text-anchor="middle" x="567" y="-1197.3" font-family="Times,serif" font-size="14.00" fill="#000000">reference</text>
<polyline fill="none" stroke="#000000" points="610,-1189.5 610,-1258.5 "/>
<text text-anchor="middle" x="656" y="-1243.3" font-family="Times,serif" font-size="14.00" fill="#000000">check_hdr</text>
<polyline fill="none" stroke="#000000" points="610,-1235.5 702,-1235.5 "/>
<text text-anchor="middle" x="656" y="-1220.3" font-family="Times,serif" font-size="14.00" fill="#000000">images</text>
<polyline fill="none" stroke="#000000" points="610,-1212.5 702,-1212.5 "/>
<text text-anchor="middle" x="656" y="-1197.3" font-family="Times,serif" font-size="14.00" fill="#000000"> </text>
<polyline fill="none" stroke="#000000" points="702,-1189.5 702,-1258.5 "/>
<text text-anchor="middle" x="737" y="-1237.8" font-family="Times,serif" font-size="14.00" fill="#000000">OUT</text>
<polyline fill="none" stroke="#000000" points="702,-1224.5 772,-1224.5 "/>
<text text-anchor="middle" x="737" y="-1203.3" font-family="Times,serif" font-size="14.00" fill="#000000">out_file</text>
</g>
<!-- enhance_and_skullstrip_bold_wfinputnode&#45;&gt;enhance_and_skullstrip_bold_wfcheck_hdr -->
<g id="edge9" class="edge">
<title>enhance_and_skullstrip_bold_wfinputnode:e&#45;&gt;enhance_and_skullstrip_bold_wfcheck_hdr:w</title>
<path fill="none" stroke="#000000" d="M462,-1760C589.6925,-1760 673,-1692.6925 673,-1565 673,-1565 673,-1565 673,-1447.5 673,-1408.7738 612.2658,-1313.4861 593,-1295 568.0416,-1271.0517 541.9306,-1288.5794 524,-1259 512.8296,-1240.5727 502.3214,-1212.4236 514.2321,-1203.6832"/>
<polygon fill="#000000" stroke="#000000" points="515.2843,-1207.0239 524,-1201 513.4301,-1200.2739 515.2843,-1207.0239"/>
</g>
<!-- enhance_and_skullstrip_bold_wfn4_correct -->
<g id="node7" class="node">
<title>enhance_and_skullstrip_bold_wfn4_correct</title>
<polygon fill="none" stroke="#000000" points="71,-1083.5 71,-1152.5 387,-1152.5 387,-1083.5 71,-1083.5"/>
<text text-anchor="middle" x="124" y="-1137.3" font-family="Times,serif" font-size="14.00" fill="#000000">IN</text>
<polyline fill="none" stroke="#000000" points="71,-1129.5 177,-1129.5 "/>
<text text-anchor="middle" x="124" y="-1114.3" font-family="Times,serif" font-size="14.00" fill="#000000">input_image</text>
<polyline fill="none" stroke="#000000" points="71,-1106.5 177,-1106.5 "/>
<text text-anchor="middle" x="124" y="-1091.3" font-family="Times,serif" font-size="14.00" fill="#000000">mask_image</text>
<polyline fill="none" stroke="#000000" points="177,-1083.5 177,-1152.5 "/>
<text text-anchor="middle" x="224.5" y="-1137.3" font-family="Times,serif" font-size="14.00" fill="#000000">n4_correct</text>
<polyline fill="none" stroke="#000000" points="177,-1129.5 272,-1129.5 "/>
<text text-anchor="middle" x="224.5" y="-1114.3" font-family="Times,serif" font-size="14.00" fill="#000000">fixes</text>
<polyline fill="none" stroke="#000000" points="177,-1106.5 272,-1106.5 "/>
<text text-anchor="middle" x="224.5" y="-1091.3" font-family="Times,serif" font-size="14.00" fill="#000000"> </text>
<polyline fill="none" stroke="#000000" points="272,-1083.5 272,-1152.5 "/>
<text text-anchor="middle" x="329.5" y="-1131.8" font-family="Times,serif" font-size="14.00" fill="#000000">OUT</text>
<polyline fill="none" stroke="#000000" points="272,-1118.5 387,-1118.5 "/>
<text text-anchor="middle" x="329.5" y="-1097.3" font-family="Times,serif" font-size="14.00" fill="#000000">output_image</text>
</g>
<!-- enhance_and_skullstrip_bold_wfinputnode&#45;&gt;enhance_and_skullstrip_bold_wfn4_correct -->
<g id="edge14" class="edge">
<title>enhance_and_skullstrip_bold_wfinputnode:e&#45;&gt;enhance_and_skullstrip_bold_wfn4_correct:w</title>
<path fill="none" stroke="#000000" d="M462,-1760C470,-1760 467.3736,-1747.9265 462,-1742 406.9558,-1681.2922 153.9835,-1762.8881 95,-1706 49.4863,-1662.1033 76,-1628.2331 76,-1565 76,-1565 76,-1565 76,-1330 76,-1309.3832 54.1321,-1162.5333 64.4499,-1126.143"/>
<polygon fill="#000000" stroke="#000000" points="67.4594,-1127.9857 71,-1118 62.005,-1123.5983 67.4594,-1127.9857"/>
</g>
<!-- enhance_and_skullstrip_bold_wffixhdr_unifize -->
<g id="node12" class="node">
<title>enhance_and_skullstrip_bold_wffixhdr_unifize</title>
<polygon fill="none" stroke="#000000" points="625,-553.5 625,-622.5 881,-622.5 881,-553.5 625,-553.5"/>
<text text-anchor="middle" x="660.5" y="-607.3" font-family="Times,serif" font-size="14.00" fill="#000000">IN</text>
<polyline fill="none" stroke="#000000" points="625,-599.5 696,-599.5 "/>
<text text-anchor="middle" x="660.5" y="-584.3" font-family="Times,serif" font-size="14.00" fill="#000000">hdr_file</text>
<polyline fill="none" stroke="#000000" points="625,-576.5 696,-576.5 "/>
<text text-anchor="middle" x="660.5" y="-561.3" font-family="Times,serif" font-size="14.00" fill="#000000">in_file</text>
<polyline fill="none" stroke="#000000" points="696,-553.5 696,-622.5 "/>
<text text-anchor="middle" x="753.5" y="-607.3" font-family="Times,serif" font-size="14.00" fill="#000000">fixhdr_unifize</text>
<polyline fill="none" stroke="#000000" points="696,-599.5 811,-599.5 "/>
<text text-anchor="middle" x="753.5" y="-584.3" font-family="Times,serif" font-size="14.00" fill="#000000">utils</text>
<polyline fill="none" stroke="#000000" points="696,-576.5 811,-576.5 "/>
<text text-anchor="middle" x="753.5" y="-561.3" font-family="Times,serif" font-size="14.00" fill="#000000"> </text>
<polyline fill="none" stroke="#000000" points="811,-553.5 811,-622.5 "/>
<text text-anchor="middle" x="846" y="-601.8" font-family="Times,serif" font-size="14.00" fill="#000000">OUT</text>
<polyline fill="none" stroke="#000000" points="811,-588.5 881,-588.5 "/>
<text text-anchor="middle" x="846" y="-567.3" font-family="Times,serif" font-size="14.00" fill="#000000">out_file</text>
</g>
<!-- enhance_and_skullstrip_bold_wfinputnode&#45;&gt;enhance_and_skullstrip_bold_wffixhdr_unifize -->
<g id="edge11" class="edge">
<title>enhance_and_skullstrip_bold_wfinputnode:e&#45;&gt;enhance_and_skullstrip_bold_wffixhdr_unifize:w</title>
<path fill="none" stroke="#000000" d="M462,-1760C635.4296,-1760 800,-1738.4296 800,-1565 800,-1565 800,-1565 800,-800 800,-725.6555 766.7824,-706.9883 710,-659 678.6652,-632.5181 647.6577,-657.2022 625,-623 619.0938,-614.0844 613.9562,-600.8848 616.3768,-593.5057"/>
<polygon fill="#000000" stroke="#000000" points="618.4549,-596.3314 625,-588 614.6879,-590.4314 618.4549,-596.3314"/>
</g>
<!-- enhance_and_skullstrip_bold_wffixhdr_skullstrip2 -->
<g id="node14" class="node">
<title>enhance_and_skullstrip_bold_wffixhdr_skullstrip2</title>
<polygon fill="none" stroke="#000000" points="92.5,-341.5 92.5,-410.5 377.5,-410.5 377.5,-341.5 92.5,-341.5"/>
<text text-anchor="middle" x="128" y="-395.3" font-family="Times,serif" font-size="14.00" fill="#000000">IN</text>
<polyline fill="none" stroke="#000000" points="92.5,-387.5 163.5,-387.5 "/>
<text text-anchor="middle" x="128" y="-372.3" font-family="Times,serif" font-size="14.00" fill="#000000">hdr_file</text>
<polyline fill="none" stroke="#000000" points="92.5,-364.5 163.5,-364.5 "/>
<text text-anchor="middle" x="128" y="-349.3" font-family="Times,serif" font-size="14.00" fill="#000000">in_file</text>
<polyline fill="none" stroke="#000000" points="163.5,-341.5 163.5,-410.5 "/>
<text text-anchor="middle" x="235.5" y="-395.3" font-family="Times,serif" font-size="14.00" fill="#000000">fixhdr_skullstrip2</text>
<polyline fill="none" stroke="#000000" points="163.5,-387.5 307.5,-387.5 "/>
<text text-anchor="middle" x="235.5" y="-372.3" font-family="Times,serif" font-size="14.00" fill="#000000">utils</text>
<polyline fill="none" stroke="#000000" points="163.5,-364.5 307.5,-364.5 "/>
<text text-anchor="middle" x="235.5" y="-349.3" font-family="Times,serif" font-size="14.00" fill="#000000"> </text>
<polyline fill="none" stroke="#000000" points="307.5,-341.5 307.5,-410.5 "/>
<text text-anchor="middle" x="342.5" y="-389.8" font-family="Times,serif" font-size="14.00" fill="#000000">OUT</text>
<polyline fill="none" stroke="#000000" points="307.5,-376.5 377.5,-376.5 "/>
<text text-anchor="middle" x="342.5" y="-355.3" font-family="Times,serif" font-size="14.00" fill="#000000">out_file</text>
</g>
<!-- enhance_and_skullstrip_bold_wfinputnode&#45;&gt;enhance_and_skullstrip_bold_wffixhdr_skullstrip2 -->
<g id="edge10" class="edge">
<title>enhance_and_skullstrip_bold_wfinputnode:e&#45;&gt;enhance_and_skullstrip_bold_wffixhdr_skullstrip2:w</title>
<path fill="none" stroke="#000000" d="M462,-1760C470,-1760 467.3954,-1747.9068 462,-1742 402.2569,-1676.5942 130.6542,-1765.4701 65,-1706 17.7108,-1663.165 38,-1628.8053 38,-1565 38,-1565 38,-1565 38,-588 38,-494.2824 -2.1631,-384.271 82.0018,-376.4433"/>
<polygon fill="#000000" stroke="#000000" points="82.1649,-379.9396 92,-376 81.8548,-372.9465 82.1649,-379.9396"/>
</g>
<!-- enhance_and_skullstrip_bold_wfinit_aff&#45;&gt;enhance_and_skullstrip_bold_wfnorm -->
<g id="edge8" class="edge">
<title>enhance_and_skullstrip_bold_wfinit_aff:e&#45;&gt;enhance_and_skullstrip_bold_wfnorm:w</title>
<path fill="none" stroke="#000000" d="M434,-1654C442,-1654 439.3413,-1641.9557 434,-1636 384.7474,-1581.0822 153.2526,-1654.9178 104,-1600 96.6974,-1591.8574 91.9737,-1577.8619 95.2199,-1570.2697"/>
<polygon fill="#000000" stroke="#000000" points="97.2269,-1573.1471 104,-1565 93.6246,-1567.1452 97.2269,-1573.1471"/>
</g>
<!-- enhance_and_skullstrip_bold_wfnorm&#45;&gt;enhance_and_skullstrip_bold_wfmap_brainmask -->
<g id="edge19" class="edge">
<title>enhance_and_skullstrip_bold_wfnorm:e&#45;&gt;enhance_and_skullstrip_bold_wfmap_brainmask:w</title>
<path fill="none" stroke="#000000" d="M518,-1565C533.5556,-1565 528.3211,-1541.6383 518,-1530 429.1916,-1429.8575 307.8084,-1594.1425 219,-1494 211.8467,-1485.9337 207.1721,-1472.1544 210.3572,-1464.6838"/>
<polygon fill="#000000" stroke="#000000" points="212.2245,-1467.6451 219,-1459.5 208.624,-1461.6421 212.2245,-1467.6451"/>
</g>
<!-- enhance_and_skullstrip_bold_wfnorm&#45;&gt;enhance_and_skullstrip_bold_wfmap_brainmask -->
<g id="edge20" class="edge">
<title>enhance_and_skullstrip_bold_wfnorm:e&#45;&gt;enhance_and_skullstrip_bold_wfmap_brainmask:w</title>
<path fill="none" stroke="#000000" d="M518,-1542C523.3333,-1542 521.5387,-1533.9903 518,-1530 429.1916,-1429.8575 307.8084,-1594.1425 219,-1494 197.5014,-1469.7576 185.4806,-1423.6712 209.1117,-1414.2195"/>
<polygon fill="#000000" stroke="#000000" points="209.7475,-1417.6616 219,-1412.5 208.5482,-1410.7651 209.7475,-1417.6616"/>
</g>
<!-- enhance_and_skullstrip_bold_wfpre_mask_dilate -->
<g id="node5" class="node">
<title>enhance_and_skullstrip_bold_wfpre_mask_dilate</title>
<polygon fill="none" stroke="#000000" points="320,-1295.5 320,-1364.5 584,-1364.5 584,-1295.5 320,-1295.5"/>
<text text-anchor="middle" x="350" y="-1343.8" font-family="Times,serif" font-size="14.00" fill="#000000">IN</text>
<polyline fill="none" stroke="#000000" points="320,-1330.5 380,-1330.5 "/>
<text text-anchor="middle" x="350" y="-1309.3" font-family="Times,serif" font-size="14.00" fill="#000000">in_file</text>
<polyline fill="none" stroke="#000000" points="380,-1295.5 380,-1364.5 "/>
<text text-anchor="middle" x="447" y="-1349.3" font-family="Times,serif" font-size="14.00" fill="#000000">pre_mask_dilate</text>
<polyline fill="none" stroke="#000000" points="380,-1341.5 514,-1341.5 "/>
<text text-anchor="middle" x="447" y="-1326.3" font-family="Times,serif" font-size="14.00" fill="#000000">fsl</text>
<polyline fill="none" stroke="#000000" points="380,-1318.5 514,-1318.5 "/>
<text text-anchor="middle" x="447" y="-1303.3" font-family="Times,serif" font-size="14.00" fill="#000000"> </text>
<polyline fill="none" stroke="#000000" points="514,-1295.5 514,-1364.5 "/>
<text text-anchor="middle" x="549" y="-1343.8" font-family="Times,serif" font-size="14.00" fill="#000000">OUT</text>
<polyline fill="none" stroke="#000000" points="514,-1330.5 584,-1330.5 "/>
<text text-anchor="middle" x="549" y="-1309.3" font-family="Times,serif" font-size="14.00" fill="#000000">out_file</text>
</g>
<!-- enhance_and_skullstrip_bold_wfmap_brainmask&#45;&gt;enhance_and_skullstrip_bold_wfpre_mask_dilate -->
<g id="edge16" class="edge">
<title>enhance_and_skullstrip_bold_wfmap_brainmask:e&#45;&gt;enhance_and_skullstrip_bold_wfpre_mask_dilate:w</title>
<path fill="none" stroke="#000000" d="M645,-1424.5C655.4444,-1424.5 651.9669,-1408.7813 645,-1401 596.5297,-1346.8642 368.4703,-1419.1358 320,-1365 307.3539,-1350.8757 299.9035,-1324.9326 310.3917,-1316.0654"/>
<polygon fill="#000000" stroke="#000000" points="311.5369,-1319.3739 320,-1313 309.4093,-1312.7051 311.5369,-1319.3739"/>
</g>
<!-- enhance_and_skullstrip_bold_wfpre_mask_dilate&#45;&gt;enhance_and_skullstrip_bold_wfcheck_hdr -->
<g id="edge21" class="edge">
<title>enhance_and_skullstrip_bold_wfpre_mask_dilate:e&#45;&gt;enhance_and_skullstrip_bold_wfcheck_hdr:w</title>
<path fill="none" stroke="#000000" d="M584,-1313C592,-1313 587.9416,-1301.9616 584,-1295 568.6779,-1267.9382 539.3221,-1286.0618 524,-1259 518.7309,-1249.6937 513.3544,-1236.6406 515.5634,-1229.3912"/>
<polygon fill="#000000" stroke="#000000" points="517.4582,-1232.334 524,-1224 513.6889,-1226.4355 517.4582,-1232.334"/>
</g>
<!-- enhance_and_skullstrip_bold_wfcheck_hdr&#45;&gt;enhance_and_skullstrip_bold_wfn4_correct -->
<g id="edge2" class="edge">
<title>enhance_and_skullstrip_bold_wfcheck_hdr:e&#45;&gt;enhance_and_skullstrip_bold_wfn4_correct:w</title>
<path fill="none" stroke="#000000" d="M772,-1207C780,-1207 777.5099,-1194.8001 772,-1189 718.2845,-1132.4551 124.7155,-1209.5449 71,-1153 56.02,-1137.231 47.9672,-1106.7812 61.3005,-1097.6506"/>
<polygon fill="#000000" stroke="#000000" points="62.2763,-1101.0123 71,-1095 60.431,-1094.2599 62.2763,-1101.0123"/>
</g>
<!-- enhance_and_skullstrip_bold_wfskullstrip_first_pass -->
<g id="node8" class="node">
<title>enhance_and_skullstrip_bold_wfskullstrip_first_pass</title>
<polygon fill="none" stroke="#000000" points="150.5,-977.5 150.5,-1046.5 457.5,-1046.5 457.5,-977.5 150.5,-977.5"/>
<text text-anchor="middle" x="180.5" y="-1025.8" font-family="Times,serif" font-size="14.00" fill="#000000">IN</text>
<polyline fill="none" stroke="#000000" points="150.5,-1012.5 210.5,-1012.5 "/>
<text text-anchor="middle" x="180.5" y="-991.3" font-family="Times,serif" font-size="14.00" fill="#000000">in_file</text>
<polyline fill="none" stroke="#000000" points="210.5,-977.5 210.5,-1046.5 "/>
<text text-anchor="middle" x="291.5" y="-1031.3" font-family="Times,serif" font-size="14.00" fill="#000000">skullstrip_first_pass</text>
<polyline fill="none" stroke="#000000" points="210.5,-1023.5 372.5,-1023.5 "/>
<text text-anchor="middle" x="291.5" y="-1008.3" font-family="Times,serif" font-size="14.00" fill="#000000">fsl</text>
<polyline fill="none" stroke="#000000" points="210.5,-1000.5 372.5,-1000.5 "/>
<text text-anchor="middle" x="291.5" y="-985.3" font-family="Times,serif" font-size="14.00" fill="#000000"> </text>
<polyline fill="none" stroke="#000000" points="372.5,-977.5 372.5,-1046.5 "/>
<text text-anchor="middle" x="415" y="-1031.3" font-family="Times,serif" font-size="14.00" fill="#000000">OUT</text>
<polyline fill="none" stroke="#000000" points="372.5,-1023.5 457.5,-1023.5 "/>
<text text-anchor="middle" x="415" y="-1008.3" font-family="Times,serif" font-size="14.00" fill="#000000">mask_file</text>
<polyline fill="none" stroke="#000000" points="372.5,-1000.5 457.5,-1000.5 "/>
<text text-anchor="middle" x="415" y="-985.3" font-family="Times,serif" font-size="14.00" fill="#000000">out_file</text>
</g>
<!-- enhance_and_skullstrip_bold_wfn4_correct&#45;&gt;enhance_and_skullstrip_bold_wfskullstrip_first_pass -->
<g id="edge18" class="edge">
<title>enhance_and_skullstrip_bold_wfn4_correct:e&#45;&gt;enhance_and_skullstrip_bold_wfskullstrip_first_pass:w</title>
<path fill="none" stroke="#000000" d="M387,-1101C395,-1101 392.2148,-1089.0668 387,-1083 317.5506,-1002.2047 219.4494,-1127.7953 150,-1047 137.642,-1032.623 130.0071,-1006.8418 140.4196,-998.0409"/>
<polygon fill="#000000" stroke="#000000" points="141.5275,-1001.3614 150,-995 139.4097,-994.6894 141.5275,-1001.3614"/>
</g>
<!-- enhance_and_skullstrip_bold_wfoutputnode -->
<g id="node17" class="node">
<title>enhance_and_skullstrip_bold_wfoutputnode</title>
<polygon fill="none" stroke="#000000" points="684.5,-.5 684.5,-92.5 985.5,-92.5 985.5,-.5 684.5,-.5"/>
<text text-anchor="middle" x="761" y="-77.3" font-family="Times,serif" font-size="14.00" fill="#000000">IN</text>
<polyline fill="none" stroke="#000000" points="684.5,-69.5 837.5,-69.5 "/>
<text text-anchor="middle" x="761" y="-54.3" font-family="Times,serif" font-size="14.00" fill="#000000">bias_corrected_file</text>
<polyline fill="none" stroke="#000000" points="684.5,-46.5 837.5,-46.5 "/>
<text text-anchor="middle" x="761" y="-31.3" font-family="Times,serif" font-size="14.00" fill="#000000">mask_file</text>
<polyline fill="none" stroke="#000000" points="684.5,-23.5 837.5,-23.5 "/>
<text text-anchor="middle" x="761" y="-8.3" font-family="Times,serif" font-size="14.00" fill="#000000">skull_stripped_file</text>
<polyline fill="none" stroke="#000000" points="837.5,-.5 837.5,-92.5 "/>
<text text-anchor="middle" x="886.5" y="-73.8" font-family="Times,serif" font-size="14.00" fill="#000000">outputnode</text>
<polyline fill="none" stroke="#000000" points="837.5,-62.5 935.5,-62.5 "/>
<text text-anchor="middle" x="886.5" y="-43.3" font-family="Times,serif" font-size="14.00" fill="#000000">utility</text>
<polyline fill="none" stroke="#000000" points="837.5,-31.5 935.5,-31.5 "/>
<text text-anchor="middle" x="886.5" y="-12.3" font-family="Times,serif" font-size="14.00" fill="#000000"> </text>
<polyline fill="none" stroke="#000000" points="935.5,-.5 935.5,-92.5 "/>
<text text-anchor="middle" x="960.5" y="-42.8" font-family="Times,serif" font-size="14.00" fill="#000000">OUT</text>
</g>
<!-- enhance_and_skullstrip_bold_wfn4_correct&#45;&gt;enhance_and_skullstrip_bold_wfoutputnode -->
<g id="edge17" class="edge">
<title>enhance_and_skullstrip_bold_wfn4_correct:e&#45;&gt;enhance_and_skullstrip_bold_wfoutputnode:w</title>
<path fill="none" stroke="#000000" d="M387,-1101C395,-1101 392.2313,-1089.0526 387,-1083 314.7442,-999.4005 239.7478,-1096.5847 141,-1047 61.8,-1007.2309 0,-994.624 0,-906 0,-906 0,-906 0,-270 0,-114.1622 503.5911,-60.6941 673.7577,-58.5666"/>
<polygon fill="#000000" stroke="#000000" points="674.023,-62.065 684,-58.5 673.9774,-55.0652 674.023,-62.065"/>
</g>
<!-- enhance_and_skullstrip_bold_wfskullstrip_first_dilate -->
<g id="node9" class="node">
<title>enhance_and_skullstrip_bold_wfskullstrip_first_dilate</title>
<polygon fill="none" stroke="#000000" points="472,-871.5 472,-940.5 772,-940.5 772,-871.5 472,-871.5"/>
<text text-anchor="middle" x="502" y="-919.8" font-family="Times,serif" font-size="14.00" fill="#000000">IN</text>
<polyline fill="none" stroke="#000000" points="472,-906.5 532,-906.5 "/>
<text text-anchor="middle" x="502" y="-885.3" font-family="Times,serif" font-size="14.00" fill="#000000">in_file</text>
<polyline fill="none" stroke="#000000" points="532,-871.5 532,-940.5 "/>
<text text-anchor="middle" x="617" y="-925.3" font-family="Times,serif" font-size="14.00" fill="#000000">skullstrip_first_dilate</text>
<polyline fill="none" stroke="#000000" points="532,-917.5 702,-917.5 "/>
<text text-anchor="middle" x="617" y="-902.3" font-family="Times,serif" font-size="14.00" fill="#000000">fsl</text>
<polyline fill="none" stroke="#000000" points="532,-894.5 702,-894.5 "/>
<text text-anchor="middle" x="617" y="-879.3" font-family="Times,serif" font-size="14.00" fill="#000000"> </text>
<polyline fill="none" stroke="#000000" points="702,-871.5 702,-940.5 "/>
<text text-anchor="middle" x="737" y="-919.8" font-family="Times,serif" font-size="14.00" fill="#000000">OUT</text>
<polyline fill="none" stroke="#000000" points="702,-906.5 772,-906.5 "/>
<text text-anchor="middle" x="737" y="-885.3" font-family="Times,serif" font-size="14.00" fill="#000000">out_file</text>
</g>
<!-- enhance_and_skullstrip_bold_wfskullstrip_first_pass&#45;&gt;enhance_and_skullstrip_bold_wfskullstrip_first_dilate -->
<g id="edge25" class="edge">
<title>enhance_and_skullstrip_bold_wfskullstrip_first_pass:e&#45;&gt;enhance_and_skullstrip_bold_wfskullstrip_first_dilate:w</title>
<path fill="none" stroke="#000000" d="M458,-1012C481.6413,-1012 454.6718,-921.1614 464.0787,-895.613"/>
<polygon fill="#000000" stroke="#000000" points="466.5665,-898.0955 472,-889 462.0804,-892.7219 466.5665,-898.0955"/>
</g>
<!-- enhance_and_skullstrip_bold_wfskullstrip_first_mask -->
<g id="node10" class="node">
<title>enhance_and_skullstrip_bold_wfskullstrip_first_mask</title>
<polygon fill="none" stroke="#000000" points="444.5,-765.5 444.5,-834.5 767.5,-834.5 767.5,-765.5 444.5,-765.5"/>
<text text-anchor="middle" x="487" y="-819.3" font-family="Times,serif" font-size="14.00" fill="#000000">IN</text>
<polyline fill="none" stroke="#000000" points="444.5,-811.5 529.5,-811.5 "/>
<text text-anchor="middle" x="487" y="-796.3" font-family="Times,serif" font-size="14.00" fill="#000000">in_file</text>
<polyline fill="none" stroke="#000000" points="444.5,-788.5 529.5,-788.5 "/>
<text text-anchor="middle" x="487" y="-773.3" font-family="Times,serif" font-size="14.00" fill="#000000">mask_file</text>
<polyline fill="none" stroke="#000000" points="529.5,-765.5 529.5,-834.5 "/>
<text text-anchor="middle" x="613.5" y="-819.3" font-family="Times,serif" font-size="14.00" fill="#000000">skullstrip_first_mask</text>
<polyline fill="none" stroke="#000000" points="529.5,-811.5 697.5,-811.5 "/>
<text text-anchor="middle" x="613.5" y="-796.3" font-family="Times,serif" font-size="14.00" fill="#000000">fsl</text>
<polyline fill="none" stroke="#000000" points="529.5,-788.5 697.5,-788.5 "/>
<text text-anchor="middle" x="613.5" y="-773.3" font-family="Times,serif" font-size="14.00" fill="#000000"> </text>
<polyline fill="none" stroke="#000000" points="697.5,-765.5 697.5,-834.5 "/>
<text text-anchor="middle" x="732.5" y="-813.8" font-family="Times,serif" font-size="14.00" fill="#000000">OUT</text>
<polyline fill="none" stroke="#000000" points="697.5,-800.5 767.5,-800.5 "/>
<text text-anchor="middle" x="732.5" y="-779.3" font-family="Times,serif" font-size="14.00" fill="#000000">out_file</text>
</g>
<!-- enhance_and_skullstrip_bold_wfskullstrip_first_pass&#45;&gt;enhance_and_skullstrip_bold_wfskullstrip_first_mask -->
<g id="edge26" class="edge">
<title>enhance_and_skullstrip_bold_wfskullstrip_first_pass:e&#45;&gt;enhance_and_skullstrip_bold_wfskullstrip_first_mask:w</title>
<path fill="none" stroke="#000000" d="M458,-989C476.302,-989 436.3073,-846.2284 439.352,-808.8624"/>
<polygon fill="#000000" stroke="#000000" points="442.4549,-810.4816 444,-800 436.2557,-807.2303 442.4549,-810.4816"/>
</g>
<!-- enhance_and_skullstrip_bold_wfcombine_masks -->
<g id="node15" class="node">
<title>enhance_and_skullstrip_bold_wfcombine_masks</title>
<polygon fill="none" stroke="#000000" points="392,-235.5 392,-304.5 698,-304.5 698,-235.5 392,-235.5"/>
<text text-anchor="middle" x="444.5" y="-289.3" font-family="Times,serif" font-size="14.00" fill="#000000">IN</text>
<polyline fill="none" stroke="#000000" points="392,-281.5 497,-281.5 "/>
<text text-anchor="middle" x="444.5" y="-266.3" font-family="Times,serif" font-size="14.00" fill="#000000">in_file</text>
<polyline fill="none" stroke="#000000" points="392,-258.5 497,-258.5 "/>
<text text-anchor="middle" x="444.5" y="-243.3" font-family="Times,serif" font-size="14.00" fill="#000000">operand_file</text>
<polyline fill="none" stroke="#000000" points="497,-235.5 497,-304.5 "/>
<text text-anchor="middle" x="562.5" y="-289.3" font-family="Times,serif" font-size="14.00" fill="#000000">combine_masks</text>
<polyline fill="none" stroke="#000000" points="497,-281.5 628,-281.5 "/>
<text text-anchor="middle" x="562.5" y="-266.3" font-family="Times,serif" font-size="14.00" fill="#000000">fsl</text>
<polyline fill="none" stroke="#000000" points="497,-258.5 628,-258.5 "/>
<text text-anchor="middle" x="562.5" y="-243.3" font-family="Times,serif" font-size="14.00" fill="#000000"> </text>
<polyline fill="none" stroke="#000000" points="628,-235.5 628,-304.5 "/>
<text text-anchor="middle" x="663" y="-283.8" font-family="Times,serif" font-size="14.00" fill="#000000">OUT</text>
<polyline fill="none" stroke="#000000" points="628,-270.5 698,-270.5 "/>
<text text-anchor="middle" x="663" y="-249.3" font-family="Times,serif" font-size="14.00" fill="#000000">out_file</text>
</g>
<!-- enhance_and_skullstrip_bold_wfskullstrip_first_pass&#45;&gt;enhance_and_skullstrip_bold_wfcombine_masks -->
<g id="edge24" class="edge">
<title>enhance_and_skullstrip_bold_wfskullstrip_first_pass:e&#45;&gt;enhance_and_skullstrip_bold_wfcombine_masks:w</title>
<path fill="none" stroke="#000000" d="M458,-1012C473.5556,-1012 461.0507,-992.2535 458,-977 454.6007,-960.0033 448.5463,-957.422 443,-941 422.269,-879.6179 406,-864.7884 406,-800 406,-800 406,-800 406,-482 406,-461.344 377.2072,-314.5235 385.8238,-278.1411"/>
<polygon fill="#000000" stroke="#000000" points="388.7444,-280.0823 392,-270 383.1676,-275.8515 388.7444,-280.0823"/>
</g>
<!-- enhance_and_skullstrip_bold_wfskullstrip_first_dilate&#45;&gt;enhance_and_skullstrip_bold_wfskullstrip_first_mask -->
<g id="edge22" class="edge">
<title>enhance_and_skullstrip_bold_wfskullstrip_first_dilate:e&#45;&gt;enhance_and_skullstrip_bold_wfskullstrip_first_mask:w</title>
<path fill="none" stroke="#000000" d="M772,-889C780,-889 777.3394,-876.9575 772,-871 723.0604,-816.395 492.9396,-889.605 444,-835 429.4836,-818.8032 421.1121,-788.6475 434.3345,-779.6193"/>
<polygon fill="#000000" stroke="#000000" points="435.2636,-782.9938 444,-777 433.4326,-776.2375 435.2636,-782.9938"/>
</g>
<!-- enhance_and_skullstrip_bold_wfunifize -->
<g id="node11" class="node">
<title>enhance_and_skullstrip_bold_wfunifize</title>
<polygon fill="none" stroke="#000000" points="505.5,-659.5 505.5,-728.5 700.5,-728.5 700.5,-659.5 505.5,-659.5"/>
<text text-anchor="middle" x="535.5" y="-707.8" font-family="Times,serif" font-size="14.00" fill="#000000">IN</text>
<polyline fill="none" stroke="#000000" points="505.5,-694.5 565.5,-694.5 "/>
<text text-anchor="middle" x="535.5" y="-673.3" font-family="Times,serif" font-size="14.00" fill="#000000">in_file</text>
<polyline fill="none" stroke="#000000" points="565.5,-659.5 565.5,-728.5 "/>
<text text-anchor="middle" x="598" y="-713.3" font-family="Times,serif" font-size="14.00" fill="#000000">unifize</text>
<polyline fill="none" stroke="#000000" points="565.5,-705.5 630.5,-705.5 "/>
<text text-anchor="middle" x="598" y="-690.3" font-family="Times,serif" font-size="14.00" fill="#000000">afni</text>
<polyline fill="none" stroke="#000000" points="565.5,-682.5 630.5,-682.5 "/>
<text text-anchor="middle" x="598" y="-667.3" font-family="Times,serif" font-size="14.00" fill="#000000"> </text>
<polyline fill="none" stroke="#000000" points="630.5,-659.5 630.5,-728.5 "/>
<text text-anchor="middle" x="665.5" y="-707.8" font-family="Times,serif" font-size="14.00" fill="#000000">OUT</text>
<polyline fill="none" stroke="#000000" points="630.5,-694.5 700.5,-694.5 "/>
<text text-anchor="middle" x="665.5" y="-673.3" font-family="Times,serif" font-size="14.00" fill="#000000">out_file</text>
</g>
<!-- enhance_and_skullstrip_bold_wfskullstrip_first_mask&#45;&gt;enhance_and_skullstrip_bold_wfunifize -->
<g id="edge23" class="edge">
<title>enhance_and_skullstrip_bold_wfskullstrip_first_mask:e&#45;&gt;enhance_and_skullstrip_bold_wfunifize:w</title>
<path fill="none" stroke="#000000" d="M768,-783C776,-783 773.2593,-771.0282 768,-765 690.4392,-676.0993 582.5608,-817.9007 505,-729 492.5366,-714.7143 484.9692,-688.8746 495.4094,-680.0497"/>
<polygon fill="#000000" stroke="#000000" points="496.5309,-683.3659 505,-677 494.4096,-676.695 496.5309,-683.3659"/>
</g>
<!-- enhance_and_skullstrip_bold_wfunifize&#45;&gt;enhance_and_skullstrip_bold_wffixhdr_unifize -->
<g id="edge28" class="edge">
<title>enhance_and_skullstrip_bold_wfunifize:e&#45;&gt;enhance_and_skullstrip_bold_wffixhdr_unifize:w</title>
<path fill="none" stroke="#000000" d="M701,-677C709,-677 705.278,-665.7601 701,-659 681.0134,-627.4172 644.9866,-654.5828 625,-623 613.4769,-604.7912 603.2057,-576.4953 615.2036,-567.7009"/>
<polygon fill="#000000" stroke="#000000" points="616.2899,-571.032 625,-565 614.4294,-564.2838 616.2899,-571.032"/>
</g>
<!-- enhance_and_skullstrip_bold_wfskullstrip_second_pass -->
<g id="node13" class="node">
<title>enhance_and_skullstrip_bold_wfskullstrip_second_pass</title>
<polygon fill="none" stroke="#000000" points="66,-447.5 66,-516.5 378,-516.5 378,-447.5 66,-447.5"/>
<text text-anchor="middle" x="96" y="-495.8" font-family="Times,serif" font-size="14.00" fill="#000000">IN</text>
<polyline fill="none" stroke="#000000" points="66,-482.5 126,-482.5 "/>
<text text-anchor="middle" x="96" y="-461.3" font-family="Times,serif" font-size="14.00" fill="#000000">in_file</text>
<polyline fill="none" stroke="#000000" points="126,-447.5 126,-516.5 "/>
<text text-anchor="middle" x="217" y="-501.3" font-family="Times,serif" font-size="14.00" fill="#000000">skullstrip_second_pass</text>
<polyline fill="none" stroke="#000000" points="126,-493.5 308,-493.5 "/>
<text text-anchor="middle" x="217" y="-478.3" font-family="Times,serif" font-size="14.00" fill="#000000">afni</text>
<polyline fill="none" stroke="#000000" points="126,-470.5 308,-470.5 "/>
<text text-anchor="middle" x="217" y="-455.3" font-family="Times,serif" font-size="14.00" fill="#000000"> </text>
<polyline fill="none" stroke="#000000" points="308,-447.5 308,-516.5 "/>
<text text-anchor="middle" x="343" y="-495.8" font-family="Times,serif" font-size="14.00" fill="#000000">OUT</text>
<polyline fill="none" stroke="#000000" points="308,-482.5 378,-482.5 "/>
<text text-anchor="middle" x="343" y="-461.3" font-family="Times,serif" font-size="14.00" fill="#000000">out_file</text>
</g>
<!-- enhance_and_skullstrip_bold_wffixhdr_unifize&#45;&gt;enhance_and_skullstrip_bold_wfskullstrip_second_pass -->
<g id="edge7" class="edge">
<title>enhance_and_skullstrip_bold_wffixhdr_unifize:e&#45;&gt;enhance_and_skullstrip_bold_wfskullstrip_second_pass:w</title>
<path fill="none" stroke="#000000" d="M881,-571C889,-571 886.5306,-558.7803 881,-553 818.3353,-487.5062 128.6647,-582.4938 66,-517 60.1957,-510.9337 56.7257,-486.232 59.6941,-473.1769"/>
<polygon fill="#000000" stroke="#000000" points="62.6647,-475.0562 66,-465 57.1216,-470.7814 62.6647,-475.0562"/>
</g>
<!-- enhance_and_skullstrip_bold_wfapply_mask -->
<g id="node16" class="node">
<title>enhance_and_skullstrip_bold_wfapply_mask</title>
<polygon fill="none" stroke="#000000" points="712,-129.5 712,-198.5 968,-198.5 968,-129.5 712,-129.5"/>
<text text-anchor="middle" x="754.5" y="-183.3" font-family="Times,serif" font-size="14.00" fill="#000000">IN</text>
<polyline fill="none" stroke="#000000" points="712,-175.5 797,-175.5 "/>
<text text-anchor="middle" x="754.5" y="-160.3" font-family="Times,serif" font-size="14.00" fill="#000000">in_file</text>
<polyline fill="none" stroke="#000000" points="712,-152.5 797,-152.5 "/>
<text text-anchor="middle" x="754.5" y="-137.3" font-family="Times,serif" font-size="14.00" fill="#000000">mask_file</text>
<polyline fill="none" stroke="#000000" points="797,-129.5 797,-198.5 "/>
<text text-anchor="middle" x="847.5" y="-183.3" font-family="Times,serif" font-size="14.00" fill="#000000">apply_mask</text>
<polyline fill="none" stroke="#000000" points="797,-175.5 898,-175.5 "/>
<text text-anchor="middle" x="847.5" y="-160.3" font-family="Times,serif" font-size="14.00" fill="#000000">fsl</text>
<polyline fill="none" stroke="#000000" points="797,-152.5 898,-152.5 "/>
<text text-anchor="middle" x="847.5" y="-137.3" font-family="Times,serif" font-size="14.00" fill="#000000"> </text>
<polyline fill="none" stroke="#000000" points="898,-129.5 898,-198.5 "/>
<text text-anchor="middle" x="933" y="-177.8" font-family="Times,serif" font-size="14.00" fill="#000000">OUT</text>
<polyline fill="none" stroke="#000000" points="898,-164.5 968,-164.5 "/>
<text text-anchor="middle" x="933" y="-143.3" font-family="Times,serif" font-size="14.00" fill="#000000">out_file</text>
</g>
<!-- enhance_and_skullstrip_bold_wffixhdr_unifize&#45;&gt;enhance_and_skullstrip_bold_wfapply_mask -->
<g id="edge6" class="edge">
<title>enhance_and_skullstrip_bold_wffixhdr_unifize:e&#45;&gt;enhance_and_skullstrip_bold_wfapply_mask:w</title>
<path fill="none" stroke="#000000" d="M881,-571C1062.5951,-571 752.1083,-376.1105 712,-199 710.9398,-194.3182 708.2255,-182.0833 708.1314,-173.402"/>
<polygon fill="#000000" stroke="#000000" points="711.4315,-174.5796 712,-164 704.9581,-171.9159 711.4315,-174.5796"/>
</g>
<!-- enhance_and_skullstrip_bold_wfskullstrip_second_pass&#45;&gt;enhance_and_skullstrip_bold_wffixhdr_skullstrip2 -->
<g id="edge27" class="edge">
<title>enhance_and_skullstrip_bold_wfskullstrip_second_pass:e&#45;&gt;enhance_and_skullstrip_bold_wffixhdr_skullstrip2:w</title>
<path fill="none" stroke="#000000" d="M378,-465C386,-465 383.2918,-452.9997 378,-447 293.2551,-350.9191 176.7449,-507.0809 92,-411 77.6128,-394.6883 69.1524,-364.6116 82.344,-355.6108"/>
<polygon fill="#000000" stroke="#000000" points="83.2602,-358.9889 92,-353 81.4331,-352.2315 83.2602,-358.9889"/>
</g>
<!-- enhance_and_skullstrip_bold_wffixhdr_skullstrip2&#45;&gt;enhance_and_skullstrip_bold_wfcombine_masks -->
<g id="edge5" class="edge">
<title>enhance_and_skullstrip_bold_wffixhdr_skullstrip2:e&#45;&gt;enhance_and_skullstrip_bold_wfcombine_masks:w</title>
<path fill="none" stroke="#000000" d="M378,-359C399.3594,-359 376.3044,-277.7822 384.4783,-253.6707"/>
<polygon fill="#000000" stroke="#000000" points="386.8407,-256.2538 392,-247 382.196,-251.0166 386.8407,-256.2538"/>
</g>
<!-- enhance_and_skullstrip_bold_wfcombine_masks&#45;&gt;enhance_and_skullstrip_bold_wfapply_mask -->
<g id="edge3" class="edge">
<title>enhance_and_skullstrip_bold_wfcombine_masks:e&#45;&gt;enhance_and_skullstrip_bold_wfapply_mask:w</title>
<path fill="none" stroke="#000000" d="M698,-253C719.3594,-253 696.3044,-171.7822 704.4783,-147.6707"/>
<polygon fill="#000000" stroke="#000000" points="706.8407,-150.2538 712,-141 702.196,-145.0166 706.8407,-150.2538"/>
</g>
<!-- enhance_and_skullstrip_bold_wfcombine_masks&#45;&gt;enhance_and_skullstrip_bold_wfoutputnode -->
<g id="edge4" class="edge">
<title>enhance_and_skullstrip_bold_wfcombine_masks:e&#45;&gt;enhance_and_skullstrip_bold_wfoutputnode:w</title>
<path fill="none" stroke="#000000" d="M698,-253C719.4292,-253 673.3673,-83.463 678.7146,-43.0655"/>
<polygon fill="#000000" stroke="#000000" points="681.7272,-44.8482 684,-34.5 675.7701,-41.1723 681.7272,-44.8482"/>
</g>
<!-- enhance_and_skullstrip_bold_wfapply_mask&#45;&gt;enhance_and_skullstrip_bold_wfoutputnode -->
<g id="edge1" class="edge">
<title>enhance_and_skullstrip_bold_wfapply_mask:e&#45;&gt;enhance_and_skullstrip_bold_wfoutputnode:w</title>
<path fill="none" stroke="#000000" d="M968,-147C976,-147 973.2892,-135.002 968,-129 883.88,-33.5438 768.12,-188.4562 684,-93 662.5774,-68.6904 650.4966,-22.657 674.1142,-13.2173"/>
<polygon fill="#000000" stroke="#000000" points="674.7466,-16.6599 684,-11.5 673.5485,-9.7632 674.7466,-16.6599"/>
</g>
</g>
</svg>
