<?xml version="1.0" encoding="UTF-8" standalone="no"?>
<!DOCTYPE svg PUBLIC "-//W3C//DTD SVG 1.1//EN"
 "http://www.w3.org/Graphics/SVG/1.1/DTD/svg11.dtd">
<!-- Generated by graphviz version 2.40.1 (20161225.0304)
 -->
<!-- Title: %3 Pages: 1 -->
<svg width="972pt" height="1844pt"
 viewBox="0.00 0.00 972.13 1844.00" xmlns="http://www.w3.org/2000/svg" xmlns:xlink="http://www.w3.org/1999/xlink">
<g id="graph0" class="graph" transform="scale(1 1) rotate(0) translate(4 1840)">
<title>%3</title>
<polygon fill="#ffffff" stroke="transparent" points="-4,4 -4,-1840 968.1312,-1840 968.1312,4 -4,4"/>
<!-- inputnode (utility) -->
<g id="node1" class="node">
<title>inputnode (utility)</title>
<ellipse fill="none" stroke="#000000" cx="365" cy="-1818" rx="94.7833" ry="18"/>
<text text-anchor="middle" x="365" y="-1814.3" font-family="Times,serif" font-size="14.00" fill="#000000">inputnode (utility)</text>
</g>
<!-- dil_brainmask (ants) -->
<g id="node2" class="node">
<title>dil_brainmask (ants)</title>
<ellipse fill="none" stroke="#000000" cx="365" cy="-1746" rx="106.6812" ry="18"/>
<text text-anchor="middle" x="365" y="-1742.3" font-family="Times,serif" font-size="14.00" fill="#000000">dil_brainmask (ants)</text>
</g>
<!-- inputnode (utility)&#45;&gt;dil_brainmask (ants) -->
<g id="edge1" class="edge">
<title>inputnode (utility)&#45;&gt;dil_brainmask (ants)</title>
<path fill="none" stroke="#000000" d="M365,-1799.8314C365,-1792.131 365,-1782.9743 365,-1774.4166"/>
<polygon fill="#000000" stroke="#000000" points="368.5001,-1774.4132 365,-1764.4133 361.5001,-1774.4133 368.5001,-1774.4132"/>
</g>
<!-- copy_xform (utils) -->
<g id="node3" class="node">
<title>copy_xform (utils)</title>
<ellipse fill="none" stroke="#000000" cx="314" cy="-162" rx="94.7833" ry="18"/>
<text text-anchor="middle" x="314" y="-158.3" font-family="Times,serif" font-size="14.00" fill="#000000">copy_xform (utils)</text>
</g>
<!-- inputnode (utility)&#45;&gt;copy_xform (utils) -->
<g id="edge2" class="edge">
<title>inputnode (utility)&#45;&gt;copy_xform (utils)</title>
<path fill="none" stroke="#000000" d="M296.3463,-1805.4553C190.6147,-1784.1535 0,-1737.0122 0,-1674 0,-1674 0,-1674 0,-306 0,-252.4029 153.0665,-203.4519 245.4597,-178.7864"/>
<polygon fill="#000000" stroke="#000000" points="246.5313,-182.1235 255.3074,-176.1878 244.7453,-175.3552 246.5313,-182.1235"/>
</g>
<!-- copy_xform_wm (utils) -->
<g id="node4" class="node">
<title>copy_xform_wm (utils)</title>
<ellipse fill="none" stroke="#000000" cx="269" cy="-1458" rx="116.1796" ry="18"/>
<text text-anchor="middle" x="269" y="-1454.3" font-family="Times,serif" font-size="14.00" fill="#000000">copy_xform_wm (utils)</text>
</g>
<!-- inputnode (utility)&#45;&gt;copy_xform_wm (utils) -->
<g id="edge3" class="edge">
<title>inputnode (utility)&#45;&gt;copy_xform_wm (utils)</title>
<path fill="none" stroke="#000000" d="M309.0804,-1803.43C287.4612,-1795.1661 264.2941,-1782.6282 249,-1764 222.8706,-1732.1745 227,-1715.1777 227,-1674 227,-1674 227,-1674 227,-1602 227,-1560.0688 243.6152,-1513.918 255.9448,-1485.4435"/>
<polygon fill="#000000" stroke="#000000" points="259.2152,-1486.7032 260.0929,-1476.1447 252.8225,-1483.8513 259.2152,-1486.7032"/>
</g>
<!-- 03_pad_mask (ants) -->
<g id="node5" class="node">
<title>03_pad_mask (ants)</title>
<ellipse fill="none" stroke="#000000" cx="751" cy="-1674" rx="103.9815" ry="18"/>
<text text-anchor="middle" x="751" y="-1670.3" font-family="Times,serif" font-size="14.00" fill="#000000">03_pad_mask (ants)</text>
</g>
<!-- inputnode (utility)&#45;&gt;03_pad_mask (ants) -->
<g id="edge4" class="edge">
<title>inputnode (utility)&#45;&gt;03_pad_mask (ants)</title>
<path fill="none" stroke="#000000" d="M410.6719,-1802.12C440.9118,-1791.5207 481.41,-1777.1636 517,-1764 580.017,-1740.692 652.1183,-1712.7693 699.4357,-1694.2718"/>
<polygon fill="#000000" stroke="#000000" points="700.8143,-1697.4909 708.8514,-1690.5875 698.2635,-1690.9721 700.8143,-1697.4909"/>
</g>
<!-- 01_atropos (ants) -->
<g id="node6" class="node">
<title>01_atropos (ants)</title>
<ellipse fill="none" stroke="#000000" cx="434" cy="-1602" rx="92.0841" ry="18"/>
<text text-anchor="middle" x="434" y="-1598.3" font-family="Times,serif" font-size="14.00" fill="#000000">01_atropos (ants)</text>
</g>
<!-- inputnode (utility)&#45;&gt;01_atropos (ants) -->
<g id="edge5" class="edge">
<title>inputnode (utility)&#45;&gt;01_atropos (ants)</title>
<path fill="none" stroke="#000000" d="M425.2565,-1803.9366C446.4216,-1795.8534 468.1161,-1783.3101 481,-1764 507.6509,-1724.0562 501.5198,-1700.7083 484,-1656 479.7528,-1645.1617 472.1956,-1635.1983 464.2225,-1626.8598"/>
<polygon fill="#000000" stroke="#000000" points="466.4674,-1624.1602 456.8662,-1619.6804 461.5782,-1629.1698 466.4674,-1624.1602"/>
</g>
<!-- inu_n4_final (ants) -->
<g id="node7" class="node">
<title>inu_n4_final (ants)</title>
<ellipse fill="none" stroke="#000000" cx="125" cy="-1386" rx="96.6831" ry="18"/>
<text text-anchor="middle" x="125" y="-1382.3" font-family="Times,serif" font-size="14.00" fill="#000000">inu_n4_final (ants)</text>
</g>
<!-- inputnode (utility)&#45;&gt;inu_n4_final (ants) -->
<g id="edge6" class="edge">
<title>inputnode (utility)&#45;&gt;inu_n4_final (ants)</title>
<path fill="none" stroke="#000000" d="M292.9921,-1806.1536C222.2986,-1789.9256 125,-1753.2038 125,-1674 125,-1674 125,-1674 125,-1530 125,-1489.876 125,-1443.4631 125,-1414.4177"/>
<polygon fill="#000000" stroke="#000000" points="128.5001,-1414.1853 125,-1404.1854 121.5001,-1414.1854 128.5001,-1414.1853"/>
</g>
<!-- msk_conform (utility) -->
<g id="node8" class="node">
<title>msk_conform (utility)</title>
<ellipse fill="none" stroke="#000000" cx="817" cy="-234" rx="111.2805" ry="18"/>
<text text-anchor="middle" x="817" y="-230.3" font-family="Times,serif" font-size="14.00" fill="#000000">msk_conform (utility)</text>
</g>
<!-- inputnode (utility)&#45;&gt;msk_conform (utility) -->
<g id="edge7" class="edge">
<title>inputnode (utility)&#45;&gt;msk_conform (utility)</title>
<path fill="none" stroke="#000000" d="M458.4375,-1814.7217C626.625,-1806.2578 963,-1776.5156 963,-1674 963,-1674 963,-1674 963,-378 963,-336.8223 967.5246,-319.4968 941,-288 927.547,-272.0252 908.4735,-260.6324 889.3091,-252.566"/>
<polygon fill="#000000" stroke="#000000" points="890.505,-249.2754 879.918,-248.8678 887.9401,-255.7886 890.505,-249.2754"/>
</g>
<!-- get_brainmask (ants) -->
<g id="node9" class="node">
<title>get_brainmask (ants)</title>
<ellipse fill="none" stroke="#000000" cx="365" cy="-1674" rx="109.6807" ry="18"/>
<text text-anchor="middle" x="365" y="-1670.3" font-family="Times,serif" font-size="14.00" fill="#000000">get_brainmask (ants)</text>
</g>
<!-- dil_brainmask (ants)&#45;&gt;get_brainmask (ants) -->
<g id="edge8" class="edge">
<title>dil_brainmask (ants)&#45;&gt;get_brainmask (ants)</title>
<path fill="none" stroke="#000000" d="M365,-1727.8314C365,-1720.131 365,-1710.9743 365,-1702.4166"/>
<polygon fill="#000000" stroke="#000000" points="368.5001,-1702.4132 365,-1692.4133 361.5001,-1702.4133 368.5001,-1702.4132"/>
</g>
<!-- apply_mask (nibabel) -->
<g id="node10" class="node">
<title>apply_mask (nibabel)</title>
<ellipse fill="none" stroke="#000000" cx="383" cy="-90" rx="109.6807" ry="18"/>
<text text-anchor="middle" x="383" y="-86.3" font-family="Times,serif" font-size="14.00" fill="#000000">apply_mask (nibabel)</text>
</g>
<!-- copy_xform (utils)&#45;&gt;apply_mask (nibabel) -->
<g id="edge9" class="edge">
<title>copy_xform (utils)&#45;&gt;apply_mask (nibabel)</title>
<path fill="none" stroke="#000000" d="M331.0562,-144.2022C339.4325,-135.4617 349.6705,-124.7786 358.8362,-115.2144"/>
<polygon fill="#000000" stroke="#000000" points="361.5088,-117.4841 365.9009,-107.8425 356.4548,-112.6408 361.5088,-117.4841"/>
</g>
<!-- outputnode (utility) -->
<g id="node11" class="node">
<title>outputnode (utility)</title>
<ellipse fill="none" stroke="#000000" cx="314" cy="-18" rx="101.2821" ry="18"/>
<text text-anchor="middle" x="314" y="-14.3" font-family="Times,serif" font-size="14.00" fill="#000000">outputnode (utility)</text>
</g>
<!-- copy_xform (utils)&#45;&gt;outputnode (utility) -->
<g id="edge10" class="edge">
<title>copy_xform (utils)&#45;&gt;outputnode (utility)</title>
<path fill="none" stroke="#000000" d="M291.1338,-144.3196C280.7414,-134.8197 269.5473,-122.1561 264,-108 258.1623,-93.103 258.1623,-86.897 264,-72 268.2472,-61.1617 275.8044,-51.1983 283.7775,-42.8598"/>
<polygon fill="#000000" stroke="#000000" points="286.4218,-45.1698 291.1338,-35.6804 281.5326,-40.1602 286.4218,-45.1698"/>
</g>
<!-- copy_xform_wm (utils)&#45;&gt;inu_n4_final (ants) -->
<g id="edge11" class="edge">
<title>copy_xform_wm (utils)&#45;&gt;inu_n4_final (ants)</title>
<path fill="none" stroke="#000000" d="M234.5084,-1440.7542C214.649,-1430.8245 189.5075,-1418.2537 168.3243,-1407.6622"/>
<polygon fill="#000000" stroke="#000000" points="169.7197,-1404.4468 159.2101,-1403.1051 166.5892,-1410.7078 169.7197,-1404.4468"/>
</g>
<!-- 20_add_7_2 (ants) -->
<g id="node12" class="node">
<title>20_add_7_2 (ants)</title>
<ellipse fill="none" stroke="#000000" cx="817" cy="-522" rx="95.5831" ry="18"/>
<text text-anchor="middle" x="817" y="-518.3" font-family="Times,serif" font-size="14.00" fill="#000000">20_add_7_2 (ants)</text>
</g>
<!-- 03_pad_mask (ants)&#45;&gt;20_add_7_2 (ants) -->
<g id="edge12" class="edge">
<title>03_pad_mask (ants)&#45;&gt;20_add_7_2 (ants)</title>
<path fill="none" stroke="#000000" d="M799.0069,-1657.8183C850.5098,-1637.0581 925,-1595.6793 925,-1530 925,-1530 925,-1530 925,-666 925,-623.8363 920.2982,-609.731 895,-576 885.6058,-563.4744 872.4329,-552.8051 859.583,-544.3407"/>
<polygon fill="#000000" stroke="#000000" points="861.1226,-541.1753 850.7889,-538.8372 857.4091,-547.1091 861.1226,-541.1753"/>
</g>
<!-- 02_pad_segm (ants) -->
<g id="node13" class="node">
<title>02_pad_segm (ants)</title>
<ellipse fill="none" stroke="#000000" cx="543" cy="-1530" rx="103.9815" ry="18"/>
<text text-anchor="middle" x="543" y="-1526.3" font-family="Times,serif" font-size="14.00" fill="#000000">02_pad_segm (ants)</text>
</g>
<!-- 01_atropos (ants)&#45;&gt;02_pad_segm (ants) -->
<g id="edge13" class="edge">
<title>01_atropos (ants)&#45;&gt;02_pad_segm (ants)</title>
<path fill="none" stroke="#000000" d="M460.3859,-1584.5708C474.6064,-1575.1774 492.3436,-1563.4611 507.7335,-1553.2953"/>
<polygon fill="#000000" stroke="#000000" points="510.0644,-1555.9503 516.4793,-1547.5182 506.2063,-1550.1095 510.0644,-1555.9503"/>
</g>
<!-- sel_wm (utility) -->
<g id="node14" class="node">
<title>sel_wm (utility)</title>
<ellipse fill="none" stroke="#000000" cx="338" cy="-1530" rx="83.3857" ry="18"/>
<text text-anchor="middle" x="338" y="-1526.3" font-family="Times,serif" font-size="14.00" fill="#000000">sel_wm (utility)</text>
</g>
<!-- 01_atropos (ants)&#45;&gt;sel_wm (utility) -->
<g id="edge14" class="edge">
<title>01_atropos (ants)&#45;&gt;sel_wm (utility)</title>
<path fill="none" stroke="#000000" d="M410.7611,-1584.5708C398.3536,-1575.2652 382.9065,-1563.6799 369.4409,-1553.5807"/>
<polygon fill="#000000" stroke="#000000" points="371.4577,-1550.7183 361.3577,-1547.5182 367.2577,-1556.3183 371.4577,-1550.7183"/>
</g>
<!-- inu_n4_final (ants)&#45;&gt;copy_xform (utils) -->
<g id="edge15" class="edge">
<title>inu_n4_final (ants)&#45;&gt;copy_xform (utils)</title>
<path fill="none" stroke="#000000" d="M123.5496,-1367.8284C121.4993,-1340.5296 118,-1287.3034 118,-1242 118,-1242 118,-1242 118,-306 118,-239.5413 192.0893,-200.3702 249.1644,-180.0546"/>
<polygon fill="#000000" stroke="#000000" points="250.5612,-183.2755 258.8815,-176.7164 248.2868,-176.6553 250.5612,-183.2755"/>
</g>
<!-- msk_conform (utility)&#45;&gt;copy_xform (utils) -->
<g id="edge16" class="edge">
<title>msk_conform (utility)&#45;&gt;copy_xform (utils)</title>
<path fill="none" stroke="#000000" d="M733.6576,-222.0703C641.3948,-208.8637 493.4102,-187.681 400.0672,-174.3198"/>
<polygon fill="#000000" stroke="#000000" points="400.4818,-170.8435 390.0867,-172.8911 399.4899,-177.7729 400.4818,-170.8435"/>
</g>
<!-- get_brainmask (ants)&#45;&gt;01_atropos (ants) -->
<g id="edge17" class="edge">
<title>get_brainmask (ants)&#45;&gt;01_atropos (ants)</title>
<path fill="none" stroke="#000000" d="M382.0562,-1656.2022C390.4325,-1647.4617 400.6705,-1636.7786 409.8362,-1627.2144"/>
<polygon fill="#000000" stroke="#000000" points="412.5088,-1629.4841 416.9009,-1619.8425 407.4548,-1624.6408 412.5088,-1629.4841"/>
</g>
<!-- apply_mask (nibabel)&#45;&gt;outputnode (utility) -->
<g id="edge18" class="edge">
<title>apply_mask (nibabel)&#45;&gt;outputnode (utility)</title>
<path fill="none" stroke="#000000" d="M365.9438,-72.2022C357.5675,-63.4617 347.3295,-52.7786 338.1638,-43.2144"/>
<polygon fill="#000000" stroke="#000000" points="340.5452,-40.6408 331.0991,-35.8425 335.4912,-45.4841 340.5452,-40.6408"/>
</g>
<!-- 21_md_7_2 (ants) -->
<g id="node35" class="node">
<title>21_md_7_2 (ants)</title>
<ellipse fill="none" stroke="#000000" cx="817" cy="-450" rx="92.8835" ry="18"/>
<text text-anchor="middle" x="817" y="-446.3" font-family="Times,serif" font-size="14.00" fill="#000000">21_md_7_2 (ants)</text>
</g>
<!-- 20_add_7_2 (ants)&#45;&gt;21_md_7_2 (ants) -->
<g id="edge19" class="edge">
<title>20_add_7_2 (ants)&#45;&gt;21_md_7_2 (ants)</title>
<path fill="none" stroke="#000000" d="M817,-503.8314C817,-496.131 817,-486.9743 817,-478.4166"/>
<polygon fill="#000000" stroke="#000000" points="820.5001,-478.4132 817,-468.4133 813.5001,-478.4133 820.5001,-478.4132"/>
</g>
<!-- 04_sel_labels (utility) -->
<g id="node15" class="node">
<title>04_sel_labels (utility)</title>
<ellipse fill="none" stroke="#000000" cx="543" cy="-1458" rx="110.4804" ry="18"/>
<text text-anchor="middle" x="543" y="-1454.3" font-family="Times,serif" font-size="14.00" fill="#000000">04_sel_labels (utility)</text>
</g>
<!-- 02_pad_segm (ants)&#45;&gt;04_sel_labels (utility) -->
<g id="edge20" class="edge">
<title>02_pad_segm (ants)&#45;&gt;04_sel_labels (utility)</title>
<path fill="none" stroke="#000000" d="M543,-1511.8314C543,-1504.131 543,-1494.9743 543,-1486.4166"/>
<polygon fill="#000000" stroke="#000000" points="546.5001,-1486.4132 543,-1476.4133 539.5001,-1486.4133 546.5001,-1486.4132"/>
</g>
<!-- sel_wm (utility)&#45;&gt;copy_xform_wm (utils) -->
<g id="edge21" class="edge">
<title>sel_wm (utility)&#45;&gt;copy_xform_wm (utils)</title>
<path fill="none" stroke="#000000" d="M320.9438,-1512.2022C312.5675,-1503.4617 302.3295,-1492.7786 293.1638,-1483.2144"/>
<polygon fill="#000000" stroke="#000000" points="295.5452,-1480.6408 286.0991,-1475.8425 290.4912,-1485.4841 295.5452,-1480.6408"/>
</g>
<!-- 05_get_wm (ants) -->
<g id="node16" class="node">
<title>05_get_wm (ants)</title>
<ellipse fill="none" stroke="#000000" cx="372" cy="-1314" rx="93.6835" ry="18"/>
<text text-anchor="middle" x="372" y="-1310.3" font-family="Times,serif" font-size="14.00" fill="#000000">05_get_wm (ants)</text>
</g>
<!-- 04_sel_labels (utility)&#45;&gt;05_get_wm (ants) -->
<g id="edge22" class="edge">
<title>04_sel_labels (utility)&#45;&gt;05_get_wm (ants)</title>
<path fill="none" stroke="#000000" d="M521.6885,-1440.0535C491.1866,-1414.3677 435.0002,-1367.0528 400.8157,-1338.2659"/>
<polygon fill="#000000" stroke="#000000" points="402.9465,-1335.4846 393.0429,-1331.7204 398.4376,-1340.8389 402.9465,-1335.4846"/>
</g>
<!-- 06_get_gm (ants) -->
<g id="node17" class="node">
<title>06_get_gm (ants)</title>
<ellipse fill="none" stroke="#000000" cx="770" cy="-1386" rx="91.784" ry="18"/>
<text text-anchor="middle" x="770" y="-1382.3" font-family="Times,serif" font-size="14.00" fill="#000000">06_get_gm (ants)</text>
</g>
<!-- 04_sel_labels (utility)&#45;&gt;06_get_gm (ants) -->
<g id="edge23" class="edge">
<title>04_sel_labels (utility)&#45;&gt;06_get_gm (ants)</title>
<path fill="none" stroke="#000000" d="M593.6607,-1441.9314C628.6859,-1430.8221 675.3692,-1416.0151 711.9041,-1404.4269"/>
<polygon fill="#000000" stroke="#000000" points="712.9661,-1407.762 721.4399,-1401.4023 710.8497,-1401.0896 712.9661,-1407.762"/>
</g>
<!-- 10_me_csf (ants) -->
<g id="node18" class="node">
<title>10_me_csf (ants)</title>
<ellipse fill="none" stroke="#000000" cx="573" cy="-1314" rx="89.8845" ry="18"/>
<text text-anchor="middle" x="573" y="-1310.3" font-family="Times,serif" font-size="14.00" fill="#000000">10_me_csf (ants)</text>
</g>
<!-- 04_sel_labels (utility)&#45;&gt;10_me_csf (ants) -->
<g id="edge24" class="edge">
<title>04_sel_labels (utility)&#45;&gt;10_me_csf (ants)</title>
<path fill="none" stroke="#000000" d="M546.7995,-1439.7623C551.939,-1415.0928 561.1542,-1370.8598 567.1723,-1341.9731"/>
<polygon fill="#000000" stroke="#000000" points="570.6181,-1342.5933 569.2313,-1332.0896 563.7653,-1341.1656 570.6181,-1342.5933"/>
</g>
<!-- 27_depad_csf (ants) -->
<g id="node19" class="node">
<title>27_depad_csf (ants)</title>
<ellipse fill="none" stroke="#000000" cx="250" cy="-1242" rx="103.9815" ry="18"/>
<text text-anchor="middle" x="250" y="-1238.3" font-family="Times,serif" font-size="14.00" fill="#000000">27_depad_csf (ants)</text>
</g>
<!-- 04_sel_labels (utility)&#45;&gt;27_depad_csf (ants) -->
<g id="edge25" class="edge">
<title>04_sel_labels (utility)&#45;&gt;27_depad_csf (ants)</title>
<path fill="none" stroke="#000000" d="M472.0493,-1444.172C409.1189,-1428.1217 319.5632,-1395.3109 269,-1332 255.1258,-1314.628 250.7227,-1289.5336 249.5927,-1270.2538"/>
<polygon fill="#000000" stroke="#000000" points="253.0898,-1270.1062 249.2623,-1260.227 246.0936,-1270.3368 253.0898,-1270.1062"/>
</g>
<!-- 09_relabel_wm (ants) -->
<g id="node20" class="node">
<title>09_relabel_wm (ants)</title>
<ellipse fill="none" stroke="#000000" cx="382" cy="-1098" rx="110.4804" ry="18"/>
<text text-anchor="middle" x="382" y="-1094.3" font-family="Times,serif" font-size="14.00" fill="#000000">09_relabel_wm (ants)</text>
</g>
<!-- 05_get_wm (ants)&#45;&gt;09_relabel_wm (ants) -->
<g id="edge26" class="edge">
<title>05_get_wm (ants)&#45;&gt;09_relabel_wm (ants)</title>
<path fill="none" stroke="#000000" d="M372.8354,-1295.9555C374.5744,-1258.3938 378.5947,-1171.5541 380.6847,-1126.4103"/>
<polygon fill="#000000" stroke="#000000" points="384.1936,-1126.2963 381.16,-1116.1451 377.2011,-1125.9725 384.1936,-1126.2963"/>
</g>
<!-- 07_fill_gm (ants) -->
<g id="node21" class="node">
<title>07_fill_gm (ants)</title>
<ellipse fill="none" stroke="#000000" cx="770" cy="-1314" rx="89.0842" ry="18"/>
<text text-anchor="middle" x="770" y="-1310.3" font-family="Times,serif" font-size="14.00" fill="#000000">07_fill_gm (ants)</text>
</g>
<!-- 06_get_gm (ants)&#45;&gt;07_fill_gm (ants) -->
<g id="edge27" class="edge">
<title>06_get_gm (ants)&#45;&gt;07_fill_gm (ants)</title>
<path fill="none" stroke="#000000" d="M770,-1367.8314C770,-1360.131 770,-1350.9743 770,-1342.4166"/>
<polygon fill="#000000" stroke="#000000" points="773.5001,-1342.4132 770,-1332.4133 766.5001,-1342.4133 773.5001,-1342.4132"/>
</g>
<!-- 08_mult_gm (ants) -->
<g id="node22" class="node">
<title>08_mult_gm (ants)</title>
<ellipse fill="none" stroke="#000000" cx="770" cy="-1242" rx="98.2828" ry="18"/>
<text text-anchor="middle" x="770" y="-1238.3" font-family="Times,serif" font-size="14.00" fill="#000000">08_mult_gm (ants)</text>
</g>
<!-- 06_get_gm (ants)&#45;&gt;08_mult_gm (ants) -->
<g id="edge28" class="edge">
<title>06_get_gm (ants)&#45;&gt;08_mult_gm (ants)</title>
<path fill="none" stroke="#000000" d="M819.6914,-1370.8354C838.2199,-1362.4967 857.3291,-1350.0635 868,-1332 876.138,-1318.2242 876.138,-1309.7758 868,-1296 859.2037,-1281.1098 844.6734,-1270.0454 829.4611,-1261.9467"/>
<polygon fill="#000000" stroke="#000000" points="830.981,-1258.7938 820.4637,-1257.5145 827.8877,-1265.0733 830.981,-1258.7938"/>
</g>
<!-- 11_add_gm (ants) -->
<g id="node23" class="node">
<title>11_add_gm (ants)</title>
<ellipse fill="none" stroke="#000000" cx="695" cy="-1170" rx="93.6835" ry="18"/>
<text text-anchor="middle" x="695" y="-1166.3" font-family="Times,serif" font-size="14.00" fill="#000000">11_add_gm (ants)</text>
</g>
<!-- 10_me_csf (ants)&#45;&gt;11_add_gm (ants) -->
<g id="edge29" class="edge">
<title>10_me_csf (ants)&#45;&gt;11_add_gm (ants)</title>
<path fill="none" stroke="#000000" d="M588.2047,-1296.0535C609.5741,-1270.8306 648.6134,-1224.7514 673.1075,-1195.8403"/>
<polygon fill="#000000" stroke="#000000" points="675.8099,-1198.0651 679.6037,-1188.1727 670.469,-1193.5401 675.8099,-1198.0651"/>
</g>
<!-- merge_tpms (utility) -->
<g id="node38" class="node">
<title>merge_tpms (utility)</title>
<ellipse fill="none" stroke="#000000" cx="314" cy="-954" rx="106.6812" ry="18"/>
<text text-anchor="middle" x="314" y="-950.3" font-family="Times,serif" font-size="14.00" fill="#000000">merge_tpms (utility)</text>
</g>
<!-- 27_depad_csf (ants)&#45;&gt;merge_tpms (utility) -->
<g id="edge30" class="edge">
<title>27_depad_csf (ants)&#45;&gt;merge_tpms (utility)</title>
<path fill="none" stroke="#000000" d="M237.604,-1224.0053C210.7347,-1182.5614 153.033,-1078.5335 198,-1008 208.1766,-992.0374 224.4322,-980.7184 241.5919,-972.7202"/>
<polygon fill="#000000" stroke="#000000" points="243.3717,-975.7654 251.1852,-968.61 240.6149,-969.3311 243.3717,-975.7654"/>
</g>
<!-- 13_add_gm_wm (ants) -->
<g id="node24" class="node">
<title>13_add_gm_wm (ants)</title>
<ellipse fill="none" stroke="#000000" cx="781" cy="-1026" rx="115.0796" ry="18"/>
<text text-anchor="middle" x="781" y="-1022.3" font-family="Times,serif" font-size="14.00" fill="#000000">13_add_gm_wm (ants)</text>
</g>
<!-- 09_relabel_wm (ants)&#45;&gt;13_add_gm_wm (ants) -->
<g id="edge31" class="edge">
<title>09_relabel_wm (ants)&#45;&gt;13_add_gm_wm (ants)</title>
<path fill="none" stroke="#000000" d="M456.1137,-1084.6261C524.0229,-1072.3718 624.5289,-1054.2354 695.7418,-1041.3849"/>
<polygon fill="#000000" stroke="#000000" points="696.3699,-1044.8282 705.5894,-1039.6079 695.1267,-1037.9395 696.3699,-1044.8282"/>
</g>
<!-- 26_depad_wm (ants) -->
<g id="node25" class="node">
<title>26_depad_wm (ants)</title>
<ellipse fill="none" stroke="#000000" cx="314" cy="-1026" rx="106.6812" ry="18"/>
<text text-anchor="middle" x="314" y="-1022.3" font-family="Times,serif" font-size="14.00" fill="#000000">26_depad_wm (ants)</text>
</g>
<!-- 09_relabel_wm (ants)&#45;&gt;26_depad_wm (ants) -->
<g id="edge32" class="edge">
<title>09_relabel_wm (ants)&#45;&gt;26_depad_wm (ants)</title>
<path fill="none" stroke="#000000" d="M365.191,-1080.2022C356.9361,-1071.4617 346.8465,-1060.7786 337.8136,-1051.2144"/>
<polygon fill="#000000" stroke="#000000" points="340.2621,-1048.7095 330.8513,-1043.8425 335.173,-1053.5159 340.2621,-1048.7095"/>
</g>
<!-- 07_fill_gm (ants)&#45;&gt;08_mult_gm (ants) -->
<g id="edge33" class="edge">
<title>07_fill_gm (ants)&#45;&gt;08_mult_gm (ants)</title>
<path fill="none" stroke="#000000" d="M770,-1295.8314C770,-1288.131 770,-1278.9743 770,-1270.4166"/>
<polygon fill="#000000" stroke="#000000" points="773.5001,-1270.4132 770,-1260.4133 766.5001,-1270.4133 773.5001,-1270.4132"/>
</g>
<!-- 08_mult_gm (ants)&#45;&gt;11_add_gm (ants) -->
<g id="edge34" class="edge">
<title>08_mult_gm (ants)&#45;&gt;11_add_gm (ants)</title>
<path fill="none" stroke="#000000" d="M751.4607,-1224.2022C742.2658,-1215.3752 731.0072,-1204.5669 720.9695,-1194.9307"/>
<polygon fill="#000000" stroke="#000000" points="723.2238,-1192.243 713.586,-1187.8425 718.376,-1197.2928 723.2238,-1192.243"/>
</g>
<!-- 12_relabel_gm (ants) -->
<g id="node26" class="node">
<title>12_relabel_gm (ants)</title>
<ellipse fill="none" stroke="#000000" cx="695" cy="-1098" rx="108.5808" ry="18"/>
<text text-anchor="middle" x="695" y="-1094.3" font-family="Times,serif" font-size="14.00" fill="#000000">12_relabel_gm (ants)</text>
</g>
<!-- 11_add_gm (ants)&#45;&gt;12_relabel_gm (ants) -->
<g id="edge35" class="edge">
<title>11_add_gm (ants)&#45;&gt;12_relabel_gm (ants)</title>
<path fill="none" stroke="#000000" d="M695,-1151.8314C695,-1144.131 695,-1134.9743 695,-1126.4166"/>
<polygon fill="#000000" stroke="#000000" points="698.5001,-1126.4132 695,-1116.4133 691.5001,-1126.4133 698.5001,-1126.4132"/>
</g>
<!-- 14_sel_labels2 (utility) -->
<g id="node28" class="node">
<title>14_sel_labels2 (utility)</title>
<ellipse fill="none" stroke="#000000" cx="781" cy="-954" rx="116.1796" ry="18"/>
<text text-anchor="middle" x="781" y="-950.3" font-family="Times,serif" font-size="14.00" fill="#000000">14_sel_labels2 (utility)</text>
</g>
<!-- 13_add_gm_wm (ants)&#45;&gt;14_sel_labels2 (utility) -->
<g id="edge36" class="edge">
<title>13_add_gm_wm (ants)&#45;&gt;14_sel_labels2 (utility)</title>
<path fill="none" stroke="#000000" d="M781,-1007.8314C781,-1000.131 781,-990.9743 781,-982.4166"/>
<polygon fill="#000000" stroke="#000000" points="784.5001,-982.4132 781,-972.4133 777.5001,-982.4133 784.5001,-982.4132"/>
</g>
<!-- 24_depad_segm (ants) -->
<g id="node29" class="node">
<title>24_depad_segm (ants)</title>
<ellipse fill="none" stroke="#000000" cx="502" cy="-882" rx="115.0796" ry="18"/>
<text text-anchor="middle" x="502" y="-878.3" font-family="Times,serif" font-size="14.00" fill="#000000">24_depad_segm (ants)</text>
</g>
<!-- 13_add_gm_wm (ants)&#45;&gt;24_depad_segm (ants) -->
<g id="edge37" class="edge">
<title>13_add_gm_wm (ants)&#45;&gt;24_depad_segm (ants)</title>
<path fill="none" stroke="#000000" d="M738.7506,-1009.2442C714.2507,-999.1589 683.0007,-985.6589 656,-972 614.754,-951.1349 569.2513,-924.0041 538.4781,-905.0078"/>
<polygon fill="#000000" stroke="#000000" points="540.1568,-901.9305 529.8138,-899.634 536.4672,-907.8792 540.1568,-901.9305"/>
</g>
<!-- 26_depad_wm (ants)&#45;&gt;merge_tpms (utility) -->
<g id="edge38" class="edge">
<title>26_depad_wm (ants)&#45;&gt;merge_tpms (utility)</title>
<path fill="none" stroke="#000000" d="M314,-1007.8314C314,-1000.131 314,-990.9743 314,-982.4166"/>
<polygon fill="#000000" stroke="#000000" points="317.5001,-982.4132 314,-972.4133 310.5001,-982.4133 317.5001,-982.4132"/>
</g>
<!-- 12_relabel_gm (ants)&#45;&gt;13_add_gm_wm (ants) -->
<g id="edge39" class="edge">
<title>12_relabel_gm (ants)&#45;&gt;13_add_gm_wm (ants)</title>
<path fill="none" stroke="#000000" d="M716.2584,-1080.2022C727.0086,-1071.2021 740.219,-1060.1423 751.8971,-1050.3652"/>
<polygon fill="#000000" stroke="#000000" points="754.2673,-1052.9456 759.6881,-1043.8425 749.7737,-1047.5783 754.2673,-1052.9456"/>
</g>
<!-- 25_depad_gm (ants) -->
<g id="node27" class="node">
<title>25_depad_gm (ants)</title>
<ellipse fill="none" stroke="#000000" cx="543" cy="-1026" rx="104.7816" ry="18"/>
<text text-anchor="middle" x="543" y="-1022.3" font-family="Times,serif" font-size="14.00" fill="#000000">25_depad_gm (ants)</text>
</g>
<!-- 12_relabel_gm (ants)&#45;&gt;25_depad_gm (ants) -->
<g id="edge40" class="edge">
<title>12_relabel_gm (ants)&#45;&gt;25_depad_gm (ants)</title>
<path fill="none" stroke="#000000" d="M658.9781,-1080.937C637.6822,-1070.8495 610.5318,-1057.9887 587.8547,-1047.247"/>
<polygon fill="#000000" stroke="#000000" points="589.299,-1044.0584 578.7633,-1042.9405 586.3024,-1050.3845 589.299,-1044.0584"/>
</g>
<!-- 25_depad_gm (ants)&#45;&gt;merge_tpms (utility) -->
<g id="edge41" class="edge">
<title>25_depad_gm (ants)&#45;&gt;merge_tpms (utility)</title>
<path fill="none" stroke="#000000" d="M492.745,-1010.1993C457.8165,-999.2174 411.095,-984.5277 374.1792,-972.921"/>
<polygon fill="#000000" stroke="#000000" points="375.1224,-969.5487 364.533,-969.8881 373.0228,-976.2264 375.1224,-969.5487"/>
</g>
<!-- 15_add_7 (ants) -->
<g id="node30" class="node">
<title>15_add_7 (ants)</title>
<ellipse fill="none" stroke="#000000" cx="784" cy="-882" rx="85.2851" ry="18"/>
<text text-anchor="middle" x="784" y="-878.3" font-family="Times,serif" font-size="14.00" fill="#000000">15_add_7 (ants)</text>
</g>
<!-- 14_sel_labels2 (utility)&#45;&gt;15_add_7 (ants) -->
<g id="edge42" class="edge">
<title>14_sel_labels2 (utility)&#45;&gt;15_add_7 (ants)</title>
<path fill="none" stroke="#000000" d="M781.757,-935.8314C782.0779,-928.131 782.4594,-918.9743 782.816,-910.4166"/>
<polygon fill="#000000" stroke="#000000" points="786.3133,-910.5503 783.2328,-900.4133 779.3194,-910.2589 786.3133,-910.5503"/>
</g>
<!-- 24_depad_segm (ants)&#45;&gt;copy_xform (utils) -->
<g id="edge43" class="edge">
<title>24_depad_segm (ants)&#45;&gt;copy_xform (utils)</title>
<path fill="none" stroke="#000000" d="M485.1331,-864.0553C462.7429,-838.2804 426,-788.3175 426,-738 426,-738 426,-738 426,-306 426,-254.9049 381.5207,-211.0211 348.6227,-185.5514"/>
<polygon fill="#000000" stroke="#000000" points="350.6395,-182.689 340.5424,-179.4797 346.4344,-188.2851 350.6395,-182.689"/>
</g>
<!-- 16_me_7 (ants) -->
<g id="node31" class="node">
<title>16_me_7 (ants)</title>
<ellipse fill="none" stroke="#000000" cx="787" cy="-810" rx="81.7856" ry="18"/>
<text text-anchor="middle" x="787" y="-806.3" font-family="Times,serif" font-size="14.00" fill="#000000">16_me_7 (ants)</text>
</g>
<!-- 15_add_7 (ants)&#45;&gt;16_me_7 (ants) -->
<g id="edge44" class="edge">
<title>15_add_7 (ants)&#45;&gt;16_me_7 (ants)</title>
<path fill="none" stroke="#000000" d="M784.757,-863.8314C785.0779,-856.131 785.4594,-846.9743 785.816,-838.4166"/>
<polygon fill="#000000" stroke="#000000" points="789.3133,-838.5503 786.2328,-828.4133 782.3194,-838.2589 789.3133,-838.5503"/>
</g>
<!-- 17_comp_7 (ants) -->
<g id="node32" class="node">
<title>17_comp_7 (ants)</title>
<ellipse fill="none" stroke="#000000" cx="798" cy="-738" rx="92.8835" ry="18"/>
<text text-anchor="middle" x="798" y="-734.3" font-family="Times,serif" font-size="14.00" fill="#000000">17_comp_7 (ants)</text>
</g>
<!-- 16_me_7 (ants)&#45;&gt;17_comp_7 (ants) -->
<g id="edge45" class="edge">
<title>16_me_7 (ants)&#45;&gt;17_comp_7 (ants)</title>
<path fill="none" stroke="#000000" d="M789.7758,-791.8314C790.9522,-784.131 792.3511,-774.9743 793.6586,-766.4166"/>
<polygon fill="#000000" stroke="#000000" points="797.1364,-766.8272 795.1869,-756.4133 790.2167,-765.7699 797.1364,-766.8272"/>
</g>
<!-- 18_md_7 (ants) -->
<g id="node33" class="node">
<title>18_md_7 (ants)</title>
<ellipse fill="none" stroke="#000000" cx="803" cy="-666" rx="82.5854" ry="18"/>
<text text-anchor="middle" x="803" y="-662.3" font-family="Times,serif" font-size="14.00" fill="#000000">18_md_7 (ants)</text>
</g>
<!-- 17_comp_7 (ants)&#45;&gt;18_md_7 (ants) -->
<g id="edge46" class="edge">
<title>17_comp_7 (ants)&#45;&gt;18_md_7 (ants)</title>
<path fill="none" stroke="#000000" d="M799.2617,-719.8314C799.7965,-712.131 800.4323,-702.9743 801.0266,-694.4166"/>
<polygon fill="#000000" stroke="#000000" points="804.52,-694.6317 801.7213,-684.4133 797.5368,-694.1467 804.52,-694.6317"/>
</g>
<!-- 19_fill_7 (ants) -->
<g id="node34" class="node">
<title>19_fill_7 (ants)</title>
<ellipse fill="none" stroke="#000000" cx="806" cy="-594" rx="79.8859" ry="18"/>
<text text-anchor="middle" x="806" y="-590.3" font-family="Times,serif" font-size="14.00" fill="#000000">19_fill_7 (ants)</text>
</g>
<!-- 18_md_7 (ants)&#45;&gt;19_fill_7 (ants) -->
<g id="edge47" class="edge">
<title>18_md_7 (ants)&#45;&gt;19_fill_7 (ants)</title>
<path fill="none" stroke="#000000" d="M803.757,-647.8314C804.0779,-640.131 804.4594,-630.9743 804.816,-622.4166"/>
<polygon fill="#000000" stroke="#000000" points="808.3133,-622.5503 805.2328,-612.4133 801.3194,-622.2589 808.3133,-622.5503"/>
</g>
<!-- 19_fill_7 (ants)&#45;&gt;20_add_7_2 (ants) -->
<g id="edge48" class="edge">
<title>19_fill_7 (ants)&#45;&gt;20_add_7_2 (ants)</title>
<path fill="none" stroke="#000000" d="M808.7758,-575.8314C809.9522,-568.131 811.3511,-558.9743 812.6586,-550.4166"/>
<polygon fill="#000000" stroke="#000000" points="816.1364,-550.8272 814.1869,-540.4133 809.2167,-549.7699 816.1364,-550.8272"/>
</g>
<!-- 22_me_7_2 (ants) -->
<g id="node36" class="node">
<title>22_me_7_2 (ants)</title>
<ellipse fill="none" stroke="#000000" cx="817" cy="-378" rx="92.8835" ry="18"/>
<text text-anchor="middle" x="817" y="-374.3" font-family="Times,serif" font-size="14.00" fill="#000000">22_me_7_2 (ants)</text>
</g>
<!-- 21_md_7_2 (ants)&#45;&gt;22_me_7_2 (ants) -->
<g id="edge49" class="edge">
<title>21_md_7_2 (ants)&#45;&gt;22_me_7_2 (ants)</title>
<path fill="none" stroke="#000000" d="M817,-431.8314C817,-424.131 817,-414.9743 817,-406.4166"/>
<polygon fill="#000000" stroke="#000000" points="820.5001,-406.4132 817,-396.4133 813.5001,-406.4133 820.5001,-406.4132"/>
</g>
<!-- 23_depad_mask (ants) -->
<g id="node37" class="node">
<title>23_depad_mask (ants)</title>
<ellipse fill="none" stroke="#000000" cx="817" cy="-306" rx="115.0796" ry="18"/>
<text text-anchor="middle" x="817" y="-302.3" font-family="Times,serif" font-size="14.00" fill="#000000">23_depad_mask (ants)</text>
</g>
<!-- 22_me_7_2 (ants)&#45;&gt;23_depad_mask (ants) -->
<g id="edge50" class="edge">
<title>22_me_7_2 (ants)&#45;&gt;23_depad_mask (ants)</title>
<path fill="none" stroke="#000000" d="M817,-359.8314C817,-352.131 817,-342.9743 817,-334.4166"/>
<polygon fill="#000000" stroke="#000000" points="820.5001,-334.4132 817,-324.4133 813.5001,-334.4133 820.5001,-334.4132"/>
</g>
<!-- 23_depad_mask (ants)&#45;&gt;msk_conform (utility) -->
<g id="edge51" class="edge">
<title>23_depad_mask (ants)&#45;&gt;msk_conform (utility)</title>
<path fill="none" stroke="#000000" d="M817,-287.8314C817,-280.131 817,-270.9743 817,-262.4166"/>
<polygon fill="#000000" stroke="#000000" points="820.5001,-262.4132 817,-252.4133 813.5001,-262.4133 820.5001,-262.4132"/>
</g>
<!-- merge_tpms (utility)&#45;&gt;copy_xform (utils) -->
<g id="edge52" class="edge">
<title>merge_tpms (utility)&#45;&gt;copy_xform (utils)</title>
<path fill="none" stroke="#000000" d="M314,-935.8146C314,-908.4983 314,-855.25 314,-810 314,-810 314,-810 314,-306 314,-265.876 314,-219.4631 314,-190.4177"/>
<polygon fill="#000000" stroke="#000000" points="317.5001,-190.1853 314,-180.1854 310.5001,-190.1854 317.5001,-190.1853"/>
</g>
</g>
</svg>
