<?xml version="1.0" encoding="UTF-8" standalone="no"?>
<!DOCTYPE svg PUBLIC "-//W3C//DTD SVG 1.1//EN"
 "http://www.w3.org/Graphics/SVG/1.1/DTD/svg11.dtd">
<!-- Generated by graphviz version 2.40.1 (20161225.0304)
 -->
<!-- Title: %3 Pages: 1 -->
<svg width="482pt" height="548pt"
 viewBox="0.00 0.00 482.36 548.00" xmlns="http://www.w3.org/2000/svg" xmlns:xlink="http://www.w3.org/1999/xlink">
<g id="graph0" class="graph" transform="scale(1 1) rotate(0) translate(4 544)">
<title>%3</title>
<polygon fill="#ffffff" stroke="transparent" points="-4,4 -4,-544 478.3609,-544 478.3609,4 -4,4"/>
<!-- inputnode (utility) -->
<g id="node1" class="node">
<title>inputnode (utility)</title>
<ellipse fill="none" stroke="#000000" cx="99" cy="-522" rx="94.7833" ry="18"/>
<text text-anchor="middle" x="99" y="-518.3" font-family="Times,serif" font-size="14.00" fill="#000000">inputnode (utility)</text>
</g>
<!-- inu_n4_final (ants) -->
<g id="node2" class="node">
<title>inu_n4_final (ants)</title>
<ellipse fill="none" stroke="#000000" cx="147" cy="-90" rx="96.6831" ry="18"/>
<text text-anchor="middle" x="147" y="-86.3" font-family="Times,serif" font-size="14.00" fill="#000000">inu_n4_final (ants)</text>
</g>
<!-- inputnode (utility)&#45;&gt;inu_n4_final (ants) -->
<g id="edge1" class="edge">
<title>inputnode (utility)&#45;&gt;inu_n4_final (ants)</title>
<path fill="none" stroke="#000000" d="M76.0386,-504.2447C46.793,-479.4346 0,-431.3953 0,-378 0,-378 0,-378 0,-234 0,-176.7994 57.5018,-134.821 100.5782,-111.3989"/>
<polygon fill="#000000" stroke="#000000" points="102.3104,-114.4423 109.5253,-106.6837 99.0469,-108.2496 102.3104,-114.4423"/>
</g>
<!-- binarize (nibabel) -->
<g id="node3" class="node">
<title>binarize (nibabel)</title>
<ellipse fill="none" stroke="#000000" cx="276" cy="-450" rx="92.0841" ry="18"/>
<text text-anchor="middle" x="276" y="-446.3" font-family="Times,serif" font-size="14.00" fill="#000000">binarize (nibabel)</text>
</g>
<!-- inputnode (utility)&#45;&gt;binarize (nibabel) -->
<g id="edge2" class="edge">
<title>inputnode (utility)&#45;&gt;binarize (nibabel)</title>
<path fill="none" stroke="#000000" d="M139.164,-505.6621C165.076,-495.1216 198.9627,-481.3372 226.5307,-470.1231"/>
<polygon fill="#000000" stroke="#000000" points="228.0508,-473.2833 235.9949,-466.2733 225.4131,-466.7993 228.0508,-473.2833"/>
</g>
<!-- inu_n4 (ants) -->
<g id="node4" class="node">
<title>inu_n4 (ants)</title>
<ellipse fill="none" stroke="#000000" cx="99" cy="-378" rx="71.4873" ry="18"/>
<text text-anchor="middle" x="99" y="-374.3" font-family="Times,serif" font-size="14.00" fill="#000000">inu_n4 (ants)</text>
</g>
<!-- inputnode (utility)&#45;&gt;inu_n4 (ants) -->
<g id="edge3" class="edge">
<title>inputnode (utility)&#45;&gt;inu_n4 (ants)</title>
<path fill="none" stroke="#000000" d="M99,-503.7623C99,-479.201 99,-435.2474 99,-406.3541"/>
<polygon fill="#000000" stroke="#000000" points="102.5001,-406.0896 99,-396.0896 95.5001,-406.0897 102.5001,-406.0896"/>
</g>
<!-- outputnode (utility) -->
<g id="node5" class="node">
<title>outputnode (utility)</title>
<ellipse fill="none" stroke="#000000" cx="272" cy="-18" rx="101.2821" ry="18"/>
<text text-anchor="middle" x="272" y="-14.3" font-family="Times,serif" font-size="14.00" fill="#000000">outputnode (utility)</text>
</g>
<!-- inu_n4_final (ants)&#45;&gt;outputnode (utility) -->
<g id="edge4" class="edge">
<title>inu_n4_final (ants)&#45;&gt;outputnode (utility)</title>
<path fill="none" stroke="#000000" d="M176.9406,-72.7542C193.6702,-63.118 214.7178,-50.9945 232.7528,-40.6064"/>
<polygon fill="#000000" stroke="#000000" points="234.9521,-43.3787 241.8705,-35.3546 231.4582,-37.313 234.9521,-43.3787"/>
</g>
<!-- binarize (nibabel)&#45;&gt;outputnode (utility) -->
<g id="edge5" class="edge">
<title>binarize (nibabel)&#45;&gt;outputnode (utility)</title>
<path fill="none" stroke="#000000" d="M340.0348,-436.9898C383.0491,-427.0069 434.5827,-412.2198 450,-396 478.4436,-366.0759 473,-347.2855 473,-306 473,-306 473,-306 473,-162 473,-94.9058 398.0749,-56.0615 339.7145,-35.9819"/>
<polygon fill="#000000" stroke="#000000" points="340.731,-32.6315 330.1375,-32.8012 338.5246,-39.2747 340.731,-32.6315"/>
</g>
<!-- atropos_wf -->
<g id="node6" class="node">
<title>atropos_wf</title>
<ellipse fill="none" stroke="#000000" cx="197" cy="-234" rx="61.99" ry="18"/>
<text text-anchor="middle" x="197" y="-230.3" font-family="Times,serif" font-size="14.00" fill="#000000">atropos_wf</text>
</g>
<!-- binarize (nibabel)&#45;&gt;atropos_wf -->
<g id="edge6" class="edge">
<title>binarize (nibabel)&#45;&gt;atropos_wf</title>
<path fill="none" stroke="#000000" d="M250.3797,-432.6663C238.5467,-423.2516 225.4876,-410.5596 218,-396 195.997,-353.2157 193.9335,-295.9973 195.0452,-262.2618"/>
<polygon fill="#000000" stroke="#000000" points="198.5457,-262.3285 195.4965,-252.182 191.5527,-262.0154 198.5457,-262.3285"/>
</g>
<!-- dil_brainmask (ants) -->
<g id="node7" class="node">
<title>dil_brainmask (ants)</title>
<ellipse fill="none" stroke="#000000" cx="334" cy="-378" rx="106.6812" ry="18"/>
<text text-anchor="middle" x="334" y="-374.3" font-family="Times,serif" font-size="14.00" fill="#000000">dil_brainmask (ants)</text>
</g>
<!-- binarize (nibabel)&#45;&gt;dil_brainmask (ants) -->
<g id="edge7" class="edge">
<title>binarize (nibabel)&#45;&gt;dil_brainmask (ants)</title>
<path fill="none" stroke="#000000" d="M290.3371,-432.2022C297.2386,-423.6348 305.6437,-413.2009 313.2296,-403.7839"/>
<polygon fill="#000000" stroke="#000000" points="316.0792,-405.8258 319.6268,-395.8425 310.6279,-401.4344 316.0792,-405.8258"/>
</g>
<!-- inu_n4 (ants)&#45;&gt;atropos_wf -->
<g id="edge8" class="edge">
<title>inu_n4 (ants)&#45;&gt;atropos_wf</title>
<path fill="none" stroke="#000000" d="M111.2136,-360.0535C128.3254,-334.9096 159.5425,-289.0396 179.2292,-260.1122"/>
<polygon fill="#000000" stroke="#000000" points="182.2075,-261.9567 184.9403,-251.7204 176.4205,-258.0183 182.2075,-261.9567"/>
</g>
<!-- atropos_wf&#45;&gt;outputnode (utility) -->
<g id="edge10" class="edge">
<title>atropos_wf&#45;&gt;outputnode (utility)</title>
<path fill="none" stroke="#000000" d="M217.7224,-216.5448C227.8678,-206.8367 239.3098,-193.9202 246,-180 266.8414,-136.6355 271.4993,-79.9716 272.2564,-46.4355"/>
<polygon fill="#000000" stroke="#000000" points="275.7612,-46.0429 272.3813,-36.0017 268.7617,-45.959 275.7612,-46.0429"/>
</g>
<!-- sel_wm (utility) -->
<g id="node8" class="node">
<title>sel_wm (utility)</title>
<ellipse fill="none" stroke="#000000" cx="154" cy="-162" rx="83.3857" ry="18"/>
<text text-anchor="middle" x="154" y="-158.3" font-family="Times,serif" font-size="14.00" fill="#000000">sel_wm (utility)</text>
</g>
<!-- atropos_wf&#45;&gt;sel_wm (utility) -->
<g id="edge9" class="edge">
<title>atropos_wf&#45;&gt;sel_wm (utility)</title>
<path fill="none" stroke="#000000" d="M186.3708,-216.2022C181.4465,-207.9569 175.4897,-197.9828 170.0355,-188.8501"/>
<polygon fill="#000000" stroke="#000000" points="172.938,-186.884 164.8056,-180.0931 166.9282,-190.4732 172.938,-186.884"/>
</g>
<!-- get_brainmask (ants) -->
<g id="node9" class="node">
<title>get_brainmask (ants)</title>
<ellipse fill="none" stroke="#000000" cx="335" cy="-306" rx="109.6807" ry="18"/>
<text text-anchor="middle" x="335" y="-302.3" font-family="Times,serif" font-size="14.00" fill="#000000">get_brainmask (ants)</text>
</g>
<!-- dil_brainmask (ants)&#45;&gt;get_brainmask (ants) -->
<g id="edge11" class="edge">
<title>dil_brainmask (ants)&#45;&gt;get_brainmask (ants)</title>
<path fill="none" stroke="#000000" d="M334.2523,-359.8314C334.3593,-352.131 334.4865,-342.9743 334.6053,-334.4166"/>
<polygon fill="#000000" stroke="#000000" points="338.1049,-334.4609 334.7443,-324.4133 331.1056,-334.3637 338.1049,-334.4609"/>
</g>
<!-- sel_wm (utility)&#45;&gt;inu_n4_final (ants) -->
<g id="edge12" class="edge">
<title>sel_wm (utility)&#45;&gt;inu_n4_final (ants)</title>
<path fill="none" stroke="#000000" d="M152.2336,-143.8314C151.485,-136.131 150.5947,-126.9743 149.7627,-118.4166"/>
<polygon fill="#000000" stroke="#000000" points="153.2415,-118.0276 148.7902,-108.4133 146.2744,-118.7051 153.2415,-118.0276"/>
</g>
<!-- get_brainmask (ants)&#45;&gt;atropos_wf -->
<g id="edge13" class="edge">
<title>get_brainmask (ants)&#45;&gt;atropos_wf</title>
<path fill="none" stroke="#000000" d="M301.9456,-288.7542C282.219,-278.4621 257.0542,-265.3326 236.312,-254.5106"/>
<polygon fill="#000000" stroke="#000000" points="237.911,-251.3972 227.4261,-249.8745 234.673,-257.6033 237.911,-251.3972"/>
</g>
</g>
</svg>
