<?xml version="1.0" encoding="UTF-8" standalone="no"?>
<!DOCTYPE svg PUBLIC "-//W3C//DTD SVG 1.1//EN"
 "http://www.w3.org/Graphics/SVG/1.1/DTD/svg11.dtd">
<!-- Generated by graphviz version 2.40.1 (20161225.0304)
 -->
<!-- Title: %3 Pages: 1 -->
<svg width="952pt" height="1124pt"
 viewBox="0.00 0.00 951.73 1124.00" xmlns="http://www.w3.org/2000/svg" xmlns:xlink="http://www.w3.org/1999/xlink">
<g id="graph0" class="graph" transform="scale(1 1) rotate(0) translate(4 1120)">
<title>%3</title>
<polygon fill="#ffffff" stroke="transparent" points="-4,4 -4,-1120 947.733,-1120 947.733,4 -4,4"/>
<!-- inputnode (utility) -->
<g id="node1" class="node">
<title>inputnode (utility)</title>
<ellipse fill="none" stroke="#000000" cx="848.733" cy="-1098" rx="94.7833" ry="18"/>
<text text-anchor="middle" x="848.733" y="-1094.3" font-family="Times,serif" font-size="14.00" fill="#000000">inputnode (utility)</text>
</g>
<!-- truncate_images (ants) -->
<g id="node2" class="node">
<title>truncate_images (ants)</title>
<ellipse fill="none" stroke="#000000" cx="549.733" cy="-1026" rx="118.0794" ry="18"/>
<text text-anchor="middle" x="549.733" y="-1022.3" font-family="Times,serif" font-size="14.00" fill="#000000">truncate_images (ants)</text>
</g>
<!-- inputnode (utility)&#45;&gt;truncate_images (ants) -->
<g id="edge1" class="edge">
<title>inputnode (utility)&#45;&gt;truncate_images (ants)</title>
<path fill="none" stroke="#000000" d="M789.6602,-1083.7751C741.8738,-1072.268 674.3431,-1056.0064 623.0951,-1043.6658"/>
<polygon fill="#000000" stroke="#000000" points="623.6148,-1040.1909 613.0732,-1041.2525 621.9759,-1046.9964 623.6148,-1040.1909"/>
</g>
<!-- copy_xform (utils) -->
<g id="node3" class="node">
<title>copy_xform (utils)</title>
<ellipse fill="none" stroke="#000000" cx="819.733" cy="-90" rx="94.7833" ry="18"/>
<text text-anchor="middle" x="819.733" y="-86.3" font-family="Times,serif" font-size="14.00" fill="#000000">copy_xform (utils)</text>
</g>
<!-- inputnode (utility)&#45;&gt;copy_xform (utils) -->
<g id="edge2" class="edge">
<title>inputnode (utility)&#45;&gt;copy_xform (utils)</title>
<path fill="none" stroke="#000000" d="M870.29,-1080.4692C898.319,-1055.5565 943.733,-1007.012 943.733,-954 943.733,-954 943.733,-954 943.733,-234 943.733,-180.8552 894.6358,-137.5761 858.2294,-112.7894"/>
<polygon fill="#000000" stroke="#000000" points="860.0232,-109.7796 849.75,-107.189 856.1654,-115.6207 860.0232,-109.7796"/>
</g>
<!-- inu_n4_final (ants) -->
<g id="node4" class="node">
<title>inu_n4_final (ants)</title>
<ellipse fill="none" stroke="#000000" cx="742.733" cy="-234" rx="96.6831" ry="18"/>
<text text-anchor="middle" x="742.733" y="-230.3" font-family="Times,serif" font-size="14.00" fill="#000000">inu_n4_final (ants)</text>
</g>
<!-- inputnode (utility)&#45;&gt;inu_n4_final (ants) -->
<g id="edge3" class="edge">
<title>inputnode (utility)&#45;&gt;inu_n4_final (ants)</title>
<path fill="none" stroke="#000000" d="M861.1012,-1079.8166C877.8653,-1053.3548 905.733,-1002.1283 905.733,-954 905.733,-954 905.733,-954 905.733,-378 905.733,-317.9971 842.9287,-277.0015 795.2888,-254.5358"/>
<polygon fill="#000000" stroke="#000000" points="796.5366,-251.258 785.9861,-250.2896 793.6299,-257.626 796.5366,-251.258"/>
</g>
<!-- init_aff (ants) -->
<g id="node5" class="node">
<title>init_aff (ants)</title>
<ellipse fill="none" stroke="#000000" cx="205.733" cy="-810" rx="73.387" ry="18"/>
<text text-anchor="middle" x="205.733" y="-806.3" font-family="Times,serif" font-size="14.00" fill="#000000">init_aff (ants)</text>
</g>
<!-- inputnode (utility)&#45;&gt;init_aff (ants) -->
<g id="edge4" class="edge">
<title>inputnode (utility)&#45;&gt;init_aff (ants)</title>
<path fill="none" stroke="#000000" d="M760.619,-1091.1532C565.3698,-1073.8769 106.8318,-1020.9786 21.733,-900 -10.2625,-854.5143 65.4952,-831.0156 129.2985,-819.6151"/>
<polygon fill="#000000" stroke="#000000" points="130.1491,-823.0207 139.4176,-817.8878 128.9712,-816.1205 130.1491,-823.0207"/>
</g>
<!-- norm (fixes) -->
<g id="node6" class="node">
<title>norm (fixes)</title>
<ellipse fill="none" stroke="#000000" cx="707.733" cy="-738" rx="66.8882" ry="18"/>
<text text-anchor="middle" x="707.733" y="-734.3" font-family="Times,serif" font-size="14.00" fill="#000000">norm (fixes)</text>
</g>
<!-- inputnode (utility)&#45;&gt;norm (fixes) -->
<g id="edge5" class="edge">
<title>inputnode (utility)&#45;&gt;norm (fixes)</title>
<path fill="none" stroke="#000000" d="M844.7962,-1079.9156C839.231,-1052.7281 829.733,-999.6422 829.733,-954 829.733,-954 829.733,-954 829.733,-882 829.733,-841.1184 835.4085,-824.5949 810.733,-792 798.4355,-775.7556 779.8289,-763.9273 761.7978,-755.5575"/>
<polygon fill="#000000" stroke="#000000" points="763.0235,-752.2739 752.4576,-751.4909 760.2291,-758.6919 763.0235,-752.2739"/>
</g>
<!-- map_brainmask (fixes) -->
<g id="node7" class="node">
<title>map_brainmask (fixes)</title>
<ellipse fill="none" stroke="#000000" cx="730.733" cy="-666" rx="116.1796" ry="18"/>
<text text-anchor="middle" x="730.733" y="-662.3" font-family="Times,serif" font-size="14.00" fill="#000000">map_brainmask (fixes)</text>
</g>
<!-- inputnode (utility)&#45;&gt;map_brainmask (fixes) -->
<g id="edge6" class="edge">
<title>inputnode (utility)&#45;&gt;map_brainmask (fixes)</title>
<path fill="none" stroke="#000000" d="M852.6698,-1079.9156C858.235,-1052.7281 867.733,-999.6422 867.733,-954 867.733,-954 867.733,-954 867.733,-810 867.733,-754.982 814.5904,-712.6385 774.5015,-688.5233"/>
<polygon fill="#000000" stroke="#000000" points="776.0601,-685.3805 765.6584,-683.3669 772.5341,-691.4277 776.0601,-685.3805"/>
</g>
<!-- inu_n4 (ants) -->
<g id="node8" class="node">
<title>inu_n4 (ants)</title>
<ellipse fill="none" stroke="#000000" cx="416.733" cy="-954" rx="71.4873" ry="18"/>
<text text-anchor="middle" x="416.733" y="-950.3" font-family="Times,serif" font-size="14.00" fill="#000000">inu_n4 (ants)</text>
</g>
<!-- truncate_images (ants)&#45;&gt;inu_n4 (ants) -->
<g id="edge7" class="edge">
<title>truncate_images (ants)&#45;&gt;inu_n4 (ants)</title>
<path fill="none" stroke="#000000" d="M517.5374,-1008.5708C499.0872,-998.5827 475.7855,-985.9683 456.2343,-975.3841"/>
<polygon fill="#000000" stroke="#000000" points="457.7219,-972.2095 447.2615,-970.5267 454.3894,-978.3654 457.7219,-972.2095"/>
</g>
<!-- outputnode (utility) -->
<g id="node9" class="node">
<title>outputnode (utility)</title>
<ellipse fill="none" stroke="#000000" cx="694.733" cy="-18" rx="101.2821" ry="18"/>
<text text-anchor="middle" x="694.733" y="-14.3" font-family="Times,serif" font-size="14.00" fill="#000000">outputnode (utility)</text>
</g>
<!-- copy_xform (utils)&#45;&gt;outputnode (utility) -->
<g id="edge8" class="edge">
<title>copy_xform (utils)&#45;&gt;outputnode (utility)</title>
<path fill="none" stroke="#000000" d="M789.7924,-72.7542C773.0629,-63.118 752.0152,-50.9945 733.9802,-40.6064"/>
<polygon fill="#000000" stroke="#000000" points="735.2748,-37.313 724.8626,-35.3546 731.7809,-43.3787 735.2748,-37.313"/>
</g>
<!-- inu_n4_final (ants)&#45;&gt;copy_xform (utils) -->
<g id="edge10" class="edge">
<title>inu_n4_final (ants)&#45;&gt;copy_xform (utils)</title>
<path fill="none" stroke="#000000" d="M767.8635,-216.402C779.576,-206.9223 792.6752,-194.2519 800.733,-180 811.4423,-161.0583 816.1341,-136.7835 818.1801,-118.2189"/>
<polygon fill="#000000" stroke="#000000" points="821.6864,-118.3071 819.1046,-108.0317 814.7151,-117.6745 821.6864,-118.3071"/>
</g>
<!-- apply_mask (fsl) -->
<g id="node10" class="node">
<title>apply_mask (fsl)</title>
<ellipse fill="none" stroke="#000000" cx="704.733" cy="-162" rx="87.1846" ry="18"/>
<text text-anchor="middle" x="704.733" y="-158.3" font-family="Times,serif" font-size="14.00" fill="#000000">apply_mask (fsl)</text>
</g>
<!-- inu_n4_final (ants)&#45;&gt;apply_mask (fsl) -->
<g id="edge9" class="edge">
<title>inu_n4_final (ants)&#45;&gt;apply_mask (fsl)</title>
<path fill="none" stroke="#000000" d="M733.144,-215.8314C728.836,-207.6688 723.6644,-197.87 718.9211,-188.8827"/>
<polygon fill="#000000" stroke="#000000" points="721.9503,-187.1236 714.1873,-179.9134 715.7596,-190.3909 721.9503,-187.1236"/>
</g>
<!-- init_aff (ants)&#45;&gt;norm (fixes) -->
<g id="edge11" class="edge">
<title>init_aff (ants)&#45;&gt;norm (fixes)</title>
<path fill="none" stroke="#000000" d="M269.3117,-800.8812C363.8472,-787.3223 540.7925,-761.9437 638.4984,-747.9301"/>
<polygon fill="#000000" stroke="#000000" points="639.1649,-751.3704 648.5667,-746.486 638.1711,-744.4413 639.1649,-751.3704"/>
</g>
<!-- norm (fixes)&#45;&gt;map_brainmask (fixes) -->
<g id="edge12" class="edge">
<title>norm (fixes)&#45;&gt;map_brainmask (fixes)</title>
<path fill="none" stroke="#000000" d="M713.5369,-719.8314C716.0238,-712.0463 718.9861,-702.7729 721.7455,-694.1347"/>
<polygon fill="#000000" stroke="#000000" points="725.142,-695.0041 724.851,-684.4133 718.4739,-692.874 725.142,-695.0041"/>
</g>
<!-- thr_brainmask (ants) -->
<g id="node11" class="node">
<title>thr_brainmask (ants)</title>
<ellipse fill="none" stroke="#000000" cx="730.733" cy="-594" rx="108.5808" ry="18"/>
<text text-anchor="middle" x="730.733" y="-590.3" font-family="Times,serif" font-size="14.00" fill="#000000">thr_brainmask (ants)</text>
</g>
<!-- map_brainmask (fixes)&#45;&gt;thr_brainmask (ants) -->
<g id="edge13" class="edge">
<title>map_brainmask (fixes)&#45;&gt;thr_brainmask (ants)</title>
<path fill="none" stroke="#000000" d="M730.733,-647.8314C730.733,-640.131 730.733,-630.9743 730.733,-622.4166"/>
<polygon fill="#000000" stroke="#000000" points="734.2331,-622.4132 730.733,-612.4133 727.2331,-622.4133 734.2331,-622.4132"/>
</g>
<!-- res_target (ants) -->
<g id="node12" class="node">
<title>res_target (ants)</title>
<ellipse fill="none" stroke="#000000" cx="299.733" cy="-882" rx="89.0842" ry="18"/>
<text text-anchor="middle" x="299.733" y="-878.3" font-family="Times,serif" font-size="14.00" fill="#000000">res_target (ants)</text>
</g>
<!-- inu_n4 (ants)&#45;&gt;res_target (ants) -->
<g id="edge14" class="edge">
<title>inu_n4 (ants)&#45;&gt;res_target (ants)</title>
<path fill="none" stroke="#000000" d="M389.5968,-937.3008C373.7308,-927.5371 353.4949,-915.0842 336.2444,-904.4685"/>
<polygon fill="#000000" stroke="#000000" points="337.8855,-901.3688 327.5345,-899.1086 334.2168,-907.3305 337.8855,-901.3688"/>
</g>
<!-- lap_target (ants) -->
<g id="node13" class="node">
<title>lap_target (ants)</title>
<ellipse fill="none" stroke="#000000" cx="532.733" cy="-882" rx="88.2844" ry="18"/>
<text text-anchor="middle" x="532.733" y="-878.3" font-family="Times,serif" font-size="14.00" fill="#000000">lap_target (ants)</text>
</g>
<!-- inu_n4 (ants)&#45;&gt;lap_target (ants) -->
<g id="edge15" class="edge">
<title>inu_n4 (ants)&#45;&gt;lap_target (ants)</title>
<path fill="none" stroke="#000000" d="M443.6373,-937.3008C459.3677,-927.5371 479.4306,-915.0842 496.5337,-904.4685"/>
<polygon fill="#000000" stroke="#000000" points="498.5185,-907.3561 505.1691,-899.1086 494.8269,-901.4086 498.5185,-907.3561"/>
</g>
<!-- mrg_target (utility) -->
<g id="node14" class="node">
<title>mrg_target (utility)</title>
<ellipse fill="none" stroke="#000000" cx="495.733" cy="-810" rx="100.9827" ry="18"/>
<text text-anchor="middle" x="495.733" y="-806.3" font-family="Times,serif" font-size="14.00" fill="#000000">mrg_target (utility)</text>
</g>
<!-- inu_n4 (ants)&#45;&gt;mrg_target (utility) -->
<g id="edge16" class="edge">
<title>inu_n4 (ants)&#45;&gt;mrg_target (utility)</title>
<path fill="none" stroke="#000000" d="M417.2859,-935.9251C418.5835,-916.8712 422.731,-886.5503 435.733,-864 442.306,-852.6001 452.1292,-842.298 461.9342,-833.8221"/>
<polygon fill="#000000" stroke="#000000" points="464.2167,-836.4767 469.7312,-827.4301 459.7788,-831.0633 464.2167,-836.4767"/>
</g>
<!-- atropos_wf -->
<g id="node15" class="node">
<title>atropos_wf</title>
<ellipse fill="none" stroke="#000000" cx="617.733" cy="-378" rx="61.99" ry="18"/>
<text text-anchor="middle" x="617.733" y="-374.3" font-family="Times,serif" font-size="14.00" fill="#000000">atropos_wf</text>
</g>
<!-- inu_n4 (ants)&#45;&gt;atropos_wf -->
<g id="edge17" class="edge">
<title>inu_n4 (ants)&#45;&gt;atropos_wf</title>
<path fill="none" stroke="#000000" d="M347.845,-948.8745C241.0153,-940.2949 45.1707,-921.804 21.733,-900 -8.199,-872.1543 2.733,-850.8816 2.733,-810 2.733,-810 2.733,-810 2.733,-522 2.733,-411.6124 383.1066,-385.789 545.569,-379.7938"/>
<polygon fill="#000000" stroke="#000000" points="546.0786,-383.2781 555.9486,-379.4269 545.8312,-376.2825 546.0786,-383.2781"/>
</g>
<!-- apply_mask (fsl)&#45;&gt;copy_xform (utils) -->
<g id="edge18" class="edge">
<title>apply_mask (fsl)&#45;&gt;copy_xform (utils)</title>
<path fill="none" stroke="#000000" d="M732.2784,-144.7542C747.5284,-135.2064 766.6784,-123.2168 783.1682,-112.8927"/>
<polygon fill="#000000" stroke="#000000" points="785.3953,-115.6278 792.0138,-107.3546 781.6807,-109.6947 785.3953,-115.6278"/>
</g>
<!-- thr_brainmask (ants)&#45;&gt;atropos_wf -->
<g id="edge20" class="edge">
<title>thr_brainmask (ants)&#45;&gt;atropos_wf</title>
<path fill="none" stroke="#000000" d="M685.1053,-577.4499C667.8676,-568.8991 649.7692,-556.6818 638.733,-540 611.9759,-499.5553 611.5942,-440.8638 614.291,-406.3457"/>
<polygon fill="#000000" stroke="#000000" points="617.8081,-406.3218 615.2452,-396.0417 610.8379,-405.6763 617.8081,-406.3218"/>
</g>
<!-- dil_brainmask (ants) -->
<g id="node17" class="node">
<title>dil_brainmask (ants)</title>
<ellipse fill="none" stroke="#000000" cx="754.733" cy="-522" rx="106.6812" ry="18"/>
<text text-anchor="middle" x="754.733" y="-518.3" font-family="Times,serif" font-size="14.00" fill="#000000">dil_brainmask (ants)</text>
</g>
<!-- thr_brainmask (ants)&#45;&gt;dil_brainmask (ants) -->
<g id="edge19" class="edge">
<title>thr_brainmask (ants)&#45;&gt;dil_brainmask (ants)</title>
<path fill="none" stroke="#000000" d="M736.7892,-575.8314C739.3842,-568.0463 742.4754,-558.7729 745.3548,-550.1347"/>
<polygon fill="#000000" stroke="#000000" points="748.7533,-551.0069 748.5953,-540.4133 742.1125,-548.7933 748.7533,-551.0069"/>
</g>
<!-- res_target (ants)&#45;&gt;init_aff (ants) -->
<g id="edge21" class="edge">
<title>res_target (ants)&#45;&gt;init_aff (ants)</title>
<path fill="none" stroke="#000000" d="M276.9782,-864.5708C264.7393,-855.1963 249.4797,-843.5081 236.2262,-833.3565"/>
<polygon fill="#000000" stroke="#000000" points="238.3453,-830.5709 228.2782,-827.2687 234.0888,-836.1281 238.3453,-830.5709"/>
</g>
<!-- lap_target (ants)&#45;&gt;mrg_target (utility) -->
<g id="edge22" class="edge">
<title>lap_target (ants)&#45;&gt;mrg_target (utility)</title>
<path fill="none" stroke="#000000" d="M523.3963,-863.8314C519.3087,-855.8771 514.4227,-846.369 509.9021,-837.5723"/>
<polygon fill="#000000" stroke="#000000" points="512.8791,-835.7078 505.1954,-828.4133 506.6531,-838.9074 512.8791,-835.7078"/>
</g>
<!-- mrg_target (utility)&#45;&gt;norm (fixes) -->
<g id="edge23" class="edge">
<title>mrg_target (utility)&#45;&gt;norm (fixes)</title>
<path fill="none" stroke="#000000" d="M542.7827,-794.0209C576.3127,-782.6333 621.3815,-767.3269 655.9363,-755.5913"/>
<polygon fill="#000000" stroke="#000000" points="657.4975,-758.7575 665.8407,-752.2276 655.2463,-752.1294 657.4975,-758.7575"/>
</g>
<!-- atropos_wf&#45;&gt;outputnode (utility) -->
<g id="edge26" class="edge">
<title>atropos_wf&#45;&gt;outputnode (utility)</title>
<path fill="none" stroke="#000000" d="M609.6742,-359.7668C598.5196,-332.8248 579.733,-280.5405 579.733,-234 579.733,-234 579.733,-234 579.733,-162 579.733,-110.5322 625.1432,-66.8865 658.8931,-41.5553"/>
<polygon fill="#000000" stroke="#000000" points="661.1635,-44.2317 667.1876,-35.5162 657.0433,-38.5728 661.1635,-44.2317"/>
</g>
<!-- atropos_wf&#45;&gt;apply_mask (fsl) -->
<g id="edge25" class="edge">
<title>atropos_wf&#45;&gt;apply_mask (fsl)</title>
<path fill="none" stroke="#000000" d="M615.5591,-359.6264C612.7238,-328.0758 610.8273,-262.5093 636.733,-216 643.5724,-203.721 654.4495,-193.2234 665.5161,-184.8384"/>
<polygon fill="#000000" stroke="#000000" points="667.828,-187.4892 673.952,-178.8436 663.7731,-181.7833 667.828,-187.4892"/>
</g>
<!-- sel_wm (utility) -->
<g id="node21" class="node">
<title>sel_wm (utility)</title>
<ellipse fill="none" stroke="#000000" cx="735.733" cy="-306" rx="83.3857" ry="18"/>
<text text-anchor="middle" x="735.733" y="-302.3" font-family="Times,serif" font-size="14.00" fill="#000000">sel_wm (utility)</text>
</g>
<!-- atropos_wf&#45;&gt;sel_wm (utility) -->
<g id="edge24" class="edge">
<title>atropos_wf&#45;&gt;sel_wm (utility)</title>
<path fill="none" stroke="#000000" d="M644.509,-361.6621C660.6065,-351.8399 681.3205,-339.2009 698.9405,-328.4497"/>
<polygon fill="#000000" stroke="#000000" points="701.1184,-331.2209 707.8317,-323.0245 697.4723,-325.2455 701.1184,-331.2209"/>
</g>
<!-- res_tmpl (ants) -->
<g id="node16" class="node">
<title>res_tmpl (ants)</title>
<ellipse fill="none" stroke="#000000" cx="111.733" cy="-882" rx="81.4863" ry="18"/>
<text text-anchor="middle" x="111.733" y="-878.3" font-family="Times,serif" font-size="14.00" fill="#000000">res_tmpl (ants)</text>
</g>
<!-- res_tmpl (ants)&#45;&gt;init_aff (ants) -->
<g id="edge27" class="edge">
<title>res_tmpl (ants)&#45;&gt;init_aff (ants)</title>
<path fill="none" stroke="#000000" d="M134.4878,-864.5708C146.7268,-855.1963 161.9863,-843.5081 175.2398,-833.3565"/>
<polygon fill="#000000" stroke="#000000" points="177.3773,-836.1281 183.1878,-827.2687 173.1207,-830.5709 177.3773,-836.1281"/>
</g>
<!-- get_brainmask (ants) -->
<g id="node18" class="node">
<title>get_brainmask (ants)</title>
<ellipse fill="none" stroke="#000000" cx="755.733" cy="-450" rx="109.6807" ry="18"/>
<text text-anchor="middle" x="755.733" y="-446.3" font-family="Times,serif" font-size="14.00" fill="#000000">get_brainmask (ants)</text>
</g>
<!-- dil_brainmask (ants)&#45;&gt;get_brainmask (ants) -->
<g id="edge28" class="edge">
<title>dil_brainmask (ants)&#45;&gt;get_brainmask (ants)</title>
<path fill="none" stroke="#000000" d="M754.9854,-503.8314C755.0923,-496.131 755.2195,-486.9743 755.3383,-478.4166"/>
<polygon fill="#000000" stroke="#000000" points="758.838,-478.4609 755.4773,-468.4133 751.8386,-478.3637 758.838,-478.4609"/>
</g>
<!-- get_brainmask (ants)&#45;&gt;copy_xform (utils) -->
<g id="edge29" class="edge">
<title>get_brainmask (ants)&#45;&gt;copy_xform (utils)</title>
<path fill="none" stroke="#000000" d="M782.2754,-432.5203C815.3954,-408.365 867.733,-361.4252 867.733,-306 867.733,-306 867.733,-306 867.733,-234 867.733,-191.5687 848.7442,-145.5468 834.6533,-117.2369"/>
<polygon fill="#000000" stroke="#000000" points="837.5916,-115.2965 829.9126,-107.9969 831.3635,-118.4919 837.5916,-115.2965"/>
</g>
<!-- get_brainmask (ants)&#45;&gt;atropos_wf -->
<g id="edge30" class="edge">
<title>get_brainmask (ants)&#45;&gt;atropos_wf</title>
<path fill="none" stroke="#000000" d="M722.6786,-432.7542C702.952,-422.4621 677.7872,-409.3326 657.0451,-398.5106"/>
<polygon fill="#000000" stroke="#000000" points="658.644,-395.3972 648.1592,-393.8745 655.406,-401.6033 658.644,-395.3972"/>
</g>
<!-- lap_tmpl (ants) -->
<g id="node19" class="node">
<title>lap_tmpl (ants)</title>
<ellipse fill="none" stroke="#000000" cx="720.733" cy="-882" rx="81.4863" ry="18"/>
<text text-anchor="middle" x="720.733" y="-878.3" font-family="Times,serif" font-size="14.00" fill="#000000">lap_tmpl (ants)</text>
</g>
<!-- mrg_tmpl (utility) -->
<g id="node20" class="node">
<title>mrg_tmpl (utility)</title>
<ellipse fill="none" stroke="#000000" cx="707.733" cy="-810" rx="93.6835" ry="18"/>
<text text-anchor="middle" x="707.733" y="-806.3" font-family="Times,serif" font-size="14.00" fill="#000000">mrg_tmpl (utility)</text>
</g>
<!-- lap_tmpl (ants)&#45;&gt;mrg_tmpl (utility) -->
<g id="edge31" class="edge">
<title>lap_tmpl (ants)&#45;&gt;mrg_tmpl (utility)</title>
<path fill="none" stroke="#000000" d="M717.4526,-863.8314C716.0622,-856.131 714.4089,-846.9743 712.8638,-838.4166"/>
<polygon fill="#000000" stroke="#000000" points="716.2788,-837.6322 711.0576,-828.4133 709.3902,-838.8761 716.2788,-837.6322"/>
</g>
<!-- mrg_tmpl (utility)&#45;&gt;norm (fixes) -->
<g id="edge32" class="edge">
<title>mrg_tmpl (utility)&#45;&gt;norm (fixes)</title>
<path fill="none" stroke="#000000" d="M707.733,-791.8314C707.733,-784.131 707.733,-774.9743 707.733,-766.4166"/>
<polygon fill="#000000" stroke="#000000" points="711.2331,-766.4132 707.733,-756.4133 704.2331,-766.4133 711.2331,-766.4132"/>
</g>
<!-- sel_wm (utility)&#45;&gt;inu_n4_final (ants) -->
<g id="edge33" class="edge">
<title>sel_wm (utility)&#45;&gt;inu_n4_final (ants)</title>
<path fill="none" stroke="#000000" d="M737.4994,-287.8314C738.2481,-280.131 739.1383,-270.9743 739.9703,-262.4166"/>
<polygon fill="#000000" stroke="#000000" points="743.4587,-262.7051 740.9428,-252.4133 736.4915,-262.0276 743.4587,-262.7051"/>
</g>
</g>
</svg>
