<?xml version="1.0" encoding="UTF-8" standalone="no"?>
<!DOCTYPE svg PUBLIC "-//W3C//DTD SVG 1.1//EN"
 "http://www.w3.org/Graphics/SVG/1.1/DTD/svg11.dtd">
<!-- Generated by graphviz version 2.40.1 (20161225.0304)
 -->
<!-- Title: %3 Pages: 1 -->
<svg width="482pt" height="404pt"
 viewBox="0.00 0.00 481.63 404.00" xmlns="http://www.w3.org/2000/svg" xmlns:xlink="http://www.w3.org/1999/xlink">
<g id="graph0" class="graph" transform="scale(1 1) rotate(0) translate(4 400)">
<title>%3</title>
<polygon fill="#ffffff" stroke="transparent" points="-4,4 -4,-400 477.6315,-400 477.6315,4 -4,4"/>
<!-- inputnode (utility) -->
<g id="node1" class="node">
<title>inputnode (utility)</title>
<ellipse fill="none" stroke="#000000" cx="200.0923" cy="-378" rx="94.7833" ry="18"/>
<text text-anchor="middle" x="200.0923" y="-374.3" font-family="Times,serif" font-size="14.00" fill="#000000">inputnode (utility)</text>
</g>
<!-- skullstrip_first_pass (fsl) -->
<g id="node2" class="node">
<title>skullstrip_first_pass (fsl)</title>
<ellipse fill="none" stroke="#000000" cx="200.0923" cy="-306" rx="126.1777" ry="18"/>
<text text-anchor="middle" x="200.0923" y="-302.3" font-family="Times,serif" font-size="14.00" fill="#000000">skullstrip_first_pass (fsl)</text>
</g>
<!-- inputnode (utility)&#45;&gt;skullstrip_first_pass (fsl) -->
<g id="edge1" class="edge">
<title>inputnode (utility)&#45;&gt;skullstrip_first_pass (fsl)</title>
<path fill="none" stroke="#000000" d="M200.0923,-359.8314C200.0923,-352.131 200.0923,-342.9743 200.0923,-334.4166"/>
<polygon fill="#000000" stroke="#000000" points="203.5924,-334.4132 200.0923,-324.4133 196.5924,-334.4133 203.5924,-334.4132"/>
</g>
<!-- apply_mask (fsl) -->
<g id="node3" class="node">
<title>apply_mask (fsl)</title>
<ellipse fill="none" stroke="#000000" cx="87.0923" cy="-90" rx="87.1846" ry="18"/>
<text text-anchor="middle" x="87.0923" y="-86.3" font-family="Times,serif" font-size="14.00" fill="#000000">apply_mask (fsl)</text>
</g>
<!-- inputnode (utility)&#45;&gt;apply_mask (fsl) -->
<g id="edge2" class="edge">
<title>inputnode (utility)&#45;&gt;apply_mask (fsl)</title>
<path fill="none" stroke="#000000" d="M143.2737,-363.5596C117.5197,-355.0373 87.8201,-342.2619 65.0923,-324 34.9184,-299.7552 27.4859,-288.9926 16.0923,-252 .7421,-202.1615 37.0026,-147.1553 63.1543,-115.7701"/>
<polygon fill="#000000" stroke="#000000" points="66.0173,-117.8086 69.879,-107.9426 60.7076,-113.247 66.0173,-117.8086"/>
</g>
<!-- mask_reportlet (masks) -->
<g id="node4" class="node">
<title>mask_reportlet (masks)</title>
<ellipse fill="none" stroke="#000000" cx="352.0923" cy="-90" rx="121.5784" ry="18"/>
<text text-anchor="middle" x="352.0923" y="-86.3" font-family="Times,serif" font-size="14.00" fill="#000000">mask_reportlet (masks)</text>
</g>
<!-- inputnode (utility)&#45;&gt;mask_reportlet (masks) -->
<g id="edge3" class="edge">
<title>inputnode (utility)&#45;&gt;mask_reportlet (masks)</title>
<path fill="none" stroke="#000000" d="M269.5405,-365.5908C293.9335,-357.7211 319.1946,-344.8918 335.0923,-324 381.414,-263.1267 368.9226,-165.6392 358.9789,-118.0151"/>
<polygon fill="#000000" stroke="#000000" points="362.3644,-117.1143 356.793,-108.1026 355.5286,-118.6217 362.3644,-117.1143"/>
</g>
<!-- skullstrip_second_pass (afni) -->
<g id="node5" class="node">
<title>skullstrip_second_pass (afni)</title>
<ellipse fill="none" stroke="#000000" cx="171.0923" cy="-234" rx="145.6742" ry="18"/>
<text text-anchor="middle" x="171.0923" y="-230.3" font-family="Times,serif" font-size="14.00" fill="#000000">skullstrip_second_pass (afni)</text>
</g>
<!-- skullstrip_first_pass (fsl)&#45;&gt;skullstrip_second_pass (afni) -->
<g id="edge4" class="edge">
<title>skullstrip_first_pass (fsl)&#45;&gt;skullstrip_second_pass (afni)</title>
<path fill="none" stroke="#000000" d="M192.7743,-287.8314C189.6046,-279.9617 185.8223,-270.5712 182.311,-261.8533"/>
<polygon fill="#000000" stroke="#000000" points="185.4914,-260.3815 178.5087,-252.4133 178.9983,-262.9968 185.4914,-260.3815"/>
</g>
<!-- combine_masks (fsl) -->
<g id="node6" class="node">
<title>combine_masks (fsl)</title>
<ellipse fill="none" stroke="#000000" cx="202.0923" cy="-162" rx="105.8812" ry="18"/>
<text text-anchor="middle" x="202.0923" y="-158.3" font-family="Times,serif" font-size="14.00" fill="#000000">combine_masks (fsl)</text>
</g>
<!-- skullstrip_first_pass (fsl)&#45;&gt;combine_masks (fsl) -->
<g id="edge5" class="edge">
<title>skullstrip_first_pass (fsl)&#45;&gt;combine_masks (fsl)</title>
<path fill="none" stroke="#000000" d="M272.1475,-291.1867C293.0857,-283.1778 313.646,-270.8752 326.0923,-252 334.9001,-238.6425 334.8612,-229.3831 326.0923,-216 315.1386,-199.2825 297.7603,-187.7121 279.4407,-179.7143"/>
<polygon fill="#000000" stroke="#000000" points="280.6851,-176.4423 270.1013,-175.9589 278.0736,-182.9369 280.6851,-176.4423"/>
</g>
<!-- outputnode (utility) -->
<g id="node7" class="node">
<title>outputnode (utility)</title>
<ellipse fill="none" stroke="#000000" cx="202.0923" cy="-18" rx="101.2821" ry="18"/>
<text text-anchor="middle" x="202.0923" y="-14.3" font-family="Times,serif" font-size="14.00" fill="#000000">outputnode (utility)</text>
</g>
<!-- apply_mask (fsl)&#45;&gt;outputnode (utility) -->
<g id="edge6" class="edge">
<title>apply_mask (fsl)&#45;&gt;outputnode (utility)</title>
<path fill="none" stroke="#000000" d="M114.6376,-72.7542C129.8876,-63.2064 149.0377,-51.2168 165.5275,-40.8927"/>
<polygon fill="#000000" stroke="#000000" points="167.7546,-43.6278 174.3731,-35.3546 164.0399,-37.6947 167.7546,-43.6278"/>
</g>
<!-- mask_reportlet (masks)&#45;&gt;outputnode (utility) -->
<g id="edge7" class="edge">
<title>mask_reportlet (masks)&#45;&gt;outputnode (utility)</title>
<path fill="none" stroke="#000000" d="M316.1635,-72.7542C295.308,-62.7436 268.8603,-50.0486 246.6831,-39.4036"/>
<polygon fill="#000000" stroke="#000000" points="247.9986,-36.1528 237.4688,-34.9807 244.9694,-42.4634 247.9986,-36.1528"/>
</g>
<!-- skullstrip_second_pass (afni)&#45;&gt;combine_masks (fsl) -->
<g id="edge8" class="edge">
<title>skullstrip_second_pass (afni)&#45;&gt;combine_masks (fsl)</title>
<path fill="none" stroke="#000000" d="M178.9149,-215.8314C182.3032,-207.9617 186.3464,-198.5712 190.0999,-189.8533"/>
<polygon fill="#000000" stroke="#000000" points="193.4244,-190.9822 194.1643,-180.4133 186.995,-188.214 193.4244,-190.9822"/>
</g>
<!-- combine_masks (fsl)&#45;&gt;apply_mask (fsl) -->
<g id="edge10" class="edge">
<title>combine_masks (fsl)&#45;&gt;apply_mask (fsl)</title>
<path fill="none" stroke="#000000" d="M174.254,-144.5708C158.9982,-135.0194 139.9064,-123.0662 123.4827,-112.7836"/>
<polygon fill="#000000" stroke="#000000" points="125.0074,-109.6088 114.6742,-107.2687 121.2927,-115.5419 125.0074,-109.6088"/>
</g>
<!-- combine_masks (fsl)&#45;&gt;mask_reportlet (masks) -->
<g id="edge11" class="edge">
<title>combine_masks (fsl)&#45;&gt;mask_reportlet (masks)</title>
<path fill="none" stroke="#000000" d="M237.6402,-144.937C258.3351,-135.0035 284.6324,-122.3807 306.7998,-111.7404"/>
<polygon fill="#000000" stroke="#000000" points="308.5182,-114.7979 316.0189,-107.3152 305.4891,-108.4872 308.5182,-114.7979"/>
</g>
<!-- combine_masks (fsl)&#45;&gt;outputnode (utility) -->
<g id="edge9" class="edge">
<title>combine_masks (fsl)&#45;&gt;outputnode (utility)</title>
<path fill="none" stroke="#000000" d="M202.0923,-143.7623C202.0923,-119.201 202.0923,-75.2474 202.0923,-46.3541"/>
<polygon fill="#000000" stroke="#000000" points="205.5924,-46.0896 202.0923,-36.0896 198.5924,-46.0897 205.5924,-46.0896"/>
</g>
</g>
</svg>
